<svg viewBox="0 0 800 800" xmlns="http://www.w3.org/2000/svg">
  <defs>
    <filter id="glow"><feGaussianBlur stdDeviation="5" result="b"/><feMerge><feMergeNode in="b"/><feMergeNode in="SourceGraphic"/></feMerge></filter>
    <filter id="s-glow"><feGaussianBlur stdDeviation="12" result="b"/><feMerge><feMergeNode in="b"/><feMergeNode in="SourceGraphic"/></feMerge></filter>
    <filter id="blur-h"><feGaussianBlur stdDeviation="22"/></filter>
    <radialGradient id="vig" cx="50%" cy="50%" r="60%">
      <stop offset="0%" stop-color="black" stop-opacity="0"/>
      <stop offset="100%" stop-color="black" stop-opacity="0.30"/>
    </radialGradient>
  </defs>
  <rect width="800" height="800" fill="#131110"/>
  <defs>
    <radialGradient id="bg8484a" cx="48%" cy="45%" r="75%">
      <stop offset="0%" stop-color="#362a25"/>
      <stop offset="100%" stop-color="#131110"/>
    </radialGradient>
    <radialGradient id="bg8484b" cx="51%" cy="55%" r="50%">
      <stop offset="0%" stop-color="#221d1b" stop-opacity=".7"/>
      <stop offset="100%" stop-color="#131110" stop-opacity="0"/>
    </radialGradient>
    <filter id="noise8484">
      <feTurbulence type="fractalNoise" baseFrequency="0.0035" numOctaves="4" seed="646"/>
      <feColorMatrix type="saturate" values="0"/>
      <feComponentTransfer><feFuncA type="linear" slope="0.040"/></feComponentTransfer>
      <feBlend in="SourceGraphic" mode="screen"/>
    </filter>
  </defs>
  <rect width="800" height="800" fill="url(#bg8484a)"/>
  <rect width="800" height="800" fill="url(#bg8484b)"/>
  <rect width="800" height="800" filter="url(#noise8484)" opacity=".4"/>
  <g id="atmosphere">
  <circle cx="381" cy="360" r="320" fill="#ce724a" opacity="0.100" filter="url(#blur-h)"/>
  <circle cx="865" cy="246" r="282" fill="#bb3c60" opacity="0.079" filter="url(#blur-h)"/>
  <circle cx="829" cy="411" r="321" fill="#c14079" opacity="0.075" filter="url(#blur-h)"/>
  <circle cx="318" cy="-80" r="360" fill="#c34677" opacity="0.082" filter="url(#blur-h)"/>
  <circle cx="669" cy="809" r="240" fill="#c85575" opacity="0.070" filter="url(#blur-h)"/>
  <circle cx="361" cy="900" r="207" fill="#6f5d45" opacity="0.058" filter="url(#blur-h)"/>
  </g>
  <g id="back">
    <circle cx="606" cy="269" r="198" fill="#cf754e" opacity="0.091" filter="url(#blur-h)"/>
    <circle cx="276" cy="623" r="62" fill="#ca7c3e" opacity="0.064" filter="url(#blur-h)"/>
    <circle cx="566" cy="697" r="173" fill="#ce634b" opacity="0.089" filter="url(#blur-h)"/>
    <circle cx="671" cy="457" r="214" fill="#bf9f45" opacity="0.105" filter="url(#blur-h)"/>
    <circle cx="491" cy="761" r="126" fill="#cf7b50" opacity="0.130" filter="url(#blur-h)"/>
    <circle cx="593" cy="196" r="142" fill="#c85355" opacity="0.052" filter="url(#blur-h)"/>
    <circle cx="569" cy="557" r="226" fill="#c29e4e" opacity="0.048" filter="url(#blur-h)"/>
    <circle cx="39" cy="184" r="54" fill="#c94b39" opacity="0.046" filter="url(#blur-h)"/>
    <circle cx="267" cy="271" r="89" fill="#d08952" opacity="0.040" filter="url(#blur-h)"/>
    <circle cx="267" cy="271" r="89" fill="none" stroke="#d08952" stroke-width="0.5" opacity="0.072"/>
    <circle cx="724" cy="430" r="57" fill="#c85473" opacity="0.092" filter="url(#blur-h)"/>
    <circle cx="724" cy="430" r="57" fill="none" stroke="#c85473" stroke-width="1.0" opacity="0.166"/>
    <circle cx="-30" cy="835" r="48" fill="#bfa144" opacity="0.080" filter="url(#blur-h)"/>
    <circle cx="-30" cy="835" r="48" fill="none" stroke="#bfa144" stroke-width="0.9" opacity="0.144"/>
    <circle cx="161" cy="89" r="42" fill="#c09f49" opacity="0.068" filter="url(#blur-h)"/>
    <circle cx="161" cy="89" r="42" fill="none" stroke="#c09f49" stroke-width="0.5" opacity="0.123"/>
    <circle cx="542" cy="684" r="88" fill="#ce8e4c" opacity="0.061" filter="url(#blur-h)"/>
    <circle cx="542" cy="684" r="88" fill="none" stroke="#ce8e4c" stroke-width="0.8" opacity="0.110"/>
    <circle cx="342" cy="303" r="49" fill="#cc5d43" opacity="0.036" filter="url(#blur-h)"/>
    <circle cx="342" cy="303" r="49" fill="none" stroke="#cc5d43" stroke-width="0.8" opacity="0.065"/>
    <circle cx="-20" cy="267" r="56" fill="#c24254" opacity="0.076" filter="url(#blur-h)"/>
    <circle cx="-20" cy="267" r="56" fill="none" stroke="#c24254" stroke-width="0.6" opacity="0.137"/>
    <circle cx="841" cy="97" r="88" fill="#d2795a" opacity="0.047" filter="url(#blur-h)"/>
    <circle cx="841" cy="97" r="88" fill="none" stroke="#d2795a" stroke-width="0.4" opacity="0.085"/>
    <circle cx="740" cy="715" r="47" fill="#c13e42" opacity="0.087" filter="url(#blur-h)"/>
    <circle cx="740" cy="715" r="47" fill="none" stroke="#c13e42" stroke-width="0.7" opacity="0.157"/>
    <circle cx="231" cy="503" r="74" fill="#c3465b" opacity="0.054" filter="url(#blur-h)"/>
    <circle cx="231" cy="503" r="74" fill="none" stroke="#c3465b" stroke-width="0.7" opacity="0.098"/>
    <circle cx="505" cy="797" r="31" fill="#c94b38" opacity="0.086" filter="url(#blur-h)"/>
    <circle cx="505" cy="797" r="31" fill="none" stroke="#c94b38" stroke-width="0.6" opacity="0.154"/>
    <circle cx="697" cy="217" r="71" fill="#ce7f4c" opacity="0.050" filter="url(#blur-h)"/>
    <circle cx="697" cy="217" r="71" fill="none" stroke="#ce7f4c" stroke-width="0.7" opacity="0.090"/>
    <circle cx="689" cy="535" r="34" fill="#aea83b" opacity="0.060" filter="url(#blur-h)"/>
    <circle cx="689" cy="535" r="34" fill="none" stroke="#aea83b" stroke-width="0.6" opacity="0.109"/>
    <circle cx="245" cy="88" r="59" fill="#b73a62" opacity="0.090" filter="url(#blur-h)"/>
    <circle cx="245" cy="88" r="59" fill="none" stroke="#b73a62" stroke-width="0.6" opacity="0.162"/>
  </g>
  <g id="nebula" opacity="0.59">
    <circle cx="517" cy="591" r="70" fill="#d08254" opacity="0.057" filter="url(#blur-h)"/>
    <circle cx="415" cy="633" r="81" fill="#b6ac3e" opacity="0.127" filter="url(#blur-h)"/>
    <circle cx="667" cy="450" r="117" fill="#c75050" opacity="0.123" filter="url(#blur-h)"/>
    <circle cx="769" cy="643" r="121" fill="#bcae40" opacity="0.109" filter="url(#blur-h)"/>
    <circle cx="629" cy="716" r="59" fill="#ce5c4c" opacity="0.088" filter="url(#blur-h)"/>
    <circle cx="105" cy="72" r="140" fill="#c2af4e" opacity="0.111" filter="url(#blur-h)"/>
  </g>
  <g id="curves" opacity="0.46">
    <path d="M-19.8,203.7 Q454.9,212.5 272.1,348.3 Q89.3,484.1 408.3,337.1 Q727.2,190.2 714.2,139.9 Q701.1,89.7 761.8,81.1 L822.5,72.5" stroke="#c34647" stroke-width="3.1" fill="none" opacity="0.13"/>
    <path d="M-0.6,623.9 Q572.1,813.7 629.0,475.0 Q685.8,136.2 751.3,448.1 L816.8,760.1" stroke="#b83b4d" stroke-width="0.6" fill="none" opacity="0.07"/>
    <path d="M-28.6,-2.0 Q653.9,721.4 471.0,763.7 Q288.1,805.9 380.7,592.0 Q473.4,378.2 267.8,511.2 Q62.1,644.1 202.1,408.8 Q342.0,173.5 577.4,376.2 L812.8,578.8" stroke="#ad823b" stroke-width="1.7" fill="none" opacity="0.07"/>
    <path d="M-26.5,830.6 Q559.8,587.2 518.3,459.5 Q476.9,331.7 615.0,476.3 Q753.1,620.9 789.2,716.3 L825.3,811.7" stroke="#be3c60" stroke-width="2.8" fill="none" opacity="0.20"/>
    <path d="M-32.1,734.1 Q139.8,630.7 386.8,555.7 Q633.8,480.6 725.1,332.9 L816.3,185.2" stroke="#c95860" stroke-width="1.7" fill="none" opacity="0.12"/>
    <path d="M-27.8,514.7 Q227.4,90.4 222.4,323.2 Q217.4,555.9 422.3,672.1 Q627.1,788.4 654.7,422.1 Q682.4,55.8 741.4,152.7 L800.4,249.6" stroke="#c1944b" stroke-width="3.1" fill="none" opacity="0.09"/>
    <path d="M-29.5,682.4 Q646.4,71.7 470.3,422.8 Q294.3,774.0 394.6,525.4 Q494.8,276.8 575.7,332.8 Q656.5,388.8 741.7,461.5 L826.9,534.2" stroke="#b8a63f" stroke-width="2.3" fill="none" opacity="0.19"/>
    <path d="M-37.1,342.1 Q487.9,132.5 496.9,282.1 Q505.8,431.7 666.5,411.2 L827.1,390.6" stroke="#cb6841" stroke-width="2.0" fill="none" opacity="0.16"/>
    <path d="M-25.5,97.0 Q236.9,548.1 464.4,629.8 Q691.9,711.4 752.5,433.6 L813.0,155.8" stroke="#af9f3c" stroke-width="1.1" fill="none" opacity="0.06"/>
    <path d="M-29.5,615.6 Q245.6,300.0 171.5,296.6 Q97.5,293.1 280.3,228.1 Q463.2,163.1 408.8,161.2 Q354.4,159.3 323.2,411.7 Q291.9,664.2 549.2,455.6 L806.5,247.1" stroke="#cf7f4e" stroke-width="1.0" fill="none" opacity="0.13"/>
  </g>
  <g id="constellation" opacity="0.37">
    <line x1="400" y1="530" x2="338" y2="442" stroke="#c4475d" stroke-width="0.6" opacity="0.036"/>
    <line x1="400" y1="530" x2="328" y2="532" stroke="#c4475d" stroke-width="0.6" opacity="0.061"/>
    <line x1="400" y1="530" x2="347" y2="462" stroke="#c4475d" stroke-width="0.6" opacity="0.045"/>
    <line x1="400" y1="532" x2="486" y2="479" stroke="#c4475d" stroke-width="0.6" opacity="0.034"/>
    <line x1="168" y1="653" x2="127" y2="723" stroke="#c4475d" stroke-width="0.6" opacity="0.038"/>
    <line x1="757" y1="573" x2="780" y2="563" stroke="#c4475d" stroke-width="0.6" opacity="0.087"/>
    <line x1="560" y1="278" x2="632" y2="275" stroke="#c4475d" stroke-width="0.6" opacity="0.057"/>
    <line x1="697" y1="590" x2="772" y2="588" stroke="#c4475d" stroke-width="0.6" opacity="0.042"/>
    <line x1="380" y1="74" x2="357" y2="52" stroke="#c4475d" stroke-width="0.6" opacity="0.098"/>
    <line x1="117" y1="402" x2="35" y2="372" stroke="#c4475d" stroke-width="0.6" opacity="0.036"/>
    <line x1="117" y1="402" x2="94" y2="518" stroke="#c4475d" stroke-width="0.6" opacity="0.030"/>
    <line x1="136" y1="162" x2="65" y2="231" stroke="#c4475d" stroke-width="0.6" opacity="0.029"/>
    <line x1="218" y1="308" x2="228" y2="230" stroke="#c4475d" stroke-width="0.6" opacity="0.052"/>
    <line x1="288" y1="91" x2="357" y2="52" stroke="#c4475d" stroke-width="0.6" opacity="0.045"/>
    <line x1="772" y1="588" x2="772" y2="674" stroke="#c4475d" stroke-width="0.6" opacity="0.030"/>
    <line x1="338" y1="442" x2="343" y2="500" stroke="#c4475d" stroke-width="0.6" opacity="0.083"/>
    <line x1="338" y1="442" x2="328" y2="532" stroke="#c4475d" stroke-width="0.6" opacity="0.039"/>
    <line x1="338" y1="442" x2="347" y2="462" stroke="#c4475d" stroke-width="0.6" opacity="0.134"/>
    <line x1="507" y1="627" x2="482" y2="622" stroke="#c4475d" stroke-width="0.6" opacity="0.106"/>
    <line x1="127" y1="723" x2="162" y2="783" stroke="#c4475d" stroke-width="0.6" opacity="0.045"/>
    <line x1="477" y1="684" x2="482" y2="622" stroke="#c4475d" stroke-width="0.6" opacity="0.063"/>
    <line x1="477" y1="684" x2="362" y2="686" stroke="#c4475d" stroke-width="0.6" opacity="0.028"/>
    <line x1="723" y1="377" x2="702" y2="272" stroke="#c4475d" stroke-width="0.6" opacity="0.028"/>
    <line x1="323" y1="421" x2="328" y2="532" stroke="#c4475d" stroke-width="0.6" opacity="0.035"/>
    <line x1="234" y1="65" x2="158" y2="120" stroke="#c4475d" stroke-width="0.6" opacity="0.029"/>
    <circle cx="400" cy="530" r="3.1" fill="white" opacity="0.51"/>
    <circle cx="400" cy="530" r="9.1" fill="#d28059" opacity="0.061"/>
    <circle cx="400" cy="532" r="2.2" fill="white" opacity="0.31"/>
    <circle cx="168" cy="653" r="1.3" fill="white" opacity="0.14"/>
    <circle cx="757" cy="573" r="1.3" fill="white" opacity="0.14"/>
    <circle cx="560" cy="278" r="2.7" fill="white" opacity="0.41"/>
    <circle cx="560" cy="278" r="8.7" fill="#cb6040" opacity="0.049"/>
    <circle cx="697" cy="590" r="2.7" fill="white" opacity="0.41"/>
    <circle cx="697" cy="590" r="8.7" fill="#cc6043" opacity="0.049"/>
    <circle cx="560" cy="283" r="2.1" fill="white" opacity="0.31"/>
    <circle cx="380" cy="74" r="3.0" fill="white" opacity="0.49"/>
    <circle cx="380" cy="74" r="9.0" fill="#cc6745" opacity="0.058"/>
    <circle cx="250" cy="681" r="1.9" fill="white" opacity="0.25"/>
    <circle cx="324" cy="680" r="1.4" fill="white" opacity="0.15"/>
    <circle cx="117" cy="402" r="2.6" fill="white" opacity="0.39"/>
    <circle cx="117" cy="402" r="8.6" fill="#cf834f" opacity="0.047"/>
    <circle cx="186" cy="486" r="2.8" fill="white" opacity="0.44"/>
    <circle cx="186" cy="486" r="8.8" fill="#ce724a" opacity="0.052"/>
    <circle cx="136" cy="162" r="2.3" fill="white" opacity="0.34"/>
    <circle cx="136" cy="162" r="8.3" fill="#ce724a" opacity="0.041"/>
    <circle cx="462" cy="458" r="2.0" fill="white" opacity="0.26"/>
    <circle cx="65" cy="231" r="2.0" fill="white" opacity="0.27"/>
    <circle cx="694" cy="730" r="1.7" fill="white" opacity="0.22"/>
    <circle cx="780" cy="563" r="2.3" fill="white" opacity="0.34"/>
    <circle cx="780" cy="563" r="8.3" fill="#c9693a" opacity="0.041"/>
    <circle cx="218" cy="308" r="2.1" fill="white" opacity="0.30"/>
    <circle cx="228" cy="230" r="3.9" fill="white" opacity="0.67"/>
    <circle cx="228" cy="230" r="9.9" fill="#ce724a" opacity="0.080"/>
    <circle cx="288" cy="91" r="3.5" fill="white" opacity="0.57"/>
    <circle cx="288" cy="91" r="9.5" fill="#ce724a" opacity="0.069"/>
    <circle cx="772" cy="588" r="1.5" fill="white" opacity="0.18"/>
    <circle cx="338" cy="442" r="2.8" fill="white" opacity="0.45"/>
    <circle cx="338" cy="442" r="8.8" fill="#cc6443" opacity="0.054"/>
    <circle cx="632" cy="275" r="2.0" fill="white" opacity="0.28"/>
    <circle cx="486" cy="479" r="4.1" fill="white" opacity="0.71"/>
    <circle cx="486" cy="479" r="10.1" fill="#ce724a" opacity="0.086"/>
    <circle cx="507" cy="627" r="3.0" fill="white" opacity="0.48"/>
    <circle cx="507" cy="627" r="9.0" fill="#d07353" opacity="0.058"/>
    <circle cx="523" cy="443" r="2.0" fill="white" opacity="0.28"/>
    <circle cx="127" cy="723" r="2.0" fill="white" opacity="0.28"/>
    <circle cx="313" cy="398" r="3.7" fill="white" opacity="0.63"/>
    <circle cx="313" cy="398" r="9.7" fill="#ce7e4c" opacity="0.075"/>
    <circle cx="343" cy="500" r="4.0" fill="white" opacity="0.70"/>
    <circle cx="343" cy="500" r="10.0" fill="#d08754" opacity="0.084"/>
    <circle cx="357" cy="52" r="2.3" fill="white" opacity="0.34"/>
    <circle cx="634" cy="106" r="3.3" fill="white" opacity="0.53"/>
    <circle cx="634" cy="106" r="9.3" fill="#ce7c4d" opacity="0.064"/>
    <circle cx="35" cy="372" r="3.1" fill="white" opacity="0.49"/>
    <circle cx="35" cy="372" r="9.1" fill="#cf744f" opacity="0.059"/>
    <circle cx="650" cy="393" r="3.5" fill="white" opacity="0.59"/>
    <circle cx="650" cy="393" r="9.5" fill="#cb643f" opacity="0.071"/>
    <circle cx="477" cy="684" r="1.7" fill="white" opacity="0.22"/>
    <circle cx="772" cy="674" r="2.1" fill="white" opacity="0.29"/>
    <circle cx="772" cy="674" r="8.1" fill="#ce724a" opacity="0.035"/>
    <circle cx="723" cy="377" r="3.1" fill="white" opacity="0.49"/>
    <circle cx="723" cy="377" r="9.1" fill="#cc7545" opacity="0.059"/>
    <circle cx="94" cy="518" r="3.3" fill="white" opacity="0.53"/>
    <circle cx="94" cy="518" r="9.3" fill="#cc6843" opacity="0.064"/>
    <circle cx="24" cy="358" r="1.4" fill="white" opacity="0.16"/>
    <circle cx="323" cy="421" r="4.3" fill="white" opacity="0.77"/>
    <circle cx="323" cy="421" r="10.3" fill="#d17d55" opacity="0.092"/>
    <circle cx="702" cy="272" r="2.6" fill="white" opacity="0.39"/>
    <circle cx="702" cy="272" r="8.6" fill="#ca713b" opacity="0.047"/>
    <circle cx="328" cy="532" r="2.2" fill="white" opacity="0.31"/>
    <circle cx="533" cy="444" r="4.0" fill="white" opacity="0.70"/>
    <circle cx="533" cy="444" r="10.0" fill="#d07c51" opacity="0.084"/>
    <circle cx="234" cy="65" r="2.0" fill="white" opacity="0.29"/>
    <circle cx="482" cy="622" r="2.9" fill="white" opacity="0.46"/>
    <circle cx="482" cy="622" r="8.9" fill="#ce724a" opacity="0.055"/>
    <circle cx="483" cy="298" r="2.2" fill="white" opacity="0.31"/>
    <circle cx="347" cy="462" r="3.9" fill="white" opacity="0.68"/>
    <circle cx="347" cy="462" r="9.9" fill="#cf7e4e" opacity="0.082"/>
    <circle cx="158" cy="120" r="3.1" fill="white" opacity="0.50"/>
    <circle cx="158" cy="120" r="9.1" fill="#d07a52" opacity="0.060"/>
    <circle cx="162" cy="783" r="3.1" fill="white" opacity="0.49"/>
    <circle cx="162" cy="783" r="9.1" fill="#ce724a" opacity="0.058"/>
    <circle cx="362" cy="686" r="2.1" fill="white" opacity="0.30"/>
  </g>
  <g id="bokeh-fg" opacity="0.35">
    <circle cx="556" cy="503" r="66" fill="#bb3c43" opacity="0.052" filter="url(#blur-h)"/>
    <circle cx="556" cy="503" r="66" fill="none" stroke="#bb3c43" stroke-width="1.1" opacity="0.094"/>
    <circle cx="621" cy="286" r="80" fill="#d27359" opacity="0.029" filter="url(#blur-h)"/>
    <circle cx="621" cy="286" r="80" fill="none" stroke="#d27359" stroke-width="1.0" opacity="0.053"/>
    <circle cx="644" cy="-31" r="94" fill="#d09353" opacity="0.047" filter="url(#blur-h)"/>
    <circle cx="644" cy="-31" r="94" fill="none" stroke="#d09353" stroke-width="0.7" opacity="0.085"/>
    <circle cx="706" cy="742" r="51" fill="#d2905b" opacity="0.065" filter="url(#blur-h)"/>
    <circle cx="706" cy="742" r="51" fill="none" stroke="#d2905b" stroke-width="0.9" opacity="0.117"/>
    <circle cx="649" cy="456" r="49" fill="#b99b3f" opacity="0.117" filter="url(#blur-h)"/>
    <circle cx="649" cy="456" r="49" fill="none" stroke="#b99b3f" stroke-width="0.9" opacity="0.211"/>
    <circle cx="-16" cy="50" r="84" fill="#d3745d" opacity="0.043" filter="url(#blur-h)"/>
    <circle cx="-16" cy="50" r="84" fill="none" stroke="#d3745d" stroke-width="0.5" opacity="0.077"/>
    <circle cx="658" cy="713" r="32" fill="#cc7943" opacity="0.043" filter="url(#blur-h)"/>
    <circle cx="658" cy="713" r="32" fill="none" stroke="#cc7943" stroke-width="1.1" opacity="0.077"/>
    <circle cx="301" cy="794" r="87" fill="#bf3d5e" opacity="0.059" filter="url(#blur-h)"/>
    <circle cx="301" cy="794" r="87" fill="none" stroke="#bf3d5e" stroke-width="0.5" opacity="0.107"/>
    <circle cx="821" cy="348" r="86" fill="#c75072" opacity="0.092" filter="url(#blur-h)"/>
    <circle cx="821" cy="348" r="86" fill="none" stroke="#c75072" stroke-width="0.6" opacity="0.165"/>
    <circle cx="716" cy="512" r="35" fill="#c64e64" opacity="0.097" filter="url(#blur-h)"/>
    <circle cx="716" cy="512" r="35" fill="none" stroke="#c64e64" stroke-width="1.0" opacity="0.174"/>
    <circle cx="394" cy="82" r="29" fill="#c1404c" opacity="0.031" filter="url(#blur-h)"/>
    <circle cx="394" cy="82" r="29" fill="none" stroke="#c1404c" stroke-width="1.1" opacity="0.057"/>
    <circle cx="381" cy="143" r="54" fill="#c86e36" opacity="0.043" filter="url(#blur-h)"/>
    <circle cx="381" cy="143" r="54" fill="none" stroke="#c86e36" stroke-width="0.5" opacity="0.078"/>
    <circle cx="793" cy="-27" r="29" fill="#c44874" opacity="0.057" filter="url(#blur-h)"/>
    <circle cx="793" cy="-27" r="29" fill="none" stroke="#c44874" stroke-width="0.5" opacity="0.102"/>
    <circle cx="-45" cy="572" r="57" fill="#bab93f" opacity="0.053" filter="url(#blur-h)"/>
    <circle cx="-45" cy="572" r="57" fill="none" stroke="#bab93f" stroke-width="0.8" opacity="0.095"/>
    <circle cx="711" cy="502" r="71" fill="#d06c52" opacity="0.069" filter="url(#blur-h)"/>
    <circle cx="711" cy="502" r="71" fill="none" stroke="#d06c52" stroke-width="1.0" opacity="0.124"/>
    <circle cx="737" cy="536" r="89" fill="#b18d3c" opacity="0.097" filter="url(#blur-h)"/>
    <circle cx="737" cy="536" r="89" fill="none" stroke="#b18d3c" stroke-width="0.6" opacity="0.175"/>
  </g>
  <g id="volumetric" opacity="0.62">
    <ellipse cx="305" cy="300" rx="242" ry="127" fill="#c9613a" opacity="0.047" transform="rotate(-11 305 300)" filter="url(#blur-h)"/>
    <ellipse cx="446" cy="317" rx="196" ry="141" fill="#cd6d48" opacity="0.026" transform="rotate(12 446 317)" filter="url(#blur-h)"/>
    <ellipse cx="352" cy="262" rx="255" ry="113" fill="#c96439" opacity="0.016" transform="rotate(-29 352 262)" filter="url(#blur-h)"/>
  </g>
  <g id="stars">
    <circle cx="81" cy="166" r="0.7" fill="white" opacity="0.42"/>
    <circle cx="779" cy="715" r="1.8" fill="white" opacity="0.19"/>
    <circle cx="473" cy="729" r="1.8" fill="white" opacity="0.39"/>
    <circle cx="526" cy="115" r="0.7" fill="white" opacity="0.30"/>
    <circle cx="750" cy="638" r="1.9" fill="white" opacity="0.31"/>
    <circle cx="423" cy="342" r="2.6" fill="white" opacity="0.44"/>
    <circle cx="423" cy="342" r="7.6" fill="white" opacity="0.026"/>
    <circle cx="131" cy="138" r="2.6" fill="white" opacity="0.21"/>
    <circle cx="131" cy="138" r="7.6" fill="white" opacity="0.013"/>
    <circle cx="561" cy="580" r="0.3" fill="white" opacity="0.30"/>
    <circle cx="300" cy="716" r="2.1" fill="white" opacity="0.41"/>
    <circle cx="300" cy="716" r="7.1" fill="white" opacity="0.025"/>
    <circle cx="434" cy="545" r="2.3" fill="white" opacity="0.35"/>
    <circle cx="434" cy="545" r="7.3" fill="white" opacity="0.021"/>
    <circle cx="105" cy="388" r="1.7" fill="white" opacity="0.18"/>
    <circle cx="529" cy="224" r="1.8" fill="white" opacity="0.51"/>
    <circle cx="613" cy="665" r="1.5" fill="white" opacity="0.16"/>
    <circle cx="470" cy="668" r="0.7" fill="white" opacity="0.32"/>
    <circle cx="565" cy="441" r="1.0" fill="white" opacity="0.48"/>
    <circle cx="684" cy="553" r="1.7" fill="white" opacity="0.39"/>
    <circle cx="433" cy="648" r="0.5" fill="white" opacity="0.33"/>
    <circle cx="739" cy="601" r="2.5" fill="white" opacity="0.25"/>
    <circle cx="739" cy="601" r="7.5" fill="white" opacity="0.015"/>
    <circle cx="330" cy="617" r="1.3" fill="white" opacity="0.45"/>
    <circle cx="122" cy="546" r="1.4" fill="white" opacity="0.25"/>
    <circle cx="650" cy="327" r="1.5" fill="white" opacity="0.23"/>
    <circle cx="454" cy="101" r="1.8" fill="white" opacity="0.24"/>
    <circle cx="689" cy="373" r="2.7" fill="white" opacity="0.07"/>
    <circle cx="689" cy="373" r="7.7" fill="white" opacity="0.004"/>
    <circle cx="791" cy="667" r="0.5" fill="white" opacity="0.23"/>
    <circle cx="212" cy="785" r="1.0" fill="white" opacity="0.35"/>
    <circle cx="617" cy="16" r="2.1" fill="white" opacity="0.21"/>
    <circle cx="617" cy="16" r="7.1" fill="white" opacity="0.013"/>
    <circle cx="751" cy="776" r="0.8" fill="white" opacity="0.14"/>
    <circle cx="751" cy="709" r="2.0" fill="white" opacity="0.14"/>
    <circle cx="751" cy="709" r="7.0" fill="white" opacity="0.009"/>
    <circle cx="349" cy="686" r="1.5" fill="white" opacity="0.07"/>
    <circle cx="200" cy="238" r="2.4" fill="white" opacity="0.36"/>
    <circle cx="200" cy="238" r="7.4" fill="white" opacity="0.022"/>
    <circle cx="165" cy="223" r="1.1" fill="white" opacity="0.48"/>
    <circle cx="692" cy="441" r="1.8" fill="white" opacity="0.15"/>
    <circle cx="677" cy="141" r="2.0" fill="white" opacity="0.12"/>
    <circle cx="274" cy="151" r="2.1" fill="white" opacity="0.34"/>
    <circle cx="274" cy="151" r="7.1" fill="white" opacity="0.020"/>
    <circle cx="113" cy="689" r="1.7" fill="white" opacity="0.07"/>
    <circle cx="429" cy="189" r="2.2" fill="white" opacity="0.52"/>
    <circle cx="429" cy="189" r="7.2" fill="white" opacity="0.031"/>
    <circle cx="810" cy="365" r="1.0" fill="white" opacity="0.14"/>
    <circle cx="212" cy="743" r="0.7" fill="white" opacity="0.23"/>
    <circle cx="805" cy="19" r="1.9" fill="white" opacity="0.06"/>
    <circle cx="722" cy="561" r="2.1" fill="white" opacity="0.19"/>
    <circle cx="722" cy="561" r="7.1" fill="white" opacity="0.011"/>
    <circle cx="642" cy="322" r="1.9" fill="white" opacity="0.39"/>
    <circle cx="279" cy="72" r="1.0" fill="white" opacity="0.26"/>
    <circle cx="705" cy="86" r="1.6" fill="white" opacity="0.08"/>
    <circle cx="512" cy="397" r="2.3" fill="white" opacity="0.24"/>
    <circle cx="512" cy="397" r="7.3" fill="white" opacity="0.015"/>
    <circle cx="654" cy="265" r="1.0" fill="white" opacity="0.07"/>
    <circle cx="757" cy="748" r="0.8" fill="white" opacity="0.27"/>
    <circle cx="580" cy="600" r="2.7" fill="white" opacity="0.10"/>
    <circle cx="580" cy="600" r="7.7" fill="white" opacity="0.006"/>
  </g>
  <g id="grain" opacity="0.28">
    <circle cx="557" cy="359" r="0.56" fill="white" opacity="0.09"/>
    <circle cx="198" cy="110" r="0.36" fill="white" opacity="0.06"/>
    <circle cx="490" cy="543" r="0.58" fill="white" opacity="0.04"/>
    <circle cx="762" cy="641" r="0.21" fill="white" opacity="0.05"/>
    <circle cx="477" cy="654" r="0.52" fill="white" opacity="0.08"/>
    <circle cx="429" cy="283" r="0.65" fill="white" opacity="0.04"/>
    <circle cx="623" cy="87" r="0.57" fill="white" opacity="0.03"/>
    <circle cx="539" cy="315" r="0.70" fill="white" opacity="0.09"/>
    <circle cx="480" cy="442" r="0.65" fill="white" opacity="0.08"/>
    <circle cx="477" cy="321" r="0.64" fill="white" opacity="0.05"/>
    <circle cx="356" cy="9" r="0.16" fill="white" opacity="0.06"/>
    <circle cx="79" cy="171" r="0.16" fill="white" opacity="0.07"/>
    <circle cx="523" cy="117" r="0.28" fill="white" opacity="0.03"/>
    <circle cx="283" cy="375" r="0.45" fill="white" opacity="0.06"/>
    <circle cx="283" cy="22" r="0.27" fill="white" opacity="0.04"/>
    <circle cx="68" cy="781" r="0.73" fill="white" opacity="0.07"/>
    <circle cx="576" cy="28" r="0.27" fill="white" opacity="0.03"/>
    <circle cx="761" cy="633" r="0.39" fill="white" opacity="0.05"/>
    <circle cx="49" cy="413" r="0.58" fill="white" opacity="0.03"/>
    <circle cx="270" cy="419" r="0.56" fill="white" opacity="0.09"/>
    <circle cx="47" cy="99" r="0.52" fill="white" opacity="0.09"/>
    <circle cx="454" cy="302" r="0.53" fill="white" opacity="0.07"/>
    <circle cx="77" cy="624" r="0.38" fill="white" opacity="0.04"/>
    <circle cx="667" cy="118" r="0.46" fill="white" opacity="0.07"/>
    <circle cx="260" cy="454" r="0.59" fill="white" opacity="0.08"/>
    <circle cx="174" cy="165" r="0.68" fill="white" opacity="0.08"/>
    <circle cx="263" cy="553" r="0.18" fill="white" opacity="0.06"/>
    <circle cx="417" cy="767" r="0.17" fill="white" opacity="0.05"/>
    <circle cx="290" cy="182" r="0.32" fill="white" opacity="0.04"/>
    <circle cx="112" cy="694" r="0.53" fill="white" opacity="0.03"/>
    <circle cx="254" cy="338" r="0.19" fill="white" opacity="0.08"/>
    <circle cx="682" cy="349" r="0.29" fill="white" opacity="0.04"/>
    <circle cx="436" cy="108" r="0.66" fill="white" opacity="0.05"/>
    <circle cx="389" cy="770" r="0.74" fill="white" opacity="0.04"/>
    <circle cx="6" cy="233" r="0.51" fill="white" opacity="0.05"/>
    <circle cx="327" cy="153" r="0.39" fill="white" opacity="0.08"/>
    <circle cx="656" cy="560" r="0.34" fill="white" opacity="0.03"/>
    <circle cx="143" cy="316" r="0.56" fill="white" opacity="0.09"/>
    <circle cx="58" cy="762" r="0.56" fill="white" opacity="0.05"/>
    <circle cx="244" cy="660" r="0.18" fill="white" opacity="0.08"/>
    <circle cx="560" cy="231" r="0.50" fill="white" opacity="0.08"/>
    <circle cx="759" cy="548" r="0.75" fill="white" opacity="0.03"/>
    <circle cx="383" cy="352" r="0.32" fill="white" opacity="0.07"/>
    <circle cx="798" cy="564" r="0.23" fill="white" opacity="0.07"/>
    <circle cx="538" cy="425" r="0.22" fill="white" opacity="0.07"/>
    <circle cx="27" cy="476" r="0.23" fill="white" opacity="0.04"/>
    <circle cx="541" cy="513" r="0.16" fill="white" opacity="0.07"/>
    <circle cx="123" cy="257" r="0.68" fill="white" opacity="0.03"/>
    <circle cx="787" cy="654" r="0.22" fill="white" opacity="0.09"/>
    <circle cx="225" cy="254" r="0.35" fill="white" opacity="0.04"/>
    <circle cx="427" cy="471" r="0.16" fill="white" opacity="0.08"/>
    <circle cx="363" cy="175" r="0.55" fill="white" opacity="0.02"/>
    <circle cx="668" cy="225" r="0.71" fill="white" opacity="0.04"/>
    <circle cx="571" cy="765" r="0.32" fill="white" opacity="0.04"/>
    <circle cx="347" cy="396" r="0.32" fill="white" opacity="0.07"/>
    <circle cx="285" cy="395" r="0.57" fill="white" opacity="0.07"/>
    <circle cx="721" cy="591" r="0.53" fill="white" opacity="0.03"/>
    <circle cx="517" cy="41" r="0.28" fill="white" opacity="0.04"/>
    <circle cx="735" cy="762" r="0.39" fill="white" opacity="0.08"/>
    <circle cx="518" cy="54" r="0.23" fill="white" opacity="0.08"/>
    <circle cx="603" cy="417" r="0.16" fill="white" opacity="0.05"/>
    <circle cx="515" cy="91" r="0.72" fill="white" opacity="0.04"/>
    <circle cx="77" cy="304" r="0.42" fill="white" opacity="0.07"/>
    <circle cx="13" cy="402" r="0.39" fill="white" opacity="0.05"/>
    <circle cx="20" cy="516" r="0.57" fill="white" opacity="0.03"/>
    <circle cx="251" cy="568" r="0.31" fill="white" opacity="0.02"/>
    <circle cx="434" cy="284" r="0.36" fill="white" opacity="0.08"/>
    <circle cx="561" cy="202" r="0.48" fill="white" opacity="0.09"/>
    <circle cx="257" cy="539" r="0.69" fill="white" opacity="0.02"/>
    <circle cx="455" cy="490" r="0.18" fill="white" opacity="0.05"/>
  </g>
  <g id="focal">
    <circle cx="381" cy="360" r="168" fill="#ce724a" opacity="0.060" filter="url(#blur-h)"/>
    <circle cx="381" cy="360" r="84" fill="#ce724a" opacity="0.090" filter="url(#s-glow)"/>
    <circle cx="381" cy="360" r="23" fill="none" stroke="#ce724a" stroke-width="1.00" opacity="0.140"/>
    <circle cx="381" cy="360" r="45" fill="none" stroke="#ce724a" stroke-width="0.82" opacity="0.110"/>
    <circle cx="381" cy="360" r="64" fill="none" stroke="#ce724a" stroke-width="0.64" opacity="0.080"/>
    <circle cx="381" cy="360" r="18" fill="white" opacity="0.18"><animate attributeName="r" values="18;20;18" dur="5.7s" repeatCount="indefinite"/></circle>
    <circle cx="381" cy="360" r="6.0" fill="white" opacity="0.65"/>
  </g>
  <rect width="800" height="800" fill="url(#vig)"/>
</svg>