<svg viewBox="0 0 800 800" xmlns="http://www.w3.org/2000/svg">
  <defs>
    <filter id="glow"><feGaussianBlur stdDeviation="5" result="b"/><feMerge><feMergeNode in="b"/><feMergeNode in="SourceGraphic"/></feMerge></filter>
    <filter id="s-glow"><feGaussianBlur stdDeviation="12" result="b"/><feMerge><feMergeNode in="b"/><feMergeNode in="SourceGraphic"/></feMerge></filter>
    <filter id="blur-h"><feGaussianBlur stdDeviation="22"/></filter>
    <radialGradient id="vig" cx="50%" cy="50%" r="60%">
      <stop offset="0%" stop-color="black" stop-opacity="0"/>
      <stop offset="100%" stop-color="black" stop-opacity="0.30"/>
    </radialGradient>
  </defs>
  <rect width="800" height="800" fill="#131110"/>
  <defs>
    <radialGradient id="bg8369a" cx="52%" cy="52%" r="75%">
      <stop offset="0%" stop-color="#362b25"/>
      <stop offset="100%" stop-color="#131110"/>
    </radialGradient>
    <radialGradient id="bg8369b" cx="56%" cy="57%" r="50%">
      <stop offset="0%" stop-color="#221d1b" stop-opacity=".7"/>
      <stop offset="100%" stop-color="#131110" stop-opacity="0"/>
    </radialGradient>
    <filter id="noise8369">
      <feTurbulence type="fractalNoise" baseFrequency="0.0035" numOctaves="4" seed="206"/>
      <feColorMatrix type="saturate" values="0"/>
      <feComponentTransfer><feFuncA type="linear" slope="0.040"/></feComponentTransfer>
      <feBlend in="SourceGraphic" mode="screen"/>
    </filter>
  </defs>
  <rect width="800" height="800" fill="url(#bg8369a)"/>
  <rect width="800" height="800" fill="url(#bg8369b)"/>
  <rect width="800" height="800" filter="url(#noise8369)" opacity=".4"/>
  <g id="atmosphere">
  <circle cx="414" cy="415" r="320" fill="#ce774a" opacity="0.100" filter="url(#blur-h)"/>
  <circle cx="853" cy="160" r="249" fill="#4fc374" opacity="0.048" filter="url(#blur-h)"/>
  <circle cx="888" cy="333" r="338" fill="#725f46" opacity="0.062" filter="url(#blur-h)"/>
  <circle cx="-27" cy="132" r="377" fill="#3eb868" opacity="0.070" filter="url(#blur-h)"/>
  <circle cx="770" cy="617" r="265" fill="#5c3ab7" opacity="0.051" filter="url(#blur-h)"/>
  </g>
  <g id="back">
    <circle cx="631" cy="332" r="230" fill="#cd6849" opacity="0.080" filter="url(#blur-h)"/>
    <circle cx="601" cy="752" r="175" fill="#cb5842" opacity="0.092" filter="url(#blur-h)"/>
    <circle cx="321" cy="65" r="54" fill="#cd7746" opacity="0.067" filter="url(#blur-h)"/>
    <circle cx="187" cy="145" r="196" fill="#cc7144" opacity="0.092" filter="url(#blur-h)"/>
    <circle cx="736" cy="228" r="134" fill="#7e3ec1" opacity="0.058" filter="url(#blur-h)"/>
    <circle cx="280" cy="397" r="217" fill="#3fba66" opacity="0.107" filter="url(#blur-h)"/>
    <circle cx="441" cy="562" r="184" fill="#6b3cbc" opacity="0.087" filter="url(#blur-h)"/>
    <circle cx="438" cy="608" r="221" fill="#8255c8" opacity="0.110" filter="url(#blur-h)"/>
    <circle cx="588" cy="88" r="60" fill="#743dc1" opacity="0.067" filter="url(#blur-h)"/>
    <circle cx="588" cy="88" r="60" fill="none" stroke="#743dc1" stroke-width="0.5" opacity="0.120"/>
    <circle cx="222" cy="309" r="30" fill="#6755c8" opacity="0.048" filter="url(#blur-h)"/>
    <circle cx="222" cy="309" r="30" fill="none" stroke="#6755c8" stroke-width="0.6" opacity="0.087"/>
    <circle cx="330" cy="747" r="38" fill="#cc8042" opacity="0.053" filter="url(#blur-h)"/>
    <circle cx="330" cy="747" r="38" fill="none" stroke="#cc8042" stroke-width="0.8" opacity="0.095"/>
    <circle cx="235" cy="811" r="78" fill="#3fb96c" opacity="0.094" filter="url(#blur-h)"/>
    <circle cx="235" cy="811" r="78" fill="none" stroke="#3fb96c" stroke-width="1.0" opacity="0.170"/>
    <circle cx="761" cy="199" r="55" fill="#7842c2" opacity="0.079" filter="url(#blur-h)"/>
    <circle cx="761" cy="199" r="55" fill="none" stroke="#7842c2" stroke-width="0.9" opacity="0.143"/>
    <circle cx="554" cy="551" r="78" fill="#d28c5b" opacity="0.058" filter="url(#blur-h)"/>
    <circle cx="554" cy="551" r="78" fill="none" stroke="#d28c5b" stroke-width="0.5" opacity="0.104"/>
    <circle cx="373" cy="261" r="41" fill="#cc6e44" opacity="0.077" filter="url(#blur-h)"/>
    <circle cx="373" cy="261" r="41" fill="none" stroke="#cc6e44" stroke-width="0.8" opacity="0.139"/>
    <circle cx="288" cy="591" r="92" fill="#3eb65f" opacity="0.045" filter="url(#blur-h)"/>
    <circle cx="288" cy="591" r="92" fill="none" stroke="#3eb65f" stroke-width="1.0" opacity="0.081"/>
    <circle cx="828" cy="159" r="46" fill="#3baf7d" opacity="0.090" filter="url(#blur-h)"/>
    <circle cx="828" cy="159" r="46" fill="none" stroke="#3baf7d" stroke-width="0.6" opacity="0.162"/>
    <circle cx="365" cy="477" r="87" fill="#d06651" opacity="0.060" filter="url(#blur-h)"/>
    <circle cx="365" cy="477" r="87" fill="none" stroke="#d06651" stroke-width="0.4" opacity="0.107"/>
    <circle cx="68" cy="-46" r="80" fill="#4cc25d" opacity="0.070" filter="url(#blur-h)"/>
    <circle cx="68" cy="-46" r="80" fill="none" stroke="#4cc25d" stroke-width="1.1" opacity="0.126"/>
    <circle cx="321" cy="780" r="92" fill="#7459c9" opacity="0.082" filter="url(#blur-h)"/>
    <circle cx="321" cy="780" r="92" fill="none" stroke="#7459c9" stroke-width="0.5" opacity="0.148"/>
    <circle cx="166" cy="-10" r="56" fill="#8e58c9" opacity="0.073" filter="url(#blur-h)"/>
    <circle cx="166" cy="-10" r="56" fill="none" stroke="#8e58c9" stroke-width="0.9" opacity="0.132"/>
    <circle cx="695" cy="282" r="70" fill="#d06355" opacity="0.077" filter="url(#blur-h)"/>
    <circle cx="695" cy="282" r="70" fill="none" stroke="#d06355" stroke-width="0.5" opacity="0.138"/>
  </g>
  <g id="brushstrokes" opacity="0.70">
    <path d="M301.8,652.9 Q339.5,650.4 365.8,662.3 Q392.1,674.2 390.1,655.7 Q388.1,637.2 393.9,626.0 Q399.6,614.9 424.7,632.7 Q449.8,650.5 445.2,668.8 L440.5,687.1" stroke="#5d40c1" stroke-width="7" fill="none" opacity="0.079" stroke-linecap="round"/>
    <path d="M500.5,210.4 Q599.1,179.3 595.1,177.6 Q591.1,175.8 624.4,165.3 Q657.7,154.9 653.8,168.6 Q649.9,182.4 687.3,157.1 L724.6,131.9" stroke="#7945c3" stroke-width="4" fill="none" opacity="0.105" stroke-linecap="round"/>
    <path d="M653.9,474.7 Q644.6,433.6 678.8,435.3 Q712.9,436.9 713.3,398.7 Q713.8,360.5 730.2,390.4 Q746.7,420.2 766.2,382.0 Q785.7,343.8 775.9,363.0 Q766.2,382.1 767.8,354.6 Q769.4,327.1 803.5,274.2 L837.5,221.3" stroke="#43be78" stroke-width="16" fill="none" opacity="0.108" stroke-linecap="round"/>
    <path d="M383.8,631.2 Q369.7,637.2 385.1,639.8 Q400.5,642.4 376.6,653.6 Q352.7,664.8 351.0,665.4 Q349.3,666.1 325.5,685.1 Q301.8,704.2 304.3,708.0 Q306.9,711.8 317.6,711.4 Q328.3,710.9 288.7,734.2 Q249.1,757.5 231.7,752.5 Q214.4,747.6 212.1,722.9 L209.7,698.2" stroke="#8852c7" stroke-width="11" fill="none" opacity="0.107" stroke-linecap="round"/>
    <path d="M354.1,206.2 Q399.8,197.6 394.7,188.4 Q389.6,179.2 402.9,164.9 Q416.2,150.6 430.3,166.0 Q444.5,181.4 457.3,151.2 Q470.1,121.0 498.6,121.4 L527.1,121.8" stroke="#8d45c3" stroke-width="4" fill="none" opacity="0.037" stroke-linecap="round"/>
    <path d="M426.6,654.7 Q411.9,657.2 415.2,642.1 Q418.6,626.9 394.1,652.4 Q369.5,677.9 378.8,644.2 Q388.2,610.5 353.2,594.1 Q318.3,577.7 338.4,593.2 Q358.6,608.7 336.0,612.9 L313.4,617.1" stroke="#9554c8" stroke-width="10" fill="none" opacity="0.108" stroke-linecap="round"/>
    <path d="M115.2,367.2 Q156.8,334.5 172.2,330.8 Q187.6,327.1 217.0,347.2 Q246.4,367.3 280.2,337.9 Q313.9,308.5 315.2,298.5 Q316.5,288.5 362.2,298.4 L407.8,308.3" stroke="#d19458" stroke-width="11" fill="none" opacity="0.104" stroke-linecap="round"/>
    <path d="M260.3,812.2 Q207.2,737.4 197.6,756.8 Q188.1,776.1 175.6,757.6 Q163.2,739.1 147.3,723.3 Q131.4,707.5 143.5,685.3 L155.5,663.0" stroke="#7644c3" stroke-width="15" fill="none" opacity="0.106" stroke-linecap="round"/>
  </g>
  <g id="nebula" opacity="0.59">
    <circle cx="196" cy="346" r="107" fill="#3db475" opacity="0.084" filter="url(#blur-h)"/>
    <circle cx="669" cy="588" r="59" fill="#c87236" opacity="0.069" filter="url(#blur-h)"/>
    <circle cx="464" cy="691" r="111" fill="#7a44c3" opacity="0.093" filter="url(#blur-h)"/>
    <circle cx="196" cy="398" r="178" fill="#c98338" opacity="0.087" filter="url(#blur-h)"/>
    <circle cx="113" cy="246" r="186" fill="#cf8151" opacity="0.109" filter="url(#blur-h)"/>
    <circle cx="323" cy="526" r="102" fill="#40bd7f" opacity="0.049" filter="url(#blur-h)"/>
  </g>
  <g id="curves" opacity="0.46">
    <path d="M-20.6,584.4 Q569.1,759.0 431.6,363.3 Q294.2,-32.4 472.9,164.0 Q651.6,360.4 455.5,387.4 Q259.3,414.3 179.3,426.8 Q99.3,439.3 458.9,551.4 L818.4,663.5" stroke="#cd8547" stroke-width="1.5" fill="none" opacity="0.19"/>
    <path d="M-24.7,511.1 Q111.3,132.3 109.9,259.6 Q108.5,387.0 333.1,418.2 Q557.8,449.4 450.4,342.5 Q343.1,235.6 584.9,398.7 L826.8,561.7" stroke="#d18256" stroke-width="2.5" fill="none" opacity="0.14"/>
    <path d="M-27.4,609.9 Q517.1,69.0 453.2,202.2 Q389.3,335.5 545.0,577.8 Q700.6,820.1 564.4,819.1 Q428.2,818.2 304.4,777.7 Q180.6,737.2 502.6,449.8 L824.6,162.3" stroke="#3aab57" stroke-width="2.3" fill="none" opacity="0.15"/>
    <path d="M-29.2,-15.0 Q312.9,298.3 381.6,366.4 Q450.3,434.5 492.7,536.9 Q535.2,639.2 565.4,519.9 Q595.7,400.6 585.2,326.4 Q574.7,252.2 702.8,261.8 L830.9,271.4" stroke="#d18456" stroke-width="2.3" fill="none" opacity="0.09"/>
    <path d="M-45.3,549.7 Q720.5,223.5 438.9,120.3 Q157.4,17.1 492.1,196.2 L826.7,375.3" stroke="#d28a5a" stroke-width="3.0" fill="none" opacity="0.11"/>
    <path d="M-17.2,583.6 Q670.1,461.7 561.0,362.6 Q451.8,263.4 578.2,227.7 Q704.6,192.0 550.8,240.4 Q397.1,288.7 621.7,453.3 L846.3,617.9" stroke="#ce854b" stroke-width="1.0" fill="none" opacity="0.14"/>
    <path d="M-4.0,172.1 Q183.0,9.2 318.0,259.2 Q452.9,509.2 630.0,408.9 L807.1,308.5" stroke="#cc6144" stroke-width="1.4" fill="none" opacity="0.17"/>
    <path d="M-28.3,432.7 Q136.0,592.0 213.2,665.3 Q290.4,738.6 557.8,361.1 L825.2,-16.4" stroke="#d17b56" stroke-width="1.3" fill="none" opacity="0.13"/>
    <path d="M-19.4,353.8 Q530.1,190.8 363.7,444.0 Q197.2,697.2 307.0,736.1 Q416.8,775.1 417.0,662.7 Q417.1,550.3 385.9,607.0 Q354.7,663.8 582.1,407.6 L809.5,151.3" stroke="#cd8647" stroke-width="2.5" fill="none" opacity="0.12"/>
    <path d="M-30.8,693.6 Q263.1,190.1 431.9,498.9 Q600.6,807.8 459.0,568.9 Q317.4,330.1 565.8,146.9 L814.1,-36.3" stroke="#3cb073" stroke-width="1.6" fill="none" opacity="0.06"/>
  </g>
  <g id="constellation" opacity="0.37">
    <line x1="713" y1="388" x2="618" y2="384" stroke="#7247c4" stroke-width="0.6" opacity="0.057"/>
    <line x1="713" y1="388" x2="701" y2="253" stroke="#7247c4" stroke-width="0.6" opacity="0.029"/>
    <line x1="713" y1="388" x2="632" y2="440" stroke="#7247c4" stroke-width="0.6" opacity="0.055"/>
    <line x1="713" y1="388" x2="687" y2="307" stroke="#7247c4" stroke-width="0.6" opacity="0.063"/>
    <line x1="713" y1="388" x2="708" y2="467" stroke="#7247c4" stroke-width="0.6" opacity="0.067"/>
    <line x1="682" y1="379" x2="618" y2="384" stroke="#7247c4" stroke-width="0.6" opacity="0.086"/>
    <line x1="682" y1="379" x2="701" y2="253" stroke="#7247c4" stroke-width="0.6" opacity="0.030"/>
    <line x1="682" y1="379" x2="687" y2="307" stroke="#7247c4" stroke-width="0.6" opacity="0.075"/>
    <line x1="682" y1="379" x2="708" y2="467" stroke="#7247c4" stroke-width="0.6" opacity="0.057"/>
    <line x1="618" y1="384" x2="701" y2="253" stroke="#7247c4" stroke-width="0.6" opacity="0.031"/>
    <line x1="618" y1="384" x2="632" y2="440" stroke="#7247c4" stroke-width="0.6" opacity="0.094"/>
    <line x1="368" y1="189" x2="402" y2="133" stroke="#7247c4" stroke-width="0.6" opacity="0.082"/>
    <line x1="604" y1="450" x2="546" y2="512" stroke="#7247c4" stroke-width="0.6" opacity="0.071"/>
    <line x1="604" y1="450" x2="511" y2="536" stroke="#7247c4" stroke-width="0.6" opacity="0.034"/>
    <line x1="701" y1="253" x2="740" y2="253" stroke="#7247c4" stroke-width="0.6" opacity="0.094"/>
    <line x1="701" y1="253" x2="704" y2="188" stroke="#7247c4" stroke-width="0.6" opacity="0.074"/>
    <line x1="701" y1="253" x2="556" y2="195" stroke="#7247c4" stroke-width="0.6" opacity="0.030"/>
    <line x1="632" y1="440" x2="566" y2="484" stroke="#7247c4" stroke-width="0.6" opacity="0.075"/>
    <line x1="632" y1="440" x2="511" y2="536" stroke="#7247c4" stroke-width="0.6" opacity="0.034"/>
    <line x1="632" y1="440" x2="755" y2="527" stroke="#7247c4" stroke-width="0.6" opacity="0.030"/>
    <line x1="687" y1="307" x2="740" y2="253" stroke="#7247c4" stroke-width="0.6" opacity="0.067"/>
    <line x1="687" y1="307" x2="720" y2="421" stroke="#7247c4" stroke-width="0.6" opacity="0.035"/>
    <line x1="704" y1="188" x2="556" y2="195" stroke="#7247c4" stroke-width="0.6" opacity="0.029"/>
    <line x1="704" y1="188" x2="659" y2="128" stroke="#7247c4" stroke-width="0.6" opacity="0.065"/>
    <line x1="518" y1="84" x2="538" y2="205" stroke="#7247c4" stroke-width="0.6" opacity="0.031"/>
    <line x1="556" y1="195" x2="524" y2="245" stroke="#7247c4" stroke-width="0.6" opacity="0.089"/>
    <line x1="556" y1="195" x2="659" y2="128" stroke="#7247c4" stroke-width="0.6" opacity="0.030"/>
    <line x1="402" y1="133" x2="538" y2="205" stroke="#7247c4" stroke-width="0.6" opacity="0.031"/>
    <line x1="469" y1="331" x2="472" y2="402" stroke="#7247c4" stroke-width="0.6" opacity="0.094"/>
    <line x1="655" y1="621" x2="546" y2="512" stroke="#7247c4" stroke-width="0.6" opacity="0.032"/>
    <line x1="571" y1="494" x2="511" y2="536" stroke="#7247c4" stroke-width="0.6" opacity="0.083"/>
    <line x1="571" y1="494" x2="708" y2="467" stroke="#7247c4" stroke-width="0.6" opacity="0.032"/>
    <line x1="566" y1="484" x2="546" y2="512" stroke="#7247c4" stroke-width="0.6" opacity="0.121"/>
    <line x1="566" y1="484" x2="472" y2="402" stroke="#7247c4" stroke-width="0.6" opacity="0.036"/>
    <line x1="566" y1="484" x2="449" y2="552" stroke="#7247c4" stroke-width="0.6" opacity="0.035"/>
    <line x1="511" y1="536" x2="472" y2="402" stroke="#7247c4" stroke-width="0.6" opacity="0.037"/>
    <line x1="511" y1="536" x2="370" y2="571" stroke="#7247c4" stroke-width="0.6" opacity="0.035"/>
    <line x1="446" y1="387" x2="444" y2="395" stroke="#7247c4" stroke-width="0.6" opacity="0.164"/>
    <line x1="755" y1="527" x2="829" y2="448" stroke="#7247c4" stroke-width="0.6" opacity="0.038"/>
    <line x1="708" y1="467" x2="829" y2="448" stroke="#7247c4" stroke-width="0.6" opacity="0.029"/>
    <line x1="444" y1="395" x2="449" y2="552" stroke="#7247c4" stroke-width="0.6" opacity="0.038"/>
    <line x1="442" y1="647" x2="475" y2="760" stroke="#7247c4" stroke-width="0.6" opacity="0.035"/>
    <line x1="228" y1="429" x2="205" y2="464" stroke="#7247c4" stroke-width="0.6" opacity="0.110"/>
    <line x1="228" y1="429" x2="301" y2="557" stroke="#7247c4" stroke-width="0.6" opacity="0.034"/>
    <line x1="205" y1="464" x2="269" y2="598" stroke="#7247c4" stroke-width="0.6" opacity="0.033"/>
    <line x1="301" y1="557" x2="429" y2="621" stroke="#7247c4" stroke-width="0.6" opacity="0.034"/>
    <line x1="301" y1="557" x2="449" y2="552" stroke="#7247c4" stroke-width="0.6" opacity="0.035"/>
    <line x1="410" y1="580" x2="429" y2="621" stroke="#7247c4" stroke-width="0.6" opacity="0.108"/>
    <line x1="410" y1="580" x2="370" y2="571" stroke="#7247c4" stroke-width="0.6" opacity="0.114"/>
    <line x1="583" y1="648" x2="429" y2="621" stroke="#7247c4" stroke-width="0.6" opacity="0.032"/>
    <circle cx="713" cy="388" r="1.9" fill="white" opacity="0.26"/>
    <circle cx="682" cy="379" r="1.8" fill="white" opacity="0.23"/>
    <circle cx="885" cy="333" r="2.7" fill="white" opacity="0.41"/>
    <circle cx="885" cy="333" r="8.7" fill="#d18058" opacity="0.049"/>
    <circle cx="618" cy="384" r="2.9" fill="white" opacity="0.46"/>
    <circle cx="618" cy="384" r="8.9" fill="#cb6b40" opacity="0.055"/>
    <circle cx="368" cy="189" r="1.9" fill="white" opacity="0.26"/>
    <circle cx="604" cy="450" r="3.1" fill="white" opacity="0.51"/>
    <circle cx="604" cy="450" r="9.1" fill="#ce774a" opacity="0.061"/>
    <circle cx="701" cy="253" r="3.3" fill="white" opacity="0.54"/>
    <circle cx="701" cy="253" r="9.3" fill="#d17d57" opacity="0.065"/>
    <circle cx="632" cy="440" r="2.0" fill="white" opacity="0.29"/>
    <circle cx="346" cy="408" r="2.0" fill="white" opacity="0.26"/>
    <circle cx="687" cy="307" r="1.9" fill="white" opacity="0.26"/>
    <circle cx="740" cy="253" r="1.8" fill="white" opacity="0.23"/>
    <circle cx="704" cy="188" r="2.6" fill="white" opacity="0.39"/>
    <circle cx="704" cy="188" r="8.6" fill="#cb8142" opacity="0.046"/>
    <circle cx="518" cy="84" r="2.4" fill="white" opacity="0.35"/>
    <circle cx="518" cy="84" r="8.4" fill="#ce774a" opacity="0.042"/>
    <circle cx="446" cy="81" r="1.9" fill="white" opacity="0.26"/>
    <circle cx="556" cy="195" r="2.8" fill="white" opacity="0.44"/>
    <circle cx="556" cy="195" r="8.8" fill="#d06f52" opacity="0.053"/>
    <circle cx="402" cy="133" r="1.6" fill="white" opacity="0.20"/>
    <circle cx="524" cy="245" r="2.8" fill="white" opacity="0.44"/>
    <circle cx="524" cy="245" r="8.8" fill="#ce774a" opacity="0.052"/>
    <circle cx="602" cy="140" r="1.2" fill="white" opacity="0.13"/>
    <circle cx="581" cy="26" r="2.6" fill="white" opacity="0.39"/>
    <circle cx="581" cy="26" r="8.6" fill="#cb7640" opacity="0.047"/>
    <circle cx="469" cy="331" r="3.7" fill="white" opacity="0.63"/>
    <circle cx="469" cy="331" r="9.7" fill="#d07354" opacity="0.075"/>
    <circle cx="498" cy="-31" r="2.4" fill="white" opacity="0.35"/>
    <circle cx="498" cy="-31" r="8.4" fill="#ce774a" opacity="0.042"/>
    <circle cx="714" cy="-75" r="2.8" fill="white" opacity="0.41"/>
    <circle cx="714" cy="-75" r="8.8" fill="#ca5b3b" opacity="0.049"/>
    <circle cx="538" cy="205" r="2.4" fill="white" opacity="0.37"/>
    <circle cx="659" cy="128" r="2.8" fill="white" opacity="0.44"/>
    <circle cx="659" cy="128" r="8.8" fill="#ce774a" opacity="0.053"/>
    <circle cx="720" cy="421" r="1.3" fill="white" opacity="0.14"/>
    <circle cx="655" cy="621" r="2.8" fill="white" opacity="0.44"/>
    <circle cx="655" cy="621" r="8.8" fill="#ce6e4b" opacity="0.053"/>
    <circle cx="571" cy="494" r="1.8" fill="white" opacity="0.23"/>
    <circle cx="566" cy="484" r="2.9" fill="white" opacity="0.46"/>
    <circle cx="566" cy="484" r="8.9" fill="#d18455" opacity="0.056"/>
    <circle cx="546" cy="512" r="1.8" fill="white" opacity="0.23"/>
    <circle cx="618" cy="371" r="2.2" fill="white" opacity="0.31"/>
    <circle cx="511" cy="536" r="1.8" fill="white" opacity="0.23"/>
    <circle cx="446" cy="387" r="2.0" fill="white" opacity="0.28"/>
    <circle cx="755" cy="527" r="2.6" fill="white" opacity="0.40"/>
    <circle cx="755" cy="527" r="8.6" fill="#ce774a" opacity="0.048"/>
    <circle cx="472" cy="402" r="2.1" fill="white" opacity="0.28"/>
    <circle cx="708" cy="467" r="2.2" fill="white" opacity="0.31"/>
    <circle cx="829" cy="448" r="2.5" fill="white" opacity="0.37"/>
    <circle cx="829" cy="448" r="8.5" fill="#d28759" opacity="0.045"/>
    <circle cx="444" cy="395" r="2.4" fill="white" opacity="0.36"/>
    <circle cx="442" cy="647" r="3.2" fill="white" opacity="0.52"/>
    <circle cx="442" cy="647" r="9.2" fill="#ce774a" opacity="0.062"/>
    <circle cx="228" cy="429" r="2.6" fill="white" opacity="0.39"/>
    <circle cx="228" cy="429" r="8.6" fill="#d08354" opacity="0.047"/>
    <circle cx="205" cy="464" r="1.7" fill="white" opacity="0.21"/>
    <circle cx="301" cy="557" r="1.8" fill="white" opacity="0.24"/>
    <circle cx="410" cy="580" r="3.9" fill="white" opacity="0.68"/>
    <circle cx="410" cy="580" r="9.9" fill="#ce844b" opacity="0.081"/>
    <circle cx="583" cy="648" r="3.1" fill="white" opacity="0.51"/>
    <circle cx="583" cy="648" r="9.1" fill="#cf6b4f" opacity="0.061"/>
    <circle cx="429" cy="621" r="3.0" fill="white" opacity="0.47"/>
    <circle cx="429" cy="621" r="9.0" fill="#cd7348" opacity="0.057"/>
    <circle cx="370" cy="571" r="2.6" fill="white" opacity="0.39"/>
    <circle cx="269" cy="598" r="2.1" fill="white" opacity="0.31"/>
    <circle cx="449" cy="552" r="1.5" fill="white" opacity="0.18"/>
    <circle cx="475" cy="760" r="3.4" fill="white" opacity="0.55"/>
    <circle cx="475" cy="760" r="9.4" fill="#ce774a" opacity="0.066"/>
  </g>
  <g id="bokeh-fg" opacity="0.35">
    <circle cx="-10" cy="79" r="27" fill="#8f4ec6" opacity="0.038" filter="url(#blur-h)"/>
    <circle cx="-10" cy="79" r="27" fill="none" stroke="#8f4ec6" stroke-width="1.1" opacity="0.068"/>
    <circle cx="258" cy="667" r="31" fill="#d27e59" opacity="0.060" filter="url(#blur-h)"/>
    <circle cx="258" cy="667" r="31" fill="none" stroke="#d27e59" stroke-width="0.5" opacity="0.108"/>
    <circle cx="757" cy="479" r="43" fill="#d19557" opacity="0.053" filter="url(#blur-h)"/>
    <circle cx="757" cy="479" r="43" fill="none" stroke="#d19557" stroke-width="0.6" opacity="0.095"/>
    <circle cx="-27" cy="766" r="85" fill="#4ec291" opacity="0.047" filter="url(#blur-h)"/>
    <circle cx="-27" cy="766" r="85" fill="none" stroke="#4ec291" stroke-width="1.0" opacity="0.085"/>
    <circle cx="746" cy="732" r="59" fill="#d3825c" opacity="0.043" filter="url(#blur-h)"/>
    <circle cx="746" cy="732" r="59" fill="none" stroke="#d3825c" stroke-width="0.6" opacity="0.078"/>
    <circle cx="298" cy="376" r="42" fill="#ca5a3d" opacity="0.035" filter="url(#blur-h)"/>
    <circle cx="298" cy="376" r="42" fill="none" stroke="#ca5a3d" stroke-width="0.7" opacity="0.063"/>
    <circle cx="-30" cy="293" r="54" fill="#d19558" opacity="0.059" filter="url(#blur-h)"/>
    <circle cx="-30" cy="293" r="54" fill="none" stroke="#d19558" stroke-width="1.1" opacity="0.107"/>
    <circle cx="649" cy="839" r="34" fill="#3aab7b" opacity="0.081" filter="url(#blur-h)"/>
    <circle cx="649" cy="839" r="34" fill="none" stroke="#3aab7b" stroke-width="0.5" opacity="0.146"/>
    <circle cx="846" cy="797" r="51" fill="#7f58c9" opacity="0.062" filter="url(#blur-h)"/>
    <circle cx="846" cy="797" r="51" fill="none" stroke="#7f58c9" stroke-width="0.8" opacity="0.111"/>
    <circle cx="726" cy="87" r="77" fill="#3eb654" opacity="0.062" filter="url(#blur-h)"/>
    <circle cx="726" cy="87" r="77" fill="none" stroke="#3eb654" stroke-width="0.5" opacity="0.112"/>
  </g>
  <g id="volumetric" opacity="0.62">
    <ellipse cx="425" cy="462" rx="121" ry="79" fill="#ca833c" opacity="0.024" transform="rotate(6 425 462)" filter="url(#blur-h)"/>
    <ellipse cx="440" cy="351" rx="172" ry="82" fill="#cb8242" opacity="0.043" transform="rotate(-3 440 351)" filter="url(#blur-h)"/>
    <ellipse cx="454" cy="447" rx="128" ry="79" fill="#cd6149" opacity="0.030" transform="rotate(-21 454 447)" filter="url(#blur-h)"/>
    <ellipse cx="388" cy="454" rx="117" ry="68" fill="#d07251" opacity="0.022" transform="rotate(8 388 454)" filter="url(#blur-h)"/>
    <ellipse cx="510" cy="412" rx="240" ry="176" fill="#d18857" opacity="0.025" transform="rotate(30 510 412)" filter="url(#blur-h)"/>
    <ellipse cx="417" cy="444" rx="72" ry="52" fill="#cb8640" opacity="0.024" transform="rotate(-23 417 444)" filter="url(#blur-h)"/>
  </g>
  <g id="stars">
    <circle cx="309" cy="283" r="0.5" fill="white" opacity="0.09"/>
    <circle cx="175" cy="39" r="1.0" fill="white" opacity="0.30"/>
    <circle cx="158" cy="47" r="1.2" fill="white" opacity="0.14"/>
    <circle cx="24" cy="91" r="2.3" fill="white" opacity="0.05"/>
    <circle cx="24" cy="91" r="7.3" fill="white" opacity="0.003"/>
    <circle cx="352" cy="29" r="1.8" fill="white" opacity="0.22"/>
    <circle cx="577" cy="644" r="1.5" fill="white" opacity="0.45"/>
    <circle cx="168" cy="121" r="1.2" fill="white" opacity="0.32"/>
    <circle cx="647" cy="224" r="1.4" fill="white" opacity="0.32"/>
    <circle cx="220" cy="675" r="0.8" fill="white" opacity="0.31"/>
    <circle cx="484" cy="312" r="2.9" fill="white" opacity="0.44"/>
    <circle cx="484" cy="312" r="7.9" fill="white" opacity="0.026"/>
    <circle cx="284" cy="746" r="1.2" fill="white" opacity="0.18"/>
    <circle cx="153" cy="579" r="1.6" fill="white" opacity="0.14"/>
    <circle cx="537" cy="378" r="1.7" fill="white" opacity="0.29"/>
    <circle cx="325" cy="10" r="2.2" fill="white" opacity="0.34"/>
    <circle cx="325" cy="10" r="7.2" fill="white" opacity="0.020"/>
    <circle cx="810" cy="611" r="1.5" fill="white" opacity="0.34"/>
    <circle cx="673" cy="149" r="1.5" fill="white" opacity="0.38"/>
    <circle cx="507" cy="462" r="0.8" fill="white" opacity="0.44"/>
    <circle cx="528" cy="476" r="1.3" fill="white" opacity="0.52"/>
    <circle cx="420" cy="587" r="0.9" fill="white" opacity="0.44"/>
    <circle cx="270" cy="581" r="2.7" fill="white" opacity="0.46"/>
    <circle cx="270" cy="581" r="7.7" fill="white" opacity="0.028"/>
    <circle cx="809" cy="697" r="1.8" fill="white" opacity="0.34"/>
    <circle cx="46" cy="415" r="0.6" fill="white" opacity="0.33"/>
    <circle cx="235" cy="608" r="1.0" fill="white" opacity="0.18"/>
    <circle cx="116" cy="10" r="1.0" fill="white" opacity="0.18"/>
    <circle cx="430" cy="167" r="2.6" fill="white" opacity="0.17"/>
    <circle cx="430" cy="167" r="7.6" fill="white" opacity="0.010"/>
    <circle cx="619" cy="170" r="2.7" fill="white" opacity="0.24"/>
    <circle cx="619" cy="170" r="7.7" fill="white" opacity="0.014"/>
    <circle cx="288" cy="313" r="1.6" fill="white" opacity="0.20"/>
    <circle cx="228" cy="582" r="1.1" fill="white" opacity="0.41"/>
    <circle cx="516" cy="351" r="2.3" fill="white" opacity="0.18"/>
    <circle cx="516" cy="351" r="7.3" fill="white" opacity="0.011"/>
    <circle cx="441" cy="253" r="2.6" fill="white" opacity="0.40"/>
    <circle cx="441" cy="253" r="7.6" fill="white" opacity="0.024"/>
    <circle cx="548" cy="285" r="1.9" fill="white" opacity="0.26"/>
    <circle cx="670" cy="708" r="2.4" fill="white" opacity="0.16"/>
    <circle cx="670" cy="708" r="7.4" fill="white" opacity="0.010"/>
    <circle cx="10" cy="519" r="1.9" fill="white" opacity="0.37"/>
    <circle cx="339" cy="479" r="1.1" fill="white" opacity="0.13"/>
    <circle cx="478" cy="601" r="1.7" fill="white" opacity="0.10"/>
    <circle cx="170" cy="534" r="0.9" fill="white" opacity="0.09"/>
    <circle cx="766" cy="425" r="0.5" fill="white" opacity="0.25"/>
    <circle cx="147" cy="4" r="2.0" fill="white" opacity="0.15"/>
    <circle cx="124" cy="552" r="0.8" fill="white" opacity="0.33"/>
    <circle cx="317" cy="496" r="2.2" fill="white" opacity="0.18"/>
    <circle cx="317" cy="496" r="7.2" fill="white" opacity="0.011"/>
    <circle cx="465" cy="102" r="2.4" fill="white" opacity="0.45"/>
    <circle cx="465" cy="102" r="7.4" fill="white" opacity="0.027"/>
    <circle cx="76" cy="774" r="1.7" fill="white" opacity="0.32"/>
    <circle cx="269" cy="496" r="3.1" fill="white" opacity="0.14"/>
    <circle cx="269" cy="496" r="8.1" fill="white" opacity="0.008"/>
    <circle cx="413" cy="611" r="3.1" fill="white" opacity="0.24"/>
    <circle cx="413" cy="611" r="8.1" fill="white" opacity="0.014"/>
    <circle cx="283" cy="266" r="2.5" fill="white" opacity="0.20"/>
    <circle cx="283" cy="266" r="7.5" fill="white" opacity="0.012"/>
    <circle cx="10" cy="202" r="0.9" fill="white" opacity="0.12"/>
    <circle cx="680" cy="165" r="1.8" fill="white" opacity="0.11"/>
  </g>
  <g id="grain" opacity="0.28">
    <circle cx="107" cy="456" r="0.74" fill="white" opacity="0.05"/>
    <circle cx="690" cy="74" r="0.63" fill="white" opacity="0.07"/>
    <circle cx="427" cy="467" r="0.20" fill="white" opacity="0.08"/>
    <circle cx="368" cy="740" r="0.68" fill="white" opacity="0.03"/>
    <circle cx="22" cy="177" r="0.59" fill="white" opacity="0.04"/>
    <circle cx="187" cy="608" r="0.41" fill="white" opacity="0.07"/>
    <circle cx="458" cy="596" r="0.72" fill="white" opacity="0.04"/>
    <circle cx="639" cy="502" r="0.18" fill="white" opacity="0.03"/>
    <circle cx="106" cy="110" r="0.30" fill="white" opacity="0.09"/>
    <circle cx="190" cy="681" r="0.42" fill="white" opacity="0.09"/>
    <circle cx="299" cy="177" r="0.40" fill="white" opacity="0.02"/>
    <circle cx="159" cy="734" r="0.26" fill="white" opacity="0.03"/>
    <circle cx="777" cy="58" r="0.62" fill="white" opacity="0.07"/>
    <circle cx="575" cy="329" r="0.46" fill="white" opacity="0.03"/>
    <circle cx="74" cy="269" r="0.55" fill="white" opacity="0.07"/>
    <circle cx="470" cy="399" r="0.50" fill="white" opacity="0.02"/>
    <circle cx="445" cy="331" r="0.19" fill="white" opacity="0.02"/>
    <circle cx="543" cy="768" r="0.70" fill="white" opacity="0.05"/>
    <circle cx="513" cy="278" r="0.73" fill="white" opacity="0.07"/>
    <circle cx="341" cy="289" r="0.40" fill="white" opacity="0.06"/>
    <circle cx="590" cy="431" r="0.24" fill="white" opacity="0.07"/>
    <circle cx="632" cy="763" r="0.47" fill="white" opacity="0.03"/>
    <circle cx="57" cy="64" r="0.23" fill="white" opacity="0.08"/>
    <circle cx="715" cy="760" r="0.35" fill="white" opacity="0.06"/>
    <circle cx="48" cy="226" r="0.23" fill="white" opacity="0.03"/>
    <circle cx="215" cy="527" r="0.51" fill="white" opacity="0.08"/>
    <circle cx="368" cy="172" r="0.60" fill="white" opacity="0.02"/>
    <circle cx="85" cy="768" r="0.20" fill="white" opacity="0.07"/>
    <circle cx="101" cy="178" r="0.38" fill="white" opacity="0.04"/>
    <circle cx="227" cy="663" r="0.27" fill="white" opacity="0.07"/>
    <circle cx="433" cy="100" r="0.53" fill="white" opacity="0.06"/>
    <circle cx="673" cy="145" r="0.54" fill="white" opacity="0.05"/>
    <circle cx="424" cy="383" r="0.75" fill="white" opacity="0.06"/>
    <circle cx="425" cy="200" r="0.25" fill="white" opacity="0.05"/>
    <circle cx="403" cy="274" r="0.55" fill="white" opacity="0.03"/>
    <circle cx="759" cy="535" r="0.35" fill="white" opacity="0.06"/>
    <circle cx="116" cy="778" r="0.22" fill="white" opacity="0.07"/>
    <circle cx="390" cy="23" r="0.74" fill="white" opacity="0.06"/>
    <circle cx="689" cy="572" r="0.51" fill="white" opacity="0.03"/>
    <circle cx="17" cy="788" r="0.51" fill="white" opacity="0.02"/>
    <circle cx="614" cy="314" r="0.15" fill="white" opacity="0.04"/>
    <circle cx="652" cy="706" r="0.60" fill="white" opacity="0.07"/>
    <circle cx="745" cy="12" r="0.56" fill="white" opacity="0.03"/>
    <circle cx="420" cy="386" r="0.73" fill="white" opacity="0.06"/>
    <circle cx="523" cy="749" r="0.25" fill="white" opacity="0.02"/>
    <circle cx="73" cy="94" r="0.62" fill="white" opacity="0.02"/>
    <circle cx="260" cy="615" r="0.62" fill="white" opacity="0.03"/>
    <circle cx="538" cy="118" r="0.49" fill="white" opacity="0.04"/>
    <circle cx="67" cy="575" r="0.53" fill="white" opacity="0.06"/>
    <circle cx="426" cy="157" r="0.35" fill="white" opacity="0.04"/>
    <circle cx="161" cy="683" r="0.28" fill="white" opacity="0.03"/>
    <circle cx="222" cy="568" r="0.70" fill="white" opacity="0.02"/>
    <circle cx="719" cy="774" r="0.66" fill="white" opacity="0.05"/>
    <circle cx="375" cy="388" r="0.27" fill="white" opacity="0.06"/>
    <circle cx="195" cy="378" r="0.25" fill="white" opacity="0.02"/>
    <circle cx="80" cy="747" r="0.49" fill="white" opacity="0.09"/>
    <circle cx="320" cy="272" r="0.19" fill="white" opacity="0.06"/>
    <circle cx="396" cy="115" r="0.34" fill="white" opacity="0.08"/>
    <circle cx="574" cy="430" r="0.56" fill="white" opacity="0.04"/>
    <circle cx="6" cy="218" r="0.45" fill="white" opacity="0.03"/>
    <circle cx="761" cy="610" r="0.29" fill="white" opacity="0.08"/>
    <circle cx="184" cy="777" r="0.50" fill="white" opacity="0.04"/>
    <circle cx="455" cy="794" r="0.30" fill="white" opacity="0.07"/>
    <circle cx="749" cy="345" r="0.34" fill="white" opacity="0.05"/>
    <circle cx="513" cy="101" r="0.32" fill="white" opacity="0.03"/>
    <circle cx="447" cy="419" r="0.68" fill="white" opacity="0.07"/>
    <circle cx="603" cy="132" r="0.41" fill="white" opacity="0.08"/>
    <circle cx="381" cy="747" r="0.17" fill="white" opacity="0.05"/>
    <circle cx="71" cy="214" r="0.60" fill="white" opacity="0.08"/>
    <circle cx="578" cy="42" r="0.21" fill="white" opacity="0.08"/>
  </g>
  <g id="focal">
    <circle cx="414" cy="415" r="168" fill="#ce774a" opacity="0.060" filter="url(#blur-h)"/>
    <circle cx="414" cy="415" r="84" fill="#ce774a" opacity="0.090" filter="url(#s-glow)"/>
    <circle cx="414" cy="415" r="25" fill="none" stroke="#ce774a" stroke-width="1.00" opacity="0.140"/>
    <circle cx="414" cy="415" r="45" fill="none" stroke="#ce774a" stroke-width="0.82" opacity="0.110"/>
    <circle cx="414" cy="415" r="59" fill="none" stroke="#ce774a" stroke-width="0.64" opacity="0.080"/>
    <circle cx="414" cy="415" r="18" fill="white" opacity="0.18"><animate attributeName="r" values="18;20;18" dur="5.3s" repeatCount="indefinite"/></circle>
    <circle cx="414" cy="415" r="6.0" fill="white" opacity="0.65"/>
  </g>
  <rect width="800" height="800" fill="url(#vig)"/>
</svg>