<svg viewBox="0 0 800 800" xmlns="http://www.w3.org/2000/svg">
  <defs>
    <filter id="glow"><feGaussianBlur stdDeviation="5" result="b"/><feMerge><feMergeNode in="b"/><feMergeNode in="SourceGraphic"/></feMerge></filter>
    <filter id="s-glow"><feGaussianBlur stdDeviation="12" result="b"/><feMerge><feMergeNode in="b"/><feMergeNode in="SourceGraphic"/></feMerge></filter>
    <filter id="blur-h"><feGaussianBlur stdDeviation="22"/></filter>
    <radialGradient id="vig" cx="50%" cy="50%" r="60%">
      <stop offset="0%" stop-color="black" stop-opacity="0"/>
      <stop offset="100%" stop-color="black" stop-opacity="0.30"/>
    </radialGradient>
  </defs>
  <rect width="800" height="800" fill="#131110"/>
  <defs>
    <radialGradient id="bg2100a" cx="54%" cy="49%" r="75%">
      <stop offset="0%" stop-color="#362b25"/>
      <stop offset="100%" stop-color="#131110"/>
    </radialGradient>
    <radialGradient id="bg2100b" cx="41%" cy="55%" r="50%">
      <stop offset="0%" stop-color="#221d1b" stop-opacity=".7"/>
      <stop offset="100%" stop-color="#131110" stop-opacity="0"/>
    </radialGradient>
    <filter id="noise2100">
      <feTurbulence type="fractalNoise" baseFrequency="0.0025" numOctaves="4" seed="764"/>
      <feColorMatrix type="saturate" values="0"/>
      <feComponentTransfer><feFuncA type="linear" slope="0.040"/></feComponentTransfer>
      <feBlend in="SourceGraphic" mode="screen"/>
    </filter>
  </defs>
  <rect width="800" height="800" fill="url(#bg2100a)"/>
  <rect width="800" height="800" fill="url(#bg2100b)"/>
  <rect width="800" height="800" filter="url(#noise2100)" opacity=".4"/>
  <g id="atmosphere">
  <circle cx="429" cy="392" r="320" fill="#ce7d4a" opacity="0.100" filter="url(#blur-h)"/>
  <circle cx="839" cy="578" r="294" fill="#6e5844" opacity="0.058" filter="url(#blur-h)"/>
  <circle cx="866" cy="383" r="283" fill="#765949" opacity="0.049" filter="url(#blur-h)"/>
  <circle cx="509" cy="-8" r="259" fill="#4bc173" opacity="0.076" filter="url(#blur-h)"/>
  <circle cx="-20" cy="273" r="295" fill="#7041c2" opacity="0.062" filter="url(#blur-h)"/>
  <circle cx="794" cy="672" r="324" fill="#694d41" opacity="0.038" filter="url(#blur-h)"/>
  </g>
  <g id="back">
    <circle cx="288" cy="281" r="142" fill="#cb8d41" opacity="0.093" filter="url(#blur-h)"/>
    <circle cx="115" cy="211" r="209" fill="#6744c3" opacity="0.092" filter="url(#blur-h)"/>
    <circle cx="452" cy="353" r="203" fill="#d29b59" opacity="0.096" filter="url(#blur-h)"/>
    <circle cx="313" cy="50" r="226" fill="#9053c7" opacity="0.130" filter="url(#blur-h)"/>
    <circle cx="122" cy="504" r="137" fill="#c97037" opacity="0.072" filter="url(#blur-h)"/>
    <circle cx="452" cy="166" r="229" fill="#3db35b" opacity="0.047" filter="url(#blur-h)"/>
    <circle cx="425" cy="59" r="169" fill="#3cb078" opacity="0.058" filter="url(#blur-h)"/>
    <circle cx="292" cy="470" r="76" fill="#ce794a" opacity="0.053" filter="url(#blur-h)"/>
    <circle cx="691" cy="366" r="92" fill="#3aaa70" opacity="0.038" filter="url(#blur-h)"/>
    <circle cx="691" cy="366" r="92" fill="none" stroke="#3aaa70" stroke-width="0.6" opacity="0.068"/>
    <circle cx="579" cy="123" r="85" fill="#7954c8" opacity="0.049" filter="url(#blur-h)"/>
    <circle cx="579" cy="123" r="85" fill="none" stroke="#7954c8" stroke-width="0.7" opacity="0.089"/>
    <circle cx="37" cy="578" r="43" fill="#6c47c4" opacity="0.049" filter="url(#blur-h)"/>
    <circle cx="37" cy="578" r="43" fill="none" stroke="#6c47c4" stroke-width="0.9" opacity="0.088"/>
    <circle cx="69" cy="106" r="33" fill="#3fb873" opacity="0.082" filter="url(#blur-h)"/>
    <circle cx="69" cy="106" r="33" fill="none" stroke="#3fb873" stroke-width="0.9" opacity="0.147"/>
    <circle cx="452" cy="827" r="28" fill="#3db458" opacity="0.097" filter="url(#blur-h)"/>
    <circle cx="452" cy="827" r="28" fill="none" stroke="#3db458" stroke-width="0.5" opacity="0.174"/>
    <circle cx="847" cy="726" r="33" fill="#4cc186" opacity="0.073" filter="url(#blur-h)"/>
    <circle cx="847" cy="726" r="33" fill="none" stroke="#4cc186" stroke-width="1.1" opacity="0.131"/>
    <circle cx="322" cy="265" r="84" fill="#3aab68" opacity="0.075" filter="url(#blur-h)"/>
    <circle cx="322" cy="265" r="84" fill="none" stroke="#3aab68" stroke-width="1.1" opacity="0.136"/>
    <circle cx="703" cy="840" r="48" fill="#7050c7" opacity="0.085" filter="url(#blur-h)"/>
    <circle cx="703" cy="840" r="48" fill="none" stroke="#7050c7" stroke-width="0.8" opacity="0.153"/>
    <circle cx="517" cy="432" r="89" fill="#7a42c2" opacity="0.047" filter="url(#blur-h)"/>
    <circle cx="517" cy="432" r="89" fill="none" stroke="#7a42c2" stroke-width="0.5" opacity="0.085"/>
    <circle cx="756" cy="-17" r="90" fill="#50c368" opacity="0.082" filter="url(#blur-h)"/>
    <circle cx="756" cy="-17" r="90" fill="none" stroke="#50c368" stroke-width="1.0" opacity="0.147"/>
    <circle cx="75" cy="843" r="26" fill="#44bf70" opacity="0.041" filter="url(#blur-h)"/>
    <circle cx="75" cy="843" r="26" fill="none" stroke="#44bf70" stroke-width="0.6" opacity="0.074"/>
    <circle cx="318" cy="194" r="69" fill="#8a52c7" opacity="0.034" filter="url(#blur-h)"/>
    <circle cx="318" cy="194" r="69" fill="none" stroke="#8a52c7" stroke-width="0.4" opacity="0.062"/>
    <circle cx="-50" cy="527" r="25" fill="#3fba8a" opacity="0.040" filter="url(#blur-h)"/>
    <circle cx="-50" cy="527" r="25" fill="none" stroke="#3fba8a" stroke-width="0.8" opacity="0.072"/>
  </g>
  <g id="nebula" opacity="0.59">
    <circle cx="391" cy="349" r="144" fill="#c98139" opacity="0.107" filter="url(#blur-h)"/>
    <circle cx="156" cy="230" r="165" fill="#cf7f4f" opacity="0.071" filter="url(#blur-h)"/>
    <circle cx="258" cy="637" r="121" fill="#4ec27b" opacity="0.128" filter="url(#blur-h)"/>
    <circle cx="654" cy="38" r="166" fill="#d18157" opacity="0.100" filter="url(#blur-h)"/>
    <circle cx="339" cy="153" r="145" fill="#cc6745" opacity="0.048" filter="url(#blur-h)"/>
    <circle cx="325" cy="283" r="76" fill="#583dc1" opacity="0.085" filter="url(#blur-h)"/>
  </g>
  <g id="curves" opacity="0.46">
    <path d="M-13.4,846.8 Q145.0,779.7 154.7,384.5 Q164.4,-10.8 179.6,39.8 Q194.8,90.4 198.5,407.7 Q202.3,724.9 328.7,518.2 Q455.1,311.4 636.7,194.3 L818.4,77.1" stroke="#cc7f44" stroke-width="0.8" fill="none" opacity="0.15"/>
    <path d="M-38.7,90.9 Q567.1,579.6 465.8,370.8 Q364.5,162.1 597.2,139.6 L830.0,117.2" stroke="#8750c7" stroke-width="0.8" fill="none" opacity="0.12"/>
    <path d="M-44.2,724.0 Q480.1,559.1 490.7,305.9 Q501.3,52.8 388.7,235.0 Q276.1,417.2 552.6,434.5 L829.1,451.9" stroke="#5f42c2" stroke-width="0.7" fill="none" opacity="0.06"/>
    <path d="M-14.5,174.1 Q236.7,117.0 368.4,115.9 Q500.0,114.8 459.8,288.7 Q419.5,462.5 382.9,439.9 Q346.2,417.3 378.8,393.9 Q411.5,370.5 612.3,590.4 L813.1,810.3" stroke="#4ec266" stroke-width="0.6" fill="none" opacity="0.18"/>
    <path d="M-15.2,237.7 Q304.4,37.9 218.9,24.6 Q133.5,11.3 230.4,317.4 Q327.3,623.6 573.6,632.2 L819.9,640.9" stroke="#45bf83" stroke-width="0.7" fill="none" opacity="0.05"/>
    <path d="M-12.4,358.6 Q159.9,207.2 234.3,417.8 Q308.7,628.4 281.5,478.2 Q254.4,328.0 425.8,250.7 Q597.2,173.4 702.9,385.2 L808.6,597.0" stroke="#4bc167" stroke-width="1.8" fill="none" opacity="0.06"/>
    <path d="M-34.5,785.1 Q347.2,362.7 213.6,292.5 Q80.1,222.3 191.8,124.3 Q303.6,26.2 563.1,421.7 L822.6,817.2" stroke="#d3795d" stroke-width="0.5" fill="none" opacity="0.07"/>
    <path d="M-31.9,625.9 Q217.6,-10.2 464.2,49.3 Q710.7,108.7 631.8,248.8 Q552.8,388.8 355.8,366.7 Q158.8,344.5 350.7,209.7 Q542.7,74.9 680.4,229.4 L818.1,383.8" stroke="#cf7c4e" stroke-width="1.9" fill="none" opacity="0.18"/>
    <path d="M-26.5,299.2 Q691.8,134.7 594.9,468.2 Q498.1,801.7 411.7,398.8 Q325.3,-4.1 231.4,11.8 Q137.4,27.7 477.6,34.1 L817.8,40.4" stroke="#cd6446" stroke-width="0.7" fill="none" opacity="0.16"/>
    <path d="M-15.8,703.5 Q143.2,125.2 344.7,412.4 Q546.3,699.6 380.8,607.3 Q215.2,515.0 518.7,600.9 L822.2,686.9" stroke="#c96338" stroke-width="1.4" fill="none" opacity="0.19"/>
  </g>
  <g id="constellation" opacity="0.37">
    <line x1="420" y1="166" x2="329" y2="227" stroke="#7747c4" stroke-width="0.6" opacity="0.046"/>
    <line x1="420" y1="166" x2="360" y2="286" stroke="#7747c4" stroke-width="0.6" opacity="0.034"/>
    <line x1="420" y1="166" x2="329" y2="245" stroke="#7747c4" stroke-width="0.6" opacity="0.036"/>
    <line x1="420" y1="166" x2="317" y2="257" stroke="#7747c4" stroke-width="0.6" opacity="0.033"/>
    <line x1="420" y1="166" x2="419" y2="252" stroke="#7747c4" stroke-width="0.6" opacity="0.070"/>
    <line x1="160" y1="542" x2="188" y2="417" stroke="#7747c4" stroke-width="0.6" opacity="0.030"/>
    <line x1="160" y1="542" x2="230" y2="512" stroke="#7747c4" stroke-width="0.6" opacity="0.072"/>
    <line x1="310" y1="391" x2="221" y2="374" stroke="#7747c4" stroke-width="0.6" opacity="0.067"/>
    <line x1="310" y1="391" x2="230" y2="512" stroke="#7747c4" stroke-width="0.6" opacity="0.034"/>
    <line x1="329" y1="227" x2="224" y2="297" stroke="#7747c4" stroke-width="0.6" opacity="0.033"/>
    <line x1="329" y1="227" x2="243" y2="206" stroke="#7747c4" stroke-width="0.6" opacity="0.065"/>
    <line x1="329" y1="227" x2="234" y2="188" stroke="#7747c4" stroke-width="0.6" opacity="0.051"/>
    <line x1="329" y1="227" x2="169" y2="229" stroke="#7747c4" stroke-width="0.6" opacity="0.031"/>
    <line x1="224" y1="297" x2="248" y2="203" stroke="#7747c4" stroke-width="0.6" opacity="0.056"/>
    <line x1="224" y1="297" x2="152" y2="166" stroke="#7747c4" stroke-width="0.6" opacity="0.030"/>
    <line x1="224" y1="297" x2="234" y2="188" stroke="#7747c4" stroke-width="0.6" opacity="0.044"/>
    <line x1="224" y1="297" x2="200" y2="403" stroke="#7747c4" stroke-width="0.6" opacity="0.046"/>
    <line x1="360" y1="286" x2="339" y2="137" stroke="#7747c4" stroke-width="0.6" opacity="0.033"/>
    <line x1="360" y1="286" x2="234" y2="188" stroke="#7747c4" stroke-width="0.6" opacity="0.033"/>
    <line x1="221" y1="374" x2="372" y2="342" stroke="#7747c4" stroke-width="0.6" opacity="0.035"/>
    <line x1="221" y1="374" x2="182" y2="221" stroke="#7747c4" stroke-width="0.6" opacity="0.031"/>
    <line x1="221" y1="374" x2="175" y2="288" stroke="#7747c4" stroke-width="0.6" opacity="0.055"/>
    <line x1="372" y1="342" x2="317" y2="257" stroke="#7747c4" stroke-width="0.6" opacity="0.059"/>
    <line x1="329" y1="245" x2="175" y2="288" stroke="#7747c4" stroke-width="0.6" opacity="0.032"/>
    <line x1="317" y1="257" x2="339" y2="137" stroke="#7747c4" stroke-width="0.6" opacity="0.034"/>
    <line x1="317" y1="257" x2="243" y2="206" stroke="#7747c4" stroke-width="0.6" opacity="0.063"/>
    <line x1="317" y1="257" x2="182" y2="221" stroke="#7747c4" stroke-width="0.6" opacity="0.032"/>
    <line x1="317" y1="257" x2="419" y2="252" stroke="#7747c4" stroke-width="0.6" opacity="0.056"/>
    <line x1="317" y1="257" x2="234" y2="188" stroke="#7747c4" stroke-width="0.6" opacity="0.046"/>
    <line x1="297" y1="259" x2="248" y2="203" stroke="#7747c4" stroke-width="0.6" opacity="0.077"/>
    <line x1="297" y1="259" x2="147" y2="255" stroke="#7747c4" stroke-width="0.6" opacity="0.031"/>
    <line x1="297" y1="259" x2="175" y2="288" stroke="#7747c4" stroke-width="0.6" opacity="0.032"/>
    <line x1="339" y1="137" x2="419" y2="252" stroke="#7747c4" stroke-width="0.6" opacity="0.033"/>
    <line x1="243" y1="206" x2="147" y2="255" stroke="#7747c4" stroke-width="0.6" opacity="0.044"/>
    <line x1="182" y1="221" x2="248" y2="203" stroke="#7747c4" stroke-width="0.6" opacity="0.077"/>
    <line x1="182" y1="221" x2="147" y2="255" stroke="#7747c4" stroke-width="0.6" opacity="0.092"/>
    <line x1="141" y1="389" x2="230" y2="512" stroke="#7747c4" stroke-width="0.6" opacity="0.031"/>
    <line x1="141" y1="389" x2="200" y2="403" stroke="#7747c4" stroke-width="0.6" opacity="0.086"/>
    <line x1="248" y1="203" x2="152" y2="166" stroke="#7747c4" stroke-width="0.6" opacity="0.047"/>
    <line x1="248" y1="203" x2="234" y2="188" stroke="#7747c4" stroke-width="0.6" opacity="0.119"/>
    <line x1="188" y1="417" x2="230" y2="512" stroke="#7747c4" stroke-width="0.6" opacity="0.050"/>
    <line x1="188" y1="417" x2="200" y2="403" stroke="#7747c4" stroke-width="0.6" opacity="0.127"/>
    <line x1="147" y1="255" x2="234" y2="188" stroke="#7747c4" stroke-width="0.6" opacity="0.041"/>
    <line x1="147" y1="255" x2="175" y2="288" stroke="#7747c4" stroke-width="0.6" opacity="0.097"/>
    <line x1="147" y1="255" x2="-7" y2="249" stroke="#7747c4" stroke-width="0.6" opacity="0.026"/>
    <line x1="147" y1="255" x2="13" y2="242" stroke="#7747c4" stroke-width="0.6" opacity="0.027"/>
    <line x1="152" y1="166" x2="61" y2="248" stroke="#7747c4" stroke-width="0.6" opacity="0.029"/>
    <line x1="152" y1="166" x2="175" y2="288" stroke="#7747c4" stroke-width="0.6" opacity="0.029"/>
    <line x1="80" y1="177" x2="175" y2="288" stroke="#7747c4" stroke-width="0.6" opacity="0.028"/>
    <line x1="80" y1="177" x2="169" y2="229" stroke="#7747c4" stroke-width="0.6" opacity="0.043"/>
    <line x1="80" y1="177" x2="13" y2="242" stroke="#7747c4" stroke-width="0.6" opacity="0.047"/>
    <line x1="61" y1="248" x2="175" y2="288" stroke="#7747c4" stroke-width="0.6" opacity="0.031"/>
    <line x1="61" y1="248" x2="31" y2="335" stroke="#7747c4" stroke-width="0.6" opacity="0.050"/>
    <line x1="31" y1="335" x2="13" y2="242" stroke="#7747c4" stroke-width="0.6" opacity="0.046"/>
    <line x1="-7" y1="249" x2="13" y2="242" stroke="#7747c4" stroke-width="0.6" opacity="0.094"/>
    <line x1="653" y1="271" x2="704" y2="398" stroke="#7747c4" stroke-width="0.6" opacity="0.031"/>
    <line x1="653" y1="271" x2="641" y2="338" stroke="#7747c4" stroke-width="0.6" opacity="0.082"/>
    <line x1="653" y1="271" x2="734" y2="330" stroke="#7747c4" stroke-width="0.6" opacity="0.051"/>
    <line x1="808" y1="319" x2="734" y2="330" stroke="#7747c4" stroke-width="0.6" opacity="0.067"/>
    <line x1="704" y1="398" x2="700" y2="255" stroke="#7747c4" stroke-width="0.6" opacity="0.030"/>
    <line x1="704" y1="398" x2="709" y2="367" stroke="#7747c4" stroke-width="0.6" opacity="0.109"/>
    <line x1="704" y1="398" x2="630" y2="412" stroke="#7747c4" stroke-width="0.6" opacity="0.076"/>
    <line x1="772" y1="421" x2="846" y2="444" stroke="#7747c4" stroke-width="0.6" opacity="0.061"/>
    <line x1="772" y1="421" x2="734" y2="330" stroke="#7747c4" stroke-width="0.6" opacity="0.049"/>
    <line x1="700" y1="255" x2="641" y2="338" stroke="#7747c4" stroke-width="0.6" opacity="0.051"/>
    <line x1="700" y1="255" x2="709" y2="367" stroke="#7747c4" stroke-width="0.6" opacity="0.040"/>
    <line x1="600" y1="273" x2="709" y2="367" stroke="#7747c4" stroke-width="0.6" opacity="0.032"/>
    <circle cx="420" cy="166" r="1.8" fill="white" opacity="0.23"/>
    <circle cx="160" cy="542" r="3.4" fill="white" opacity="0.56"/>
    <circle cx="160" cy="542" r="9.4" fill="#ce7d4a" opacity="0.067"/>
    <circle cx="310" cy="391" r="3.5" fill="white" opacity="0.58"/>
    <circle cx="310" cy="391" r="9.5" fill="#d18357" opacity="0.070"/>
    <circle cx="329" cy="227" r="1.9" fill="white" opacity="0.25"/>
    <circle cx="224" cy="297" r="3.9" fill="white" opacity="0.67"/>
    <circle cx="224" cy="297" r="9.9" fill="#d07653" opacity="0.080"/>
    <circle cx="360" cy="286" r="2.2" fill="white" opacity="0.32"/>
    <circle cx="431" cy="519" r="4.1" fill="white" opacity="0.71"/>
    <circle cx="431" cy="519" r="10.1" fill="#ce7d4a" opacity="0.086"/>
    <circle cx="221" cy="374" r="1.9" fill="white" opacity="0.26"/>
    <circle cx="372" cy="342" r="2.4" fill="white" opacity="0.37"/>
    <circle cx="329" cy="245" r="2.4" fill="white" opacity="0.37"/>
    <circle cx="317" cy="257" r="3.7" fill="white" opacity="0.63"/>
    <circle cx="317" cy="257" r="9.7" fill="#cb8542" opacity="0.075"/>
    <circle cx="297" cy="259" r="3.2" fill="white" opacity="0.53"/>
    <circle cx="297" cy="259" r="9.2" fill="#cf7750" opacity="0.063"/>
    <circle cx="339" cy="137" r="3.1" fill="white" opacity="0.50"/>
    <circle cx="339" cy="137" r="9.1" fill="#d27e58" opacity="0.060"/>
    <circle cx="243" cy="206" r="1.3" fill="white" opacity="0.14"/>
    <circle cx="182" cy="221" r="1.8" fill="white" opacity="0.23"/>
    <circle cx="141" cy="389" r="2.7" fill="white" opacity="0.41"/>
    <circle cx="141" cy="389" r="8.7" fill="#ce7d4a" opacity="0.050"/>
    <circle cx="177" cy="-9" r="1.6" fill="white" opacity="0.19"/>
    <circle cx="248" cy="203" r="2.2" fill="white" opacity="0.33"/>
    <circle cx="188" cy="417" r="2.9" fill="white" opacity="0.46"/>
    <circle cx="188" cy="417" r="8.9" fill="#ce7d4a" opacity="0.056"/>
    <circle cx="147" cy="255" r="2.7" fill="white" opacity="0.42"/>
    <circle cx="147" cy="255" r="8.7" fill="#ce7d4a" opacity="0.051"/>
    <circle cx="152" cy="166" r="2.6" fill="white" opacity="0.39"/>
    <circle cx="152" cy="166" r="8.6" fill="#ce7d4a" opacity="0.047"/>
    <circle cx="419" cy="252" r="3.4" fill="white" opacity="0.56"/>
    <circle cx="419" cy="252" r="9.4" fill="#ce7d4a" opacity="0.068"/>
    <circle cx="80" cy="177" r="1.3" fill="white" opacity="0.14"/>
    <circle cx="230" cy="512" r="1.6" fill="white" opacity="0.19"/>
    <circle cx="61" cy="248" r="2.7" fill="white" opacity="0.42"/>
    <circle cx="61" cy="248" r="8.7" fill="#ce7d4a" opacity="0.050"/>
    <circle cx="234" cy="188" r="2.0" fill="white" opacity="0.28"/>
    <circle cx="175" cy="288" r="3.6" fill="white" opacity="0.60"/>
    <circle cx="175" cy="288" r="9.6" fill="#cd8249" opacity="0.072"/>
    <circle cx="169" cy="229" r="2.9" fill="white" opacity="0.46"/>
    <circle cx="169" cy="229" r="8.9" fill="#ce7d4a" opacity="0.055"/>
    <circle cx="200" cy="403" r="2.3" fill="white" opacity="0.35"/>
    <circle cx="31" cy="335" r="2.1" fill="white" opacity="0.30"/>
    <circle cx="31" cy="335" r="8.1" fill="#d07752" opacity="0.036"/>
    <circle cx="-7" cy="249" r="2.5" fill="white" opacity="0.37"/>
    <circle cx="-7" cy="249" r="8.5" fill="#d08f53" opacity="0.045"/>
    <circle cx="140" cy="419" r="2.7" fill="white" opacity="0.42"/>
    <circle cx="140" cy="419" r="8.7" fill="#cc7f42" opacity="0.050"/>
    <circle cx="13" cy="242" r="2.2" fill="white" opacity="0.32"/>
    <circle cx="13" cy="242" r="8.2" fill="#ce7d4a" opacity="0.038"/>
    <circle cx="653" cy="271" r="3.3" fill="white" opacity="0.53"/>
    <circle cx="653" cy="271" r="9.3" fill="#d17855" opacity="0.064"/>
    <circle cx="808" cy="319" r="2.9" fill="white" opacity="0.45"/>
    <circle cx="808" cy="319" r="8.9" fill="#ce7d4a" opacity="0.054"/>
    <circle cx="704" cy="398" r="3.1" fill="white" opacity="0.51"/>
    <circle cx="704" cy="398" r="9.1" fill="#ca6e3e" opacity="0.061"/>
    <circle cx="772" cy="421" r="2.4" fill="white" opacity="0.36"/>
    <circle cx="772" cy="421" r="8.4" fill="#cf8850" opacity="0.044"/>
    <circle cx="700" cy="255" r="2.5" fill="white" opacity="0.37"/>
    <circle cx="700" cy="255" r="8.5" fill="#ce7d4a" opacity="0.045"/>
    <circle cx="600" cy="273" r="2.9" fill="white" opacity="0.45"/>
    <circle cx="600" cy="273" r="8.9" fill="#ce7d4a" opacity="0.055"/>
    <circle cx="846" cy="444" r="2.0" fill="white" opacity="0.28"/>
    <circle cx="641" cy="338" r="3.7" fill="white" opacity="0.62"/>
    <circle cx="641" cy="338" r="9.7" fill="#cb6d41" opacity="0.074"/>
    <circle cx="709" cy="367" r="3.4" fill="white" opacity="0.56"/>
    <circle cx="709" cy="367" r="9.4" fill="#ce7f4a" opacity="0.068"/>
    <circle cx="630" cy="412" r="2.6" fill="white" opacity="0.41"/>
    <circle cx="630" cy="412" r="8.6" fill="#cd7949" opacity="0.049"/>
    <circle cx="734" cy="330" r="1.7" fill="white" opacity="0.22"/>
  </g>
  <g id="bokeh-fg" opacity="0.35">
    <circle cx="640" cy="22" r="65" fill="#4cc192" opacity="0.057" filter="url(#blur-h)"/>
    <circle cx="640" cy="22" r="65" fill="none" stroke="#4cc192" stroke-width="1.1" opacity="0.103"/>
    <circle cx="54" cy="740" r="71" fill="#ca8f3e" opacity="0.081" filter="url(#blur-h)"/>
    <circle cx="54" cy="740" r="71" fill="none" stroke="#ca8f3e" stroke-width="0.5" opacity="0.147"/>
    <circle cx="-9" cy="521" r="55" fill="#49c074" opacity="0.062" filter="url(#blur-h)"/>
    <circle cx="-9" cy="521" r="55" fill="none" stroke="#49c074" stroke-width="0.6" opacity="0.111"/>
    <circle cx="364" cy="481" r="26" fill="#543ec1" opacity="0.079" filter="url(#blur-h)"/>
    <circle cx="364" cy="481" r="26" fill="none" stroke="#543ec1" stroke-width="0.4" opacity="0.142"/>
    <circle cx="-38" cy="335" r="68" fill="#8441c2" opacity="0.063" filter="url(#blur-h)"/>
    <circle cx="-38" cy="335" r="68" fill="none" stroke="#8441c2" stroke-width="1.0" opacity="0.113"/>
    <circle cx="827" cy="508" r="85" fill="#40bb85" opacity="0.098" filter="url(#blur-h)"/>
    <circle cx="827" cy="508" r="85" fill="none" stroke="#40bb85" stroke-width="0.4" opacity="0.177"/>
    <circle cx="91" cy="99" r="91" fill="#6e53c7" opacity="0.060" filter="url(#blur-h)"/>
    <circle cx="91" cy="99" r="91" fill="none" stroke="#6e53c7" stroke-width="0.9" opacity="0.109"/>
    <circle cx="126" cy="218" r="77" fill="#7e3ec1" opacity="0.048" filter="url(#blur-h)"/>
    <circle cx="126" cy="218" r="77" fill="none" stroke="#7e3ec1" stroke-width="0.4" opacity="0.087"/>
    <circle cx="782" cy="650" r="62" fill="#7d3bb9" opacity="0.046" filter="url(#blur-h)"/>
    <circle cx="782" cy="650" r="62" fill="none" stroke="#7d3bb9" stroke-width="1.0" opacity="0.082"/>
    <circle cx="230" cy="770" r="54" fill="#7c4ac5" opacity="0.091" filter="url(#blur-h)"/>
    <circle cx="230" cy="770" r="54" fill="none" stroke="#7c4ac5" stroke-width="1.1" opacity="0.165"/>
  </g>
  <g id="volumetric" opacity="0.62">
    <ellipse cx="464" cy="403" rx="91" ry="57" fill="#cb6e41" opacity="0.033" transform="rotate(-5 464 403)" filter="url(#blur-h)"/>
    <ellipse cx="382" cy="455" rx="196" ry="142" fill="#c96e37" opacity="0.045" transform="rotate(-10 382 455)" filter="url(#blur-h)"/>
    <ellipse cx="436" cy="491" rx="248" ry="101" fill="#cd8548" opacity="0.019" transform="rotate(-20 436 491)" filter="url(#blur-h)"/>
  </g>
  <g id="stars">
    <circle cx="102" cy="231" r="0.8" fill="white" opacity="0.29"/>
    <circle cx="482" cy="107" r="1.2" fill="white" opacity="0.43"/>
    <circle cx="390" cy="111" r="2.7" fill="white" opacity="0.33"/>
    <circle cx="390" cy="111" r="7.7" fill="white" opacity="0.020"/>
    <circle cx="51" cy="21" r="0.9" fill="white" opacity="0.26"/>
    <circle cx="666" cy="667" r="2.3" fill="white" opacity="0.14"/>
    <circle cx="666" cy="667" r="7.3" fill="white" opacity="0.008"/>
    <circle cx="601" cy="752" r="0.7" fill="white" opacity="0.23"/>
    <circle cx="632" cy="329" r="3.1" fill="white" opacity="0.18"/>
    <circle cx="632" cy="329" r="8.1" fill="white" opacity="0.011"/>
    <circle cx="0" cy="577" r="0.6" fill="white" opacity="0.07"/>
    <circle cx="733" cy="46" r="0.7" fill="white" opacity="0.10"/>
    <circle cx="633" cy="658" r="2.3" fill="white" opacity="0.35"/>
    <circle cx="633" cy="658" r="7.3" fill="white" opacity="0.021"/>
    <circle cx="214" cy="629" r="1.1" fill="white" opacity="0.19"/>
    <circle cx="603" cy="191" r="1.1" fill="white" opacity="0.46"/>
    <circle cx="769" cy="68" r="2.0" fill="white" opacity="0.30"/>
    <circle cx="285" cy="639" r="2.0" fill="white" opacity="0.07"/>
    <circle cx="285" cy="639" r="7.0" fill="white" opacity="0.004"/>
    <circle cx="518" cy="0" r="1.3" fill="white" opacity="0.37"/>
    <circle cx="583" cy="791" r="2.0" fill="white" opacity="0.20"/>
    <circle cx="118" cy="788" r="2.3" fill="white" opacity="0.14"/>
    <circle cx="118" cy="788" r="7.3" fill="white" opacity="0.008"/>
    <circle cx="365" cy="360" r="2.8" fill="white" opacity="0.50"/>
    <circle cx="365" cy="360" r="7.8" fill="white" opacity="0.030"/>
    <circle cx="489" cy="91" r="2.6" fill="white" opacity="0.12"/>
    <circle cx="489" cy="91" r="7.6" fill="white" opacity="0.007"/>
    <circle cx="755" cy="431" r="1.1" fill="white" opacity="0.23"/>
    <circle cx="537" cy="362" r="0.9" fill="white" opacity="0.55"/>
    <circle cx="48" cy="682" r="1.9" fill="white" opacity="0.29"/>
    <circle cx="796" cy="627" r="1.7" fill="white" opacity="0.32"/>
    <circle cx="60" cy="-9" r="1.6" fill="white" opacity="0.23"/>
    <circle cx="663" cy="161" r="0.9" fill="white" opacity="0.26"/>
    <circle cx="408" cy="33" r="1.1" fill="white" opacity="0.18"/>
    <circle cx="569" cy="84" r="0.9" fill="white" opacity="0.36"/>
    <circle cx="100" cy="152" r="1.7" fill="white" opacity="0.07"/>
    <circle cx="547" cy="69" r="0.6" fill="white" opacity="0.30"/>
    <circle cx="287" cy="792" r="0.9" fill="white" opacity="0.33"/>
    <circle cx="740" cy="41" r="0.3" fill="white" opacity="0.28"/>
    <circle cx="604" cy="121" r="0.4" fill="white" opacity="0.29"/>
    <circle cx="683" cy="41" r="1.6" fill="white" opacity="0.16"/>
    <circle cx="798" cy="786" r="2.2" fill="white" opacity="0.27"/>
    <circle cx="798" cy="786" r="7.2" fill="white" opacity="0.016"/>
    <circle cx="177" cy="32" r="1.1" fill="white" opacity="0.30"/>
    <circle cx="269" cy="0" r="2.2" fill="white" opacity="0.10"/>
    <circle cx="269" cy="0" r="7.2" fill="white" opacity="0.006"/>
    <circle cx="305" cy="615" r="2.2" fill="white" opacity="0.31"/>
    <circle cx="305" cy="615" r="7.2" fill="white" opacity="0.019"/>
    <circle cx="77" cy="223" r="2.2" fill="white" opacity="0.32"/>
    <circle cx="77" cy="223" r="7.2" fill="white" opacity="0.019"/>
    <circle cx="277" cy="598" r="1.4" fill="white" opacity="0.09"/>
    <circle cx="708" cy="723" r="0.8" fill="white" opacity="0.28"/>
    <circle cx="4" cy="129" r="0.5" fill="white" opacity="0.27"/>
    <circle cx="210" cy="478" r="1.3" fill="white" opacity="0.14"/>
    <circle cx="625" cy="134" r="2.3" fill="white" opacity="0.25"/>
    <circle cx="625" cy="134" r="7.3" fill="white" opacity="0.015"/>
    <circle cx="5" cy="68" r="2.1" fill="white" opacity="0.13"/>
    <circle cx="5" cy="68" r="7.1" fill="white" opacity="0.008"/>
    <circle cx="519" cy="484" r="2.3" fill="white" opacity="0.15"/>
    <circle cx="519" cy="484" r="7.3" fill="white" opacity="0.009"/>
    <circle cx="311" cy="708" r="1.7" fill="white" opacity="0.18"/>
    <circle cx="725" cy="797" r="1.8" fill="white" opacity="0.29"/>
  </g>
  <g id="grain" opacity="0.28">
    <circle cx="428" cy="476" r="0.40" fill="white" opacity="0.03"/>
    <circle cx="379" cy="552" r="0.20" fill="white" opacity="0.06"/>
    <circle cx="459" cy="641" r="0.54" fill="white" opacity="0.03"/>
    <circle cx="383" cy="652" r="0.30" fill="white" opacity="0.06"/>
    <circle cx="210" cy="670" r="0.28" fill="white" opacity="0.07"/>
    <circle cx="384" cy="524" r="0.39" fill="white" opacity="0.03"/>
    <circle cx="530" cy="160" r="0.35" fill="white" opacity="0.08"/>
    <circle cx="68" cy="428" r="0.64" fill="white" opacity="0.03"/>
    <circle cx="472" cy="699" r="0.22" fill="white" opacity="0.03"/>
    <circle cx="391" cy="81" r="0.58" fill="white" opacity="0.09"/>
    <circle cx="641" cy="78" r="0.53" fill="white" opacity="0.03"/>
    <circle cx="64" cy="559" r="0.45" fill="white" opacity="0.04"/>
    <circle cx="271" cy="508" r="0.31" fill="white" opacity="0.03"/>
    <circle cx="13" cy="58" r="0.72" fill="white" opacity="0.04"/>
    <circle cx="153" cy="70" r="0.47" fill="white" opacity="0.07"/>
    <circle cx="542" cy="129" r="0.33" fill="white" opacity="0.08"/>
    <circle cx="18" cy="215" r="0.68" fill="white" opacity="0.07"/>
    <circle cx="318" cy="248" r="0.15" fill="white" opacity="0.07"/>
    <circle cx="91" cy="56" r="0.25" fill="white" opacity="0.05"/>
    <circle cx="287" cy="790" r="0.20" fill="white" opacity="0.05"/>
    <circle cx="737" cy="130" r="0.40" fill="white" opacity="0.04"/>
    <circle cx="596" cy="615" r="0.27" fill="white" opacity="0.05"/>
    <circle cx="327" cy="748" r="0.69" fill="white" opacity="0.06"/>
    <circle cx="758" cy="195" r="0.33" fill="white" opacity="0.08"/>
    <circle cx="568" cy="452" r="0.59" fill="white" opacity="0.07"/>
    <circle cx="483" cy="272" r="0.40" fill="white" opacity="0.05"/>
    <circle cx="399" cy="776" r="0.60" fill="white" opacity="0.07"/>
    <circle cx="514" cy="409" r="0.33" fill="white" opacity="0.05"/>
    <circle cx="677" cy="576" r="0.25" fill="white" opacity="0.05"/>
    <circle cx="38" cy="709" r="0.70" fill="white" opacity="0.06"/>
    <circle cx="626" cy="402" r="0.46" fill="white" opacity="0.06"/>
    <circle cx="326" cy="695" r="0.67" fill="white" opacity="0.06"/>
    <circle cx="579" cy="275" r="0.23" fill="white" opacity="0.06"/>
    <circle cx="324" cy="332" r="0.36" fill="white" opacity="0.09"/>
    <circle cx="2" cy="570" r="0.68" fill="white" opacity="0.05"/>
    <circle cx="351" cy="411" r="0.54" fill="white" opacity="0.06"/>
    <circle cx="390" cy="508" r="0.55" fill="white" opacity="0.03"/>
    <circle cx="694" cy="172" r="0.43" fill="white" opacity="0.06"/>
    <circle cx="381" cy="793" r="0.29" fill="white" opacity="0.04"/>
    <circle cx="286" cy="414" r="0.32" fill="white" opacity="0.02"/>
    <circle cx="753" cy="701" r="0.64" fill="white" opacity="0.02"/>
    <circle cx="797" cy="503" r="0.74" fill="white" opacity="0.05"/>
    <circle cx="57" cy="57" r="0.41" fill="white" opacity="0.05"/>
    <circle cx="330" cy="579" r="0.58" fill="white" opacity="0.06"/>
    <circle cx="249" cy="238" r="0.66" fill="white" opacity="0.05"/>
    <circle cx="589" cy="505" r="0.65" fill="white" opacity="0.08"/>
    <circle cx="388" cy="774" r="0.57" fill="white" opacity="0.03"/>
    <circle cx="621" cy="72" r="0.57" fill="white" opacity="0.05"/>
    <circle cx="400" cy="590" r="0.30" fill="white" opacity="0.04"/>
    <circle cx="424" cy="316" r="0.74" fill="white" opacity="0.08"/>
    <circle cx="564" cy="751" r="0.24" fill="white" opacity="0.07"/>
    <circle cx="125" cy="431" r="0.47" fill="white" opacity="0.08"/>
    <circle cx="110" cy="324" r="0.58" fill="white" opacity="0.08"/>
    <circle cx="773" cy="441" r="0.57" fill="white" opacity="0.06"/>
    <circle cx="701" cy="493" r="0.59" fill="white" opacity="0.09"/>
    <circle cx="321" cy="654" r="0.40" fill="white" opacity="0.03"/>
    <circle cx="495" cy="156" r="0.62" fill="white" opacity="0.07"/>
    <circle cx="451" cy="375" r="0.28" fill="white" opacity="0.07"/>
    <circle cx="266" cy="638" r="0.48" fill="white" opacity="0.09"/>
    <circle cx="234" cy="270" r="0.61" fill="white" opacity="0.06"/>
    <circle cx="672" cy="373" r="0.54" fill="white" opacity="0.04"/>
    <circle cx="451" cy="560" r="0.62" fill="white" opacity="0.05"/>
    <circle cx="332" cy="483" r="0.56" fill="white" opacity="0.03"/>
    <circle cx="84" cy="37" r="0.69" fill="white" opacity="0.08"/>
    <circle cx="156" cy="371" r="0.60" fill="white" opacity="0.04"/>
    <circle cx="474" cy="534" r="0.38" fill="white" opacity="0.04"/>
    <circle cx="686" cy="345" r="0.72" fill="white" opacity="0.03"/>
    <circle cx="540" cy="167" r="0.57" fill="white" opacity="0.05"/>
    <circle cx="80" cy="692" r="0.52" fill="white" opacity="0.06"/>
    <circle cx="247" cy="500" r="0.53" fill="white" opacity="0.05"/>
  </g>
  <g id="focal">
    <circle cx="429" cy="392" r="168" fill="#ce7d4a" opacity="0.060" filter="url(#blur-h)"/>
    <circle cx="429" cy="392" r="84" fill="#ce7d4a" opacity="0.090" filter="url(#s-glow)"/>
    <circle cx="429" cy="392" r="33" fill="#ecc99b" opacity=".08" filter="url(#s-glow)"/>
    <circle cx="429" cy="392" r="18" fill="white" opacity="0.18"><animate attributeName="r" values="18;21;18" dur="4.2s" repeatCount="indefinite"/></circle>
    <circle cx="429" cy="392" r="6.8" fill="white" opacity="0.65"/>
    <ellipse cx="452" cy="388" rx="10" ry="4" fill="#ce7d4a" opacity="0.06" transform="rotate(20 429 392)"/>
  </g>
  <rect width="800" height="800" fill="url(#vig)"/>
</svg>