<svg xmlns="http://www.w3.org/2000/svg" viewBox="0 0 800 800" width="800" height="800">
  <defs>
    <radialGradient id="bg-grad" cx="50%" cy="50%" r="75%">
      <stop offset="0%" stop-color="#1a1a2e" stop-opacity="1"/>
      <stop offset="50%" stop-color="#16213e" stop-opacity="1"/>
      <stop offset="100%" stop-color="#0f0f1a" stop-opacity="1"/>
    </radialGradient>
    <filter id="glow"><feGaussianBlur stdDeviation="3" result="b"/>
      <feMerge><feMergeNode in="b"/><feMergeNode in="SourceGraphic"/></feMerge>
    </filter>
    <filter id="soft-glow"><feGaussianBlur stdDeviation="6" result="b"/>
      <feMerge><feMergeNode in="b"/><feMergeNode in="SourceGraphic"/></feMerge>
    </filter>
  </defs>
  <rect width="800" height="800" fill="url(#bg-grad)"/>
  <g id="grid" opacity="0.15">
    <polygon points="400.0,348.0 424.2,354.0 442.8,370.5 451.6,393.7 448.6,418.4 434.5,438.9 412.4,450.5 387.6,450.5 365.5,438.9 351.4,418.4 348.4,393.7 357.2,370.5 375.8,354.0" fill="none" stroke="white" stroke-width="0.5"/>
    <polygon points="400.0,296.0 448.3,307.9 485.6,340.9 503.2,387.5 497.2,436.9 469.0,477.8 424.9,501.0 375.1,501.0 331.0,477.8 302.8,436.9 296.8,387.5 314.4,340.9 351.7,307.9" fill="none" stroke="white" stroke-width="0.5"/>
    <polygon points="400.0,244.0 472.5,261.9 528.4,311.4 554.9,381.2 545.9,455.3 503.4,516.8 437.3,551.5 362.7,551.5 296.6,516.8 254.1,455.3 245.1,381.2 271.6,311.4 327.5,261.9" fill="none" stroke="white" stroke-width="0.5"/>
    <polygon points="400.0,192.0 496.7,215.8 571.2,281.8 606.5,374.9 594.5,473.8 537.9,555.7 449.8,602.0 350.2,602.0 262.1,555.7 205.5,473.8 193.5,374.9 228.8,281.8 303.3,215.8" fill="none" stroke="white" stroke-width="0.5"/>
    <polygon points="400.0,140.0 520.8,169.8 614.0,252.3 658.1,368.7 643.1,492.2 572.4,594.6 462.2,652.4 337.8,652.4 227.6,594.6 156.9,492.2 141.9,368.7 186.0,252.3 279.2,169.8" fill="none" stroke="white" stroke-width="0.5"/>
  </g>
  <g id="axes" opacity="0.2">
    <line x1="400" y1="400" x2="400.0" y2="140.0" stroke="white" stroke-width="0.5"/>
    <line x1="400" y1="400" x2="520.8" y2="169.8" stroke="white" stroke-width="0.5"/>
    <line x1="400" y1="400" x2="614.0" y2="252.3" stroke="white" stroke-width="0.5"/>
    <line x1="400" y1="400" x2="658.1" y2="368.7" stroke="white" stroke-width="0.5"/>
    <line x1="400" y1="400" x2="643.1" y2="492.2" stroke="white" stroke-width="0.5"/>
    <line x1="400" y1="400" x2="572.4" y2="594.6" stroke="white" stroke-width="0.5"/>
    <line x1="400" y1="400" x2="462.2" y2="652.4" stroke="white" stroke-width="0.5"/>
    <line x1="400" y1="400" x2="337.8" y2="652.4" stroke="white" stroke-width="0.5"/>
    <line x1="400" y1="400" x2="227.6" y2="594.6" stroke="white" stroke-width="0.5"/>
    <line x1="400" y1="400" x2="156.9" y2="492.2" stroke="white" stroke-width="0.5"/>
    <line x1="400" y1="400" x2="141.9" y2="368.7" stroke="white" stroke-width="0.5"/>
    <line x1="400" y1="400" x2="186.0" y2="252.3" stroke="white" stroke-width="0.5"/>
    <line x1="400" y1="400" x2="279.2" y2="169.8" stroke="white" stroke-width="0.5"/>
  </g>
  <g id="data" filter="url(#glow)">
    <polygon points="400.0,205.0 496.7,215.8 575.5,278.9 632.3,371.8 589.6,471.9 520.7,536.2 428.0,513.6 351.5,596.9 275.9,540.1 242.0,459.9 245.1,381.2 325.1,348.3 333.5,273.4" fill="rgba(102,126,234,0.15)" stroke="#667eea" stroke-width="2" opacity="0.9"/>
    <circle cx="400.0" cy="205.0" r="4" fill="#667eea" opacity="0.9"/>
    <circle cx="400.0" cy="205.0" r="7" fill="#667eea" opacity="0.2"/>
    <circle cx="496.7" cy="215.8" r="4" fill="#667eea" opacity="0.9"/>
    <circle cx="496.7" cy="215.8" r="7" fill="#667eea" opacity="0.2"/>
    <circle cx="575.5" cy="278.9" r="4" fill="#667eea" opacity="0.9"/>
    <circle cx="575.5" cy="278.9" r="7" fill="#667eea" opacity="0.2"/>
    <circle cx="632.3" cy="371.8" r="4" fill="#667eea" opacity="0.9"/>
    <circle cx="632.3" cy="371.8" r="7" fill="#667eea" opacity="0.2"/>
    <circle cx="589.6" cy="471.9" r="4" fill="#667eea" opacity="0.9"/>
    <circle cx="589.6" cy="471.9" r="7" fill="#667eea" opacity="0.2"/>
    <circle cx="520.7" cy="536.2" r="4" fill="#667eea" opacity="0.9"/>
    <circle cx="520.7" cy="536.2" r="7" fill="#667eea" opacity="0.2"/>
    <circle cx="428.0" cy="513.6" r="4" fill="#667eea" opacity="0.9"/>
    <circle cx="428.0" cy="513.6" r="7" fill="#667eea" opacity="0.2"/>
    <circle cx="351.5" cy="596.9" r="4" fill="#667eea" opacity="0.9"/>
    <circle cx="351.5" cy="596.9" r="7" fill="#667eea" opacity="0.2"/>
    <circle cx="275.9" cy="540.1" r="4" fill="#667eea" opacity="0.9"/>
    <circle cx="275.9" cy="540.1" r="7" fill="#667eea" opacity="0.2"/>
    <circle cx="242.0" cy="459.9" r="4" fill="#667eea" opacity="0.9"/>
    <circle cx="242.0" cy="459.9" r="7" fill="#667eea" opacity="0.2"/>
    <circle cx="245.1" cy="381.2" r="4" fill="#667eea" opacity="0.9"/>
    <circle cx="245.1" cy="381.2" r="7" fill="#667eea" opacity="0.2"/>
    <circle cx="325.1" cy="348.3" r="4" fill="#667eea" opacity="0.9"/>
    <circle cx="325.1" cy="348.3" r="7" fill="#667eea" opacity="0.2"/>
    <circle cx="333.5" cy="273.4" r="4" fill="#667eea" opacity="0.9"/>
    <circle cx="333.5" cy="273.4" r="7" fill="#667eea" opacity="0.2"/>
  </g>
  <g id="labels">
    <text x="400.0" y="107.0" text-anchor="middle" dominant-baseline="central" dy="0em" fill="#667eea" font-family="monospace" font-size="11" font-weight="600" opacity="0.85">PE</text>
    <text x="400.0" y="121.0" text-anchor="middle" fill="white" font-family="monospace" font-size="9.5" opacity="0.5">0.75</text>
    <text x="533.8" y="145.0" text-anchor="start" dominant-baseline="central" dy="0.35em" fill="#667eea" font-family="monospace" font-size="11" font-weight="600" opacity="0.85">GA</text>
    <text x="533.8" y="159.0" text-anchor="start" fill="white" font-family="monospace" font-size="9.5" opacity="0.5">0.80</text>
    <text x="637.0" y="236.4" text-anchor="start" dominant-baseline="central" dy="0.35em" fill="#667eea" font-family="monospace" font-size="11" font-weight="600" opacity="0.85">SC</text>
    <text x="637.0" y="250.4" text-anchor="start" fill="white" font-family="monospace" font-size="9.5" opacity="0.5">0.82</text>
    <text x="685.9" y="365.3" text-anchor="start" dominant-baseline="central" dy="0.35em" fill="#667eea" font-family="monospace" font-size="11" font-weight="600" opacity="0.85">IS</text>
    <text x="685.9" y="379.3" text-anchor="start" fill="white" font-family="monospace" font-size="9.5" opacity="0.5">0.90</text>
    <text x="669.3" y="502.1" text-anchor="start" dominant-baseline="central" dy="0.35em" fill="#667eea" font-family="monospace" font-size="11" font-weight="600" opacity="0.85">GP</text>
    <text x="669.3" y="516.1" text-anchor="start" fill="white" font-family="monospace" font-size="9.5" opacity="0.5">0.78</text>
    <text x="591.0" y="615.6" text-anchor="start" dominant-baseline="central" dy="0.35em" fill="#667eea" font-family="monospace" font-size="11" font-weight="600" opacity="0.85">EV</text>
    <text x="591.0" y="629.6" text-anchor="start" fill="white" font-family="monospace" font-size="9.5" opacity="0.5">0.70</text>
    <text x="468.9" y="684.6" text-anchor="start" dominant-baseline="central" dy="0.8em" fill="#667eea" font-family="monospace" font-size="11" font-weight="600" opacity="0.85">EA</text>
    <text x="468.9" y="698.6" text-anchor="start" fill="white" font-family="monospace" font-size="9.5" opacity="0.5">0.45</text>
    <text x="331.1" y="684.6" text-anchor="end" dominant-baseline="central" dy="0.8em" fill="#667eea" font-family="monospace" font-size="11" font-weight="600" opacity="0.85">MSI</text>
    <text x="331.1" y="698.6" text-anchor="end" fill="white" font-family="monospace" font-size="9.5" opacity="0.5">0.78</text>
    <text x="209.0" y="615.6" text-anchor="end" dominant-baseline="central" dy="0.35em" fill="#667eea" font-family="monospace" font-size="11" font-weight="600" opacity="0.85">SE</text>
    <text x="209.0" y="629.6" text-anchor="end" fill="white" font-family="monospace" font-size="9.5" opacity="0.5">0.72</text>
    <text x="130.7" y="502.1" text-anchor="end" dominant-baseline="central" dy="0.35em" fill="#667eea" font-family="monospace" font-size="11" font-weight="600" opacity="0.85">CUR</text>
    <text x="130.7" y="516.1" text-anchor="end" fill="white" font-family="monospace" font-size="9.5" opacity="0.5">0.65</text>
    <text x="114.1" y="365.3" text-anchor="end" dominant-baseline="central" dy="0.35em" fill="#667eea" font-family="monospace" font-size="11" font-weight="600" opacity="0.85">SAT</text>
    <text x="114.1" y="379.3" text-anchor="end" fill="white" font-family="monospace" font-size="9.5" opacity="0.5">0.60</text>
    <text x="163.0" y="236.4" text-anchor="end" dominant-baseline="central" dy="0.35em" fill="#667eea" font-family="monospace" font-size="11" font-weight="600" opacity="0.85">EXC</text>
    <text x="163.0" y="250.4" text-anchor="end" fill="white" font-family="monospace" font-size="9.5" opacity="0.5">0.35</text>
    <text x="266.2" y="145.0" text-anchor="end" dominant-baseline="central" dy="0.35em" fill="#667eea" font-family="monospace" font-size="11" font-weight="600" opacity="0.85">FLW</text>
    <text x="266.2" y="159.0" text-anchor="end" fill="white" font-family="monospace" font-size="9.5" opacity="0.5">0.55</text>
  </g>
  <g id="core" filter="url(#soft-glow)">
    <circle cx="400" cy="400" r="18" fill="#667eea" opacity="0.15"/>
    <circle cx="400" cy="400" r="8" fill="white" opacity="0.3"/>
    <circle cx="400" cy="400" r="3" fill="white" opacity="0.6"/>
  </g>
  <text x="400" y="770" text-anchor="middle" fill="white" font-family="Georgia, serif" font-size="13" opacity="0.4">The Cartography of Frost</text>
  <defs>
    <radialGradient id="vignette" cx="50%" cy="50%" r="50%">
      <stop offset="60%" stop-color="transparent"/>
      <stop offset="100%" stop-color="black" stop-opacity="0.5"/>
    </radialGradient>
  </defs>
  <rect width="800" height="800" fill="url(#vignette)"/>
</svg>