<svg xmlns="http://www.w3.org/2000/svg" viewBox="0 0 800 800" width="800" height="800">
  <defs>
    <radialGradient id="bg-grad" cx="50%" cy="45%" r="75%">
      <stop offset="0%" stop-color="#DDA0DD" stop-opacity="0.85"/>
      <stop offset="35%" stop-color="#9370DB" stop-opacity="0.65"/>
      <stop offset="65%" stop-color="#AA96DA" stop-opacity="0.6"/>
      <stop offset="100%" stop-color="#1A1025" stop-opacity="1"/>
    </radialGradient>
    <filter id="glow"><feGaussianBlur stdDeviation="4" result="b"/>
      <feMerge><feMergeNode in="b"/><feMergeNode in="SourceGraphic"/></feMerge>
    </filter>
    <filter id="soft-glow"><feGaussianBlur stdDeviation="8" result="b"/>
      <feMerge><feMergeNode in="b"/><feMergeNode in="SourceGraphic"/></feMerge>
    </filter>
    <filter id="blur-heavy"><feGaussianBlur stdDeviation="16"/></filter>
  </defs>
  <rect width="800" height="800" fill="url(#bg-grad)"/>
  <g id="crystal" opacity="0.35">
    <polygon points="631,441 599,479 550,470 533,423 565,385 614,394" fill="none" stroke="#7FDBCA" stroke-width="0.8" opacity="0.20"/>
    <polygon points="489,527 464,529 450,509 460,486 485,484 499,504" fill="none" stroke="#7FDBCA" stroke-width="0.8" opacity="0.20"/>
    <polygon points="380,513 349,488 356,448 394,434 425,460 418,500" fill="none" stroke="#7FDBCA" stroke-width="0.8" opacity="0.20"/>
    <polygon points="191,546 186,491 231,460 281,483 286,538 241,570" fill="none" stroke="#7FDBCA" stroke-width="0.8" opacity="0.20"/>
    <polygon points="228,370 247,347 276,352 287,380 267,403 238,398" fill="none" stroke="#7FDBCA" stroke-width="0.8" opacity="0.20"/>
    <polygon points="323,289 367,285 393,322 374,363 329,367 304,330" fill="none" stroke="#7FDBCA" stroke-width="0.8" opacity="0.20"/>
    <polygon points="441,169 456,181 453,201 434,208 419,195 422,175" fill="none" stroke="#7FDBCA" stroke-width="0.8" opacity="0.20"/>
    <polygon points="560,288 563,323 534,343 502,328 499,293 528,273" fill="none" stroke="#7FDBCA" stroke-width="0.8" opacity="0.20"/>
  </g>

  <g id="neural" filter="url(#glow)">
    <circle cx="295" cy="270" r="2.5" fill="white" opacity="0.40"/>
    <circle cx="627" cy="458" r="2.5" fill="white" opacity="0.40"/>
    <circle cx="279" cy="646" r="2.5" fill="white" opacity="0.40"/>
    <circle cx="611" cy="154" r="2.5" fill="white" opacity="0.40"/>
    <circle cx="263" cy="342" r="2.5" fill="white" opacity="0.40"/>
    <circle cx="595" cy="530" r="2.5" fill="white" opacity="0.40"/>
    <circle cx="247" cy="718" r="2.5" fill="white" opacity="0.40"/>
    <circle cx="579" cy="226" r="2.5" fill="white" opacity="0.40"/>
  </g>
  <g id="core" filter="url(#soft-glow)">
    <circle cx="400" cy="400" r="72" fill="#7FDBCA" opacity="0.11"/>
    <circle cx="400" cy="400" r="58" fill="#7FDBCA" opacity="0.22"/>
    <circle cx="400" cy="400" r="42" fill="#E6E6FA" opacity="0.55"/>
    <circle cx="400" cy="400" r="15" fill="white" opacity="0.47"/>
  </g>
  <g id="day-rings" opacity="0.12">
    <circle cx="400" cy="400" r="280" fill="none" stroke="white" stroke-width="0.6" stroke-dasharray="3,5"/>
    <circle cx="400" cy="400" r="305" fill="none" stroke="white" stroke-width="0.6" stroke-dasharray="5,8"/>
  </g>
  <defs>
    <radialGradient id="vignette" cx="50%" cy="50%" r="50%">
      <stop offset="55%" stop-color="transparent"/>
      <stop offset="100%" stop-color="black" stop-opacity="0.45"/>
    </radialGradient>
  </defs>
  <rect width="800" height="800" fill="url(#vignette)"/>
</svg>