<svg viewBox="0 0 800 800" xmlns="http://www.w3.org/2000/svg">
  <defs>
    <filter id="glow"><feGaussianBlur stdDeviation="5" result="b"/><feMerge><feMergeNode in="b"/><feMergeNode in="SourceGraphic"/></feMerge></filter>
    <filter id="s-glow"><feGaussianBlur stdDeviation="12" result="b"/><feMerge><feMergeNode in="b"/><feMergeNode in="SourceGraphic"/></feMerge></filter>
    <filter id="blur-h"><feGaussianBlur stdDeviation="22"/></filter>
    <radialGradient id="vig" cx="50%" cy="50%" r="60%">
      <stop offset="0%" stop-color="black" stop-opacity="0"/>
      <stop offset="100%" stop-color="black" stop-opacity="0.30"/>
    </radialGradient>
  </defs>
  <rect width="800" height="800" fill="#131110"/>
  <defs>
    <radialGradient id="bg2643a" cx="52%" cy="49%" r="75%">
      <stop offset="0%" stop-color="#362a25"/>
      <stop offset="100%" stop-color="#131110"/>
    </radialGradient>
    <radialGradient id="bg2643b" cx="48%" cy="63%" r="50%">
      <stop offset="0%" stop-color="#221d1b" stop-opacity=".7"/>
      <stop offset="100%" stop-color="#131110" stop-opacity="0"/>
    </radialGradient>
    <filter id="noise2643">
      <feTurbulence type="fractalNoise" baseFrequency="0.0027" numOctaves="4" seed="941"/>
      <feColorMatrix type="saturate" values="0"/>
      <feComponentTransfer><feFuncA type="linear" slope="0.040"/></feComponentTransfer>
      <feBlend in="SourceGraphic" mode="screen"/>
    </filter>
  </defs>
  <rect width="800" height="800" fill="url(#bg2643a)"/>
  <rect width="800" height="800" fill="url(#bg2643b)"/>
  <rect width="800" height="800" filter="url(#noise2643)" opacity=".4"/>
  <g id="atmosphere">
  <circle cx="416" cy="390" r="320" fill="#ce704a" opacity="0.100" filter="url(#blur-h)"/>
  <circle cx="655" cy="28" r="381" fill="#4cc15a" opacity="0.075" filter="url(#blur-h)"/>
  <circle cx="447" cy="-94" r="237" fill="#7c49c4" opacity="0.087" filter="url(#blur-h)"/>
  <circle cx="243" cy="-48" r="350" fill="#8d4ac5" opacity="0.069" filter="url(#blur-h)"/>
  </g>
  <g id="back">
    <circle cx="218" cy="537" r="107" fill="#50c375" opacity="0.066" filter="url(#blur-h)"/>
    <circle cx="192" cy="308" r="115" fill="#7644c3" opacity="0.053" filter="url(#blur-h)"/>
    <circle cx="661" cy="87" r="105" fill="#3eb757" opacity="0.077" filter="url(#blur-h)"/>
    <circle cx="364" cy="606" r="160" fill="#cb6341" opacity="0.055" filter="url(#blur-h)"/>
    <circle cx="184" cy="345" r="83" fill="#4dc280" opacity="0.073" filter="url(#blur-h)"/>
    <circle cx="239" cy="690" r="122" fill="#3eb561" opacity="0.103" filter="url(#blur-h)"/>
    <circle cx="358" cy="269" r="108" fill="#cc7544" opacity="0.130" filter="url(#blur-h)"/>
    <circle cx="227" cy="770" r="103" fill="#3fb963" opacity="0.125" filter="url(#blur-h)"/>
    <circle cx="464" cy="605" r="31" fill="#4bc185" opacity="0.062" filter="url(#blur-h)"/>
    <circle cx="464" cy="605" r="31" fill="none" stroke="#4bc185" stroke-width="0.5" opacity="0.112"/>
    <circle cx="198" cy="173" r="31" fill="#573ec1" opacity="0.092" filter="url(#blur-h)"/>
    <circle cx="198" cy="173" r="31" fill="none" stroke="#573ec1" stroke-width="0.7" opacity="0.166"/>
    <circle cx="789" cy="816" r="83" fill="#5e4fc6" opacity="0.061" filter="url(#blur-h)"/>
    <circle cx="789" cy="816" r="83" fill="none" stroke="#5e4fc6" stroke-width="0.9" opacity="0.109"/>
    <circle cx="462" cy="682" r="73" fill="#3bad65" opacity="0.097" filter="url(#blur-h)"/>
    <circle cx="462" cy="682" r="73" fill="none" stroke="#3bad65" stroke-width="0.7" opacity="0.175"/>
    <circle cx="789" cy="492" r="76" fill="#d08554" opacity="0.096" filter="url(#blur-h)"/>
    <circle cx="789" cy="492" r="76" fill="none" stroke="#d08554" stroke-width="0.5" opacity="0.172"/>
    <circle cx="51" cy="583" r="40" fill="#623cbe" opacity="0.059" filter="url(#blur-h)"/>
    <circle cx="51" cy="583" r="40" fill="none" stroke="#623cbe" stroke-width="0.5" opacity="0.106"/>
    <circle cx="805" cy="439" r="54" fill="#d2855c" opacity="0.098" filter="url(#blur-h)"/>
    <circle cx="805" cy="439" r="54" fill="none" stroke="#d2855c" stroke-width="0.4" opacity="0.177"/>
    <circle cx="814" cy="335" r="60" fill="#8145c3" opacity="0.078" filter="url(#blur-h)"/>
    <circle cx="814" cy="335" r="60" fill="none" stroke="#8145c3" stroke-width="0.5" opacity="0.141"/>
    <circle cx="23" cy="365" r="37" fill="#4ec283" opacity="0.065" filter="url(#blur-h)"/>
    <circle cx="23" cy="365" r="37" fill="none" stroke="#4ec283" stroke-width="0.7" opacity="0.118"/>
    <circle cx="470" cy="357" r="74" fill="#5b3ec1" opacity="0.070" filter="url(#blur-h)"/>
    <circle cx="470" cy="357" r="74" fill="none" stroke="#5b3ec1" stroke-width="1.0" opacity="0.126"/>
    <circle cx="582" cy="575" r="85" fill="#6f48c4" opacity="0.068" filter="url(#blur-h)"/>
    <circle cx="582" cy="575" r="85" fill="none" stroke="#6f48c4" stroke-width="0.9" opacity="0.123"/>
    <circle cx="746" cy="499" r="52" fill="#4fc266" opacity="0.057" filter="url(#blur-h)"/>
    <circle cx="746" cy="499" r="52" fill="none" stroke="#4fc266" stroke-width="0.6" opacity="0.102"/>
    <circle cx="-15" cy="738" r="55" fill="#704fc6" opacity="0.055" filter="url(#blur-h)"/>
    <circle cx="-15" cy="738" r="55" fill="none" stroke="#704fc6" stroke-width="1.1" opacity="0.099"/>
    <circle cx="27" cy="540" r="32" fill="#7859ca" opacity="0.047" filter="url(#blur-h)"/>
    <circle cx="27" cy="540" r="32" fill="none" stroke="#7859ca" stroke-width="0.9" opacity="0.085"/>
  </g>
  <g id="nebula" opacity="0.59">
    <circle cx="45" cy="588" r="150" fill="#4ac15f" opacity="0.041" filter="url(#blur-h)"/>
    <circle cx="401" cy="731" r="176" fill="#39a853" opacity="0.043" filter="url(#blur-h)"/>
    <circle cx="585" cy="182" r="221" fill="#3cb14a" opacity="0.044" filter="url(#blur-h)"/>
    <circle cx="548" cy="685" r="160" fill="#ca713e" opacity="0.127" filter="url(#blur-h)"/>
    <circle cx="206" cy="170" r="150" fill="#d2805a" opacity="0.127" filter="url(#blur-h)"/>
    <circle cx="93" cy="557" r="195" fill="#4c3cbd" opacity="0.064" filter="url(#blur-h)"/>
  </g>
  <g id="curves" opacity="0.46">
    <path d="M-17.0,659.3 Q631.3,775.1 375.4,756.1 Q119.5,737.0 415.5,600.1 Q711.5,463.2 637.3,262.0 Q563.0,60.8 688.6,246.3 L814.2,431.7" stroke="#6d50c7" stroke-width="2.7" fill="none" opacity="0.15"/>
    <path d="M-14.1,624.7 Q456.3,217.1 300.1,210.5 Q144.0,203.9 256.9,361.9 Q369.9,519.9 354.9,499.4 Q339.9,478.9 573.7,453.9 L807.4,429.0" stroke="#50c383" stroke-width="1.5" fill="none" opacity="0.13"/>
    <path d="M-4.1,361.8 Q494.8,349.0 308.6,210.8 Q122.4,72.6 197.3,66.4 Q272.3,60.2 454.1,130.4 Q636.0,200.6 720.3,255.5 L804.7,310.5" stroke="#4f3dbe" stroke-width="0.4" fill="none" opacity="0.11"/>
    <path d="M-28.9,743.7 Q266.0,332.6 166.0,420.3 Q66.1,508.0 368.9,600.0 Q671.8,692.0 681.4,661.3 Q690.9,630.6 742.7,550.2 L794.6,469.8" stroke="#6556c8" stroke-width="2.7" fill="none" opacity="0.12"/>
    <path d="M-13.8,13.6 Q222.0,382.3 319.1,556.4 Q416.3,730.5 609.6,713.8 L802.8,697.1" stroke="#ca513e" stroke-width="1.4" fill="none" opacity="0.06"/>
    <path d="M-36.0,558.9 Q60.6,649.2 286.6,737.2 Q512.7,825.2 449.9,642.3 Q387.2,459.4 596.8,327.9 L806.4,196.3" stroke="#cf714e" stroke-width="2.9" fill="none" opacity="0.16"/>
    <path d="M-6.3,197.5 Q119.1,557.0 330.0,308.9 Q540.9,60.8 622.9,36.2 Q705.0,11.6 592.1,282.4 Q479.2,553.2 647.7,617.0 L816.3,680.9" stroke="#49c06d" stroke-width="3.0" fill="none" opacity="0.16"/>
    <path d="M-10.1,413.7 Q269.9,597.4 437.5,391.8 Q605.2,186.3 449.8,178.9 Q294.4,171.5 229.1,474.8 Q163.8,778.2 158.1,442.0 Q152.3,105.8 482.8,98.8 L813.4,91.9" stroke="#cc6c44" stroke-width="1.3" fill="none" opacity="0.15"/>
    <path d="M-21.5,600.5 Q568.8,588.0 409.5,477.8 Q250.3,367.6 315.4,189.5 Q380.5,11.5 243.8,236.0 Q107.2,460.5 205.3,493.5 Q303.5,526.4 559.8,251.0 L816.2,-24.4" stroke="#ca6c3e" stroke-width="2.9" fill="none" opacity="0.14"/>
    <path d="M-18.6,546.0 Q295.6,126.6 476.0,378.3 Q656.5,630.1 581.9,639.2 Q507.4,648.2 667.0,414.3 L826.6,180.5" stroke="#3caf63" stroke-width="0.4" fill="none" opacity="0.07"/>
  </g>
  <g id="constellation" opacity="0.37">
    <line x1="297" y1="236" x2="261" y2="214" stroke="#6b47c4" stroke-width="0.6" opacity="0.095"/>
    <line x1="297" y1="236" x2="238" y2="302" stroke="#6b47c4" stroke-width="0.6" opacity="0.039"/>
    <line x1="620" y1="317" x2="599" y2="380" stroke="#6b47c4" stroke-width="0.6" opacity="0.066"/>
    <line x1="258" y1="622" x2="210" y2="593" stroke="#6b47c4" stroke-width="0.6" opacity="0.072"/>
    <line x1="25" y1="766" x2="93" y2="764" stroke="#6b47c4" stroke-width="0.6" opacity="0.042"/>
    <line x1="97" y1="311" x2="62" y2="348" stroke="#6b47c4" stroke-width="0.6" opacity="0.072"/>
    <line x1="97" y1="311" x2="170" y2="359" stroke="#6b47c4" stroke-width="0.6" opacity="0.036"/>
    <line x1="261" y1="214" x2="184" y2="172" stroke="#6b47c4" stroke-width="0.6" opacity="0.037"/>
    <line x1="576" y1="137" x2="603" y2="87" stroke="#6b47c4" stroke-width="0.6" opacity="0.067"/>
    <line x1="576" y1="137" x2="582" y2="143" stroke="#6b47c4" stroke-width="0.6" opacity="0.123"/>
    <line x1="576" y1="137" x2="535" y2="87" stroke="#6b47c4" stroke-width="0.6" opacity="0.060"/>
    <line x1="576" y1="137" x2="638" y2="153" stroke="#6b47c4" stroke-width="0.6" opacity="0.061"/>
    <line x1="451" y1="49" x2="385" y2="33" stroke="#6b47c4" stroke-width="0.6" opacity="0.054"/>
    <line x1="451" y1="49" x2="535" y2="87" stroke="#6b47c4" stroke-width="0.6" opacity="0.030"/>
    <line x1="444" y1="312" x2="406" y2="330" stroke="#6b47c4" stroke-width="0.6" opacity="0.110"/>
    <line x1="547" y1="635" x2="462" y2="688" stroke="#6b47c4" stroke-width="0.6" opacity="0.030"/>
    <line x1="75" y1="690" x2="93" y2="764" stroke="#6b47c4" stroke-width="0.6" opacity="0.038"/>
    <line x1="423" y1="713" x2="339" y2="668" stroke="#6b47c4" stroke-width="0.6" opacity="0.029"/>
    <line x1="603" y1="87" x2="638" y2="153" stroke="#6b47c4" stroke-width="0.6" opacity="0.048"/>
    <line x1="160" y1="58" x2="97" y2="42" stroke="#6b47c4" stroke-width="0.6" opacity="0.050"/>
    <line x1="528" y1="655" x2="640" y2="672" stroke="#6b47c4" stroke-width="0.6" opacity="0.029"/>
    <line x1="20" y1="676" x2="54" y2="584" stroke="#6b47c4" stroke-width="0.6" opacity="0.024"/>
    <line x1="724" y1="604" x2="640" y2="672" stroke="#6b47c4" stroke-width="0.6" opacity="0.027"/>
    <line x1="582" y1="143" x2="535" y2="87" stroke="#6b47c4" stroke-width="0.6" opacity="0.051"/>
    <line x1="582" y1="143" x2="638" y2="153" stroke="#6b47c4" stroke-width="0.6" opacity="0.069"/>
    <line x1="560" y1="50" x2="535" y2="87" stroke="#6b47c4" stroke-width="0.6" opacity="0.078"/>
    <line x1="547" y1="439" x2="599" y2="380" stroke="#6b47c4" stroke-width="0.6" opacity="0.053"/>
    <line x1="97" y1="42" x2="32" y2="131" stroke="#6b47c4" stroke-width="0.6" opacity="0.024"/>
    <circle cx="783" cy="149" r="1.8" fill="white" opacity="0.23"/>
    <circle cx="297" cy="236" r="1.8" fill="white" opacity="0.23"/>
    <circle cx="620" cy="317" r="3.8" fill="white" opacity="0.64"/>
    <circle cx="620" cy="317" r="9.8" fill="#ce704a" opacity="0.077"/>
    <circle cx="258" cy="622" r="1.5" fill="white" opacity="0.17"/>
    <circle cx="25" cy="766" r="1.9" fill="white" opacity="0.26"/>
    <circle cx="25" cy="766" r="7.9" fill="#cb5c42" opacity="0.031"/>
    <circle cx="97" cy="311" r="1.6" fill="white" opacity="0.20"/>
    <circle cx="261" cy="214" r="3.0" fill="white" opacity="0.49"/>
    <circle cx="261" cy="214" r="9.0" fill="#ce704a" opacity="0.059"/>
    <circle cx="210" cy="593" r="3.6" fill="white" opacity="0.60"/>
    <circle cx="210" cy="593" r="9.6" fill="#d17655" opacity="0.072"/>
    <circle cx="576" cy="137" r="1.8" fill="white" opacity="0.23"/>
    <circle cx="451" cy="49" r="2.8" fill="white" opacity="0.44"/>
    <circle cx="451" cy="49" r="8.8" fill="#ce704a" opacity="0.053"/>
    <circle cx="444" cy="312" r="3.2" fill="white" opacity="0.53"/>
    <circle cx="444" cy="312" r="9.2" fill="#ce704a" opacity="0.063"/>
    <circle cx="227" cy="331" r="2.6" fill="white" opacity="0.41"/>
    <circle cx="227" cy="331" r="8.6" fill="#d18557" opacity="0.049"/>
    <circle cx="547" cy="635" r="3.5" fill="white" opacity="0.58"/>
    <circle cx="547" cy="635" r="9.5" fill="#cc6244" opacity="0.070"/>
    <circle cx="62" cy="348" r="3.0" fill="white" opacity="0.48"/>
    <circle cx="62" cy="348" r="9.0" fill="#ce704a" opacity="0.057"/>
    <circle cx="75" cy="690" r="2.1" fill="white" opacity="0.29"/>
    <circle cx="75" cy="690" r="8.1" fill="#ce704a" opacity="0.034"/>
    <circle cx="385" cy="33" r="2.8" fill="white" opacity="0.43"/>
    <circle cx="385" cy="33" r="8.8" fill="#cf7950" opacity="0.052"/>
    <circle cx="423" cy="713" r="3.3" fill="white" opacity="0.54"/>
    <circle cx="423" cy="713" r="9.3" fill="#cf774f" opacity="0.065"/>
    <circle cx="406" cy="330" r="1.7" fill="white" opacity="0.19"/>
    <circle cx="462" cy="688" r="2.1" fill="white" opacity="0.29"/>
    <circle cx="93" cy="764" r="1.4" fill="white" opacity="0.17"/>
    <circle cx="740" cy="763" r="2.4" fill="white" opacity="0.34"/>
    <circle cx="740" cy="763" r="8.4" fill="#cb7641" opacity="0.041"/>
    <circle cx="603" cy="87" r="2.0" fill="white" opacity="0.29"/>
    <circle cx="705" cy="62" r="2.4" fill="white" opacity="0.34"/>
    <circle cx="705" cy="62" r="8.4" fill="#ce704a" opacity="0.041"/>
    <circle cx="709" cy="401" r="1.3" fill="white" opacity="0.14"/>
    <circle cx="73" cy="396" r="1.8" fill="white" opacity="0.24"/>
    <circle cx="272" cy="704" r="3.2" fill="white" opacity="0.52"/>
    <circle cx="272" cy="704" r="9.2" fill="#ce704a" opacity="0.063"/>
    <circle cx="160" cy="58" r="3.1" fill="white" opacity="0.48"/>
    <circle cx="160" cy="58" r="9.1" fill="#cb713e" opacity="0.058"/>
    <circle cx="528" cy="655" r="2.2" fill="white" opacity="0.32"/>
    <circle cx="20" cy="676" r="1.0" fill="white" opacity="0.10"/>
    <circle cx="266" cy="244" r="3.1" fill="white" opacity="0.51"/>
    <circle cx="266" cy="244" r="9.1" fill="#cd7748" opacity="0.061"/>
    <circle cx="184" cy="172" r="2.4" fill="white" opacity="0.35"/>
    <circle cx="184" cy="172" r="8.4" fill="#ce704a" opacity="0.042"/>
    <circle cx="724" cy="604" r="2.2" fill="white" opacity="0.32"/>
    <circle cx="724" cy="604" r="8.2" fill="#ce7e4a" opacity="0.038"/>
    <circle cx="533" cy="785" r="2.1" fill="white" opacity="0.31"/>
    <circle cx="533" cy="785" r="8.1" fill="#ce704a" opacity="0.037"/>
    <circle cx="54" cy="584" r="2.8" fill="white" opacity="0.44"/>
    <circle cx="54" cy="584" r="8.8" fill="#ca5d3e" opacity="0.052"/>
    <circle cx="582" cy="143" r="1.5" fill="white" opacity="0.18"/>
    <circle cx="560" cy="50" r="3.0" fill="white" opacity="0.46"/>
    <circle cx="560" cy="50" r="9.0" fill="#ce704a" opacity="0.056"/>
    <circle cx="547" cy="439" r="1.4" fill="white" opacity="0.15"/>
    <circle cx="640" cy="672" r="1.8" fill="white" opacity="0.23"/>
    <circle cx="339" cy="668" r="3.7" fill="white" opacity="0.63"/>
    <circle cx="339" cy="668" r="9.7" fill="#cf7b51" opacity="0.075"/>
    <circle cx="170" cy="359" r="1.6" fill="white" opacity="0.20"/>
    <circle cx="739" cy="523" r="2.9" fill="white" opacity="0.45"/>
    <circle cx="739" cy="523" r="8.9" fill="#ce794b" opacity="0.055"/>
    <circle cx="531" cy="490" r="3.8" fill="white" opacity="0.65"/>
    <circle cx="531" cy="490" r="9.8" fill="#ce704a" opacity="0.078"/>
    <circle cx="238" cy="302" r="1.5" fill="white" opacity="0.16"/>
    <circle cx="535" cy="87" r="2.3" fill="white" opacity="0.34"/>
    <circle cx="535" cy="87" r="8.3" fill="#ce704a" opacity="0.041"/>
    <circle cx="97" cy="42" r="2.5" fill="white" opacity="0.36"/>
    <circle cx="97" cy="42" r="8.5" fill="#ce704a" opacity="0.043"/>
    <circle cx="32" cy="131" r="2.2" fill="white" opacity="0.31"/>
    <circle cx="32" cy="131" r="8.2" fill="#cd7d48" opacity="0.037"/>
    <circle cx="638" cy="153" r="3.0" fill="white" opacity="0.48"/>
    <circle cx="638" cy="153" r="9.0" fill="#ce704a" opacity="0.058"/>
    <circle cx="599" cy="380" r="2.6" fill="white" opacity="0.39"/>
    <circle cx="599" cy="380" r="8.6" fill="#ce644a" opacity="0.047"/>
  </g>
  <g id="bokeh-fg" opacity="0.35">
    <circle cx="562" cy="34" r="83" fill="#d16a58" opacity="0.051" filter="url(#blur-h)"/>
    <circle cx="562" cy="34" r="83" fill="none" stroke="#d16a58" stroke-width="1.0" opacity="0.091"/>
    <circle cx="97" cy="779" r="68" fill="#d08e52" opacity="0.048" filter="url(#blur-h)"/>
    <circle cx="97" cy="779" r="68" fill="none" stroke="#d08e52" stroke-width="0.6" opacity="0.087"/>
    <circle cx="129" cy="312" r="82" fill="#50c38b" opacity="0.073" filter="url(#blur-h)"/>
    <circle cx="129" cy="312" r="82" fill="none" stroke="#50c38b" stroke-width="0.5" opacity="0.132"/>
    <circle cx="554" cy="45" r="41" fill="#cf744d" opacity="0.068" filter="url(#blur-h)"/>
    <circle cx="554" cy="45" r="41" fill="none" stroke="#cf744d" stroke-width="1.0" opacity="0.122"/>
    <circle cx="514" cy="615" r="67" fill="#3fba48" opacity="0.032" filter="url(#blur-h)"/>
    <circle cx="514" cy="615" r="67" fill="none" stroke="#3fba48" stroke-width="1.0" opacity="0.058"/>
    <circle cx="273" cy="233" r="36" fill="#6e4dc5" opacity="0.066" filter="url(#blur-h)"/>
    <circle cx="273" cy="233" r="36" fill="none" stroke="#6e4dc5" stroke-width="0.4" opacity="0.120"/>
    <circle cx="29" cy="709" r="49" fill="#4dc271" opacity="0.041" filter="url(#blur-h)"/>
    <circle cx="29" cy="709" r="49" fill="none" stroke="#4dc271" stroke-width="0.7" opacity="0.074"/>
    <circle cx="-18" cy="409" r="30" fill="#d06f53" opacity="0.086" filter="url(#blur-h)"/>
    <circle cx="-18" cy="409" r="30" fill="none" stroke="#d06f53" stroke-width="0.6" opacity="0.154"/>
    <circle cx="552" cy="238" r="52" fill="#593cbd" opacity="0.045" filter="url(#blur-h)"/>
    <circle cx="552" cy="238" r="52" fill="none" stroke="#593cbd" stroke-width="1.1" opacity="0.082"/>
    <circle cx="86" cy="33" r="30" fill="#39a941" opacity="0.089" filter="url(#blur-h)"/>
    <circle cx="86" cy="33" r="30" fill="none" stroke="#39a941" stroke-width="0.7" opacity="0.161"/>
  </g>
  <g id="volumetric" opacity="0.62">
    <ellipse cx="399" cy="435" rx="120" ry="60" fill="#c97a38" opacity="0.032" transform="rotate(4 399 435)" filter="url(#blur-h)"/>
    <ellipse cx="438" cy="337" rx="143" ry="105" fill="#d2865a" opacity="0.025" transform="rotate(0 438 337)" filter="url(#blur-h)"/>
    <ellipse cx="449" cy="477" rx="231" ry="97" fill="#d19058" opacity="0.028" transform="rotate(2 449 477)" filter="url(#blur-h)"/>
    <ellipse cx="514" cy="369" rx="252" ry="102" fill="#cd7147" opacity="0.034" transform="rotate(-1 514 369)" filter="url(#blur-h)"/>
    <ellipse cx="418" cy="361" rx="73" ry="40" fill="#cd8147" opacity="0.025" transform="rotate(13 418 361)" filter="url(#blur-h)"/>
    <ellipse cx="435" cy="464" rx="190" ry="134" fill="#d17457" opacity="0.036" transform="rotate(3 435 464)" filter="url(#blur-h)"/>
  </g>
  <g id="stars">
    <circle cx="433" cy="219" r="2.0" fill="white" opacity="0.33"/>
    <circle cx="539" cy="566" r="0.9" fill="white" opacity="0.07"/>
    <circle cx="722" cy="89" r="1.7" fill="white" opacity="0.17"/>
    <circle cx="403" cy="424" r="2.0" fill="white" opacity="0.35"/>
    <circle cx="403" cy="424" r="7.0" fill="white" opacity="0.021"/>
    <circle cx="69" cy="210" r="2.2" fill="white" opacity="0.08"/>
    <circle cx="69" cy="210" r="7.2" fill="white" opacity="0.005"/>
    <circle cx="304" cy="204" r="0.4" fill="white" opacity="0.17"/>
    <circle cx="93" cy="485" r="2.3" fill="white" opacity="0.09"/>
    <circle cx="93" cy="485" r="7.3" fill="white" opacity="0.005"/>
    <circle cx="45" cy="402" r="0.9" fill="white" opacity="0.11"/>
    <circle cx="234" cy="449" r="2.1" fill="white" opacity="0.08"/>
    <circle cx="234" cy="449" r="7.1" fill="white" opacity="0.005"/>
    <circle cx="265" cy="739" r="0.3" fill="white" opacity="0.20"/>
    <circle cx="605" cy="650" r="2.8" fill="white" opacity="0.44"/>
    <circle cx="605" cy="650" r="7.8" fill="white" opacity="0.026"/>
    <circle cx="329" cy="517" r="2.4" fill="white" opacity="0.08"/>
    <circle cx="329" cy="517" r="7.4" fill="white" opacity="0.005"/>
    <circle cx="622" cy="281" r="1.4" fill="white" opacity="0.27"/>
    <circle cx="-10" cy="686" r="1.1" fill="white" opacity="0.20"/>
    <circle cx="711" cy="403" r="0.6" fill="white" opacity="0.19"/>
    <circle cx="57" cy="462" r="0.8" fill="white" opacity="0.33"/>
    <circle cx="10" cy="540" r="2.1" fill="white" opacity="0.28"/>
    <circle cx="10" cy="540" r="7.1" fill="white" opacity="0.017"/>
    <circle cx="280" cy="98" r="1.7" fill="white" opacity="0.40"/>
    <circle cx="459" cy="420" r="3.5" fill="white" opacity="0.57"/>
    <circle cx="459" cy="420" r="8.5" fill="white" opacity="0.034"/>
    <circle cx="559" cy="598" r="0.8" fill="white" opacity="0.24"/>
    <circle cx="579" cy="418" r="1.3" fill="white" opacity="0.36"/>
    <circle cx="694" cy="199" r="2.5" fill="white" opacity="0.07"/>
    <circle cx="694" cy="199" r="7.5" fill="white" opacity="0.004"/>
    <circle cx="516" cy="29" r="2.1" fill="white" opacity="0.23"/>
    <circle cx="516" cy="29" r="7.1" fill="white" opacity="0.014"/>
    <circle cx="462" cy="415" r="1.8" fill="white" opacity="0.51"/>
    <circle cx="1" cy="162" r="1.4" fill="white" opacity="0.29"/>
    <circle cx="186" cy="669" r="1.3" fill="white" opacity="0.40"/>
    <circle cx="607" cy="607" r="2.3" fill="white" opacity="0.37"/>
    <circle cx="607" cy="607" r="7.3" fill="white" opacity="0.022"/>
    <circle cx="725" cy="326" r="1.6" fill="white" opacity="0.41"/>
    <circle cx="190" cy="353" r="1.6" fill="white" opacity="0.12"/>
    <circle cx="389" cy="502" r="2.5" fill="white" opacity="0.20"/>
    <circle cx="389" cy="502" r="7.5" fill="white" opacity="0.012"/>
    <circle cx="533" cy="371" r="1.2" fill="white" opacity="0.07"/>
    <circle cx="80" cy="710" r="2.4" fill="white" opacity="0.28"/>
    <circle cx="80" cy="710" r="7.4" fill="white" opacity="0.017"/>
    <circle cx="706" cy="380" r="2.8" fill="white" opacity="0.28"/>
    <circle cx="706" cy="380" r="7.8" fill="white" opacity="0.017"/>
    <circle cx="163" cy="40" r="2.2" fill="white" opacity="0.08"/>
    <circle cx="163" cy="40" r="7.2" fill="white" opacity="0.005"/>
    <circle cx="290" cy="457" r="2.7" fill="white" opacity="0.43"/>
    <circle cx="290" cy="457" r="7.7" fill="white" opacity="0.026"/>
    <circle cx="385" cy="169" r="2.2" fill="white" opacity="0.09"/>
    <circle cx="385" cy="169" r="7.2" fill="white" opacity="0.005"/>
    <circle cx="763" cy="736" r="1.3" fill="white" opacity="0.17"/>
    <circle cx="58" cy="807" r="1.1" fill="white" opacity="0.07"/>
    <circle cx="393" cy="797" r="1.1" fill="white" opacity="0.13"/>
    <circle cx="411" cy="280" r="0.8" fill="white" opacity="0.40"/>
    <circle cx="791" cy="413" r="2.5" fill="white" opacity="0.41"/>
    <circle cx="791" cy="413" r="7.5" fill="white" opacity="0.025"/>
    <circle cx="430" cy="581" r="1.4" fill="white" opacity="0.48"/>
    <circle cx="674" cy="111" r="2.3" fill="white" opacity="0.20"/>
    <circle cx="674" cy="111" r="7.3" fill="white" opacity="0.012"/>
    <circle cx="44" cy="251" r="2.0" fill="white" opacity="0.27"/>
    <circle cx="484" cy="156" r="0.7" fill="white" opacity="0.34"/>
    <circle cx="645" cy="267" r="2.6" fill="white" opacity="0.21"/>
    <circle cx="645" cy="267" r="7.6" fill="white" opacity="0.013"/>
    <circle cx="538" cy="549" r="0.7" fill="white" opacity="0.40"/>
  </g>
  <g id="grain" opacity="0.28">
    <circle cx="794" cy="482" r="0.17" fill="white" opacity="0.09"/>
    <circle cx="173" cy="157" r="0.73" fill="white" opacity="0.09"/>
    <circle cx="194" cy="706" r="0.36" fill="white" opacity="0.03"/>
    <circle cx="621" cy="31" r="0.51" fill="white" opacity="0.08"/>
    <circle cx="123" cy="453" r="0.72" fill="white" opacity="0.09"/>
    <circle cx="214" cy="313" r="0.26" fill="white" opacity="0.06"/>
    <circle cx="429" cy="461" r="0.47" fill="white" opacity="0.07"/>
    <circle cx="5" cy="644" r="0.17" fill="white" opacity="0.05"/>
    <circle cx="542" cy="432" r="0.49" fill="white" opacity="0.09"/>
    <circle cx="192" cy="355" r="0.42" fill="white" opacity="0.08"/>
    <circle cx="221" cy="250" r="0.72" fill="white" opacity="0.06"/>
    <circle cx="408" cy="781" r="0.25" fill="white" opacity="0.04"/>
    <circle cx="406" cy="300" r="0.46" fill="white" opacity="0.05"/>
    <circle cx="205" cy="26" r="0.73" fill="white" opacity="0.05"/>
    <circle cx="665" cy="76" r="0.60" fill="white" opacity="0.04"/>
    <circle cx="446" cy="48" r="0.41" fill="white" opacity="0.07"/>
    <circle cx="494" cy="377" r="0.40" fill="white" opacity="0.07"/>
    <circle cx="660" cy="398" r="0.60" fill="white" opacity="0.08"/>
    <circle cx="355" cy="487" r="0.57" fill="white" opacity="0.03"/>
    <circle cx="719" cy="487" r="0.58" fill="white" opacity="0.06"/>
    <circle cx="270" cy="690" r="0.19" fill="white" opacity="0.06"/>
    <circle cx="175" cy="221" r="0.64" fill="white" opacity="0.08"/>
    <circle cx="91" cy="15" r="0.66" fill="white" opacity="0.07"/>
    <circle cx="138" cy="744" r="0.45" fill="white" opacity="0.05"/>
    <circle cx="691" cy="798" r="0.18" fill="white" opacity="0.03"/>
    <circle cx="8" cy="800" r="0.40" fill="white" opacity="0.04"/>
    <circle cx="691" cy="333" r="0.20" fill="white" opacity="0.04"/>
    <circle cx="720" cy="107" r="0.25" fill="white" opacity="0.07"/>
    <circle cx="182" cy="448" r="0.59" fill="white" opacity="0.03"/>
    <circle cx="318" cy="583" r="0.16" fill="white" opacity="0.06"/>
    <circle cx="263" cy="70" r="0.34" fill="white" opacity="0.05"/>
    <circle cx="754" cy="650" r="0.71" fill="white" opacity="0.06"/>
    <circle cx="645" cy="653" r="0.20" fill="white" opacity="0.05"/>
    <circle cx="323" cy="488" r="0.61" fill="white" opacity="0.07"/>
    <circle cx="227" cy="394" r="0.45" fill="white" opacity="0.06"/>
    <circle cx="400" cy="467" r="0.38" fill="white" opacity="0.07"/>
    <circle cx="200" cy="629" r="0.20" fill="white" opacity="0.07"/>
    <circle cx="149" cy="584" r="0.71" fill="white" opacity="0.07"/>
    <circle cx="79" cy="42" r="0.57" fill="white" opacity="0.06"/>
    <circle cx="402" cy="755" r="0.71" fill="white" opacity="0.04"/>
    <circle cx="104" cy="342" r="0.58" fill="white" opacity="0.02"/>
    <circle cx="717" cy="689" r="0.72" fill="white" opacity="0.08"/>
    <circle cx="738" cy="722" r="0.22" fill="white" opacity="0.08"/>
    <circle cx="264" cy="208" r="0.28" fill="white" opacity="0.02"/>
    <circle cx="702" cy="298" r="0.63" fill="white" opacity="0.06"/>
    <circle cx="411" cy="427" r="0.31" fill="white" opacity="0.04"/>
    <circle cx="672" cy="721" r="0.17" fill="white" opacity="0.02"/>
    <circle cx="773" cy="6" r="0.17" fill="white" opacity="0.07"/>
    <circle cx="749" cy="681" r="0.15" fill="white" opacity="0.03"/>
    <circle cx="296" cy="445" r="0.20" fill="white" opacity="0.03"/>
    <circle cx="511" cy="199" r="0.55" fill="white" opacity="0.07"/>
    <circle cx="374" cy="639" r="0.70" fill="white" opacity="0.05"/>
    <circle cx="456" cy="75" r="0.46" fill="white" opacity="0.04"/>
    <circle cx="699" cy="344" r="0.19" fill="white" opacity="0.09"/>
    <circle cx="185" cy="416" r="0.53" fill="white" opacity="0.03"/>
    <circle cx="354" cy="708" r="0.18" fill="white" opacity="0.08"/>
    <circle cx="173" cy="498" r="0.37" fill="white" opacity="0.07"/>
    <circle cx="514" cy="243" r="0.26" fill="white" opacity="0.08"/>
    <circle cx="750" cy="78" r="0.44" fill="white" opacity="0.08"/>
    <circle cx="514" cy="358" r="0.27" fill="white" opacity="0.08"/>
    <circle cx="725" cy="424" r="0.22" fill="white" opacity="0.06"/>
    <circle cx="461" cy="681" r="0.39" fill="white" opacity="0.04"/>
    <circle cx="250" cy="406" r="0.15" fill="white" opacity="0.04"/>
    <circle cx="722" cy="138" r="0.73" fill="white" opacity="0.08"/>
    <circle cx="447" cy="339" r="0.64" fill="white" opacity="0.06"/>
    <circle cx="517" cy="703" r="0.23" fill="white" opacity="0.07"/>
    <circle cx="759" cy="446" r="0.19" fill="white" opacity="0.08"/>
    <circle cx="658" cy="748" r="0.67" fill="white" opacity="0.06"/>
    <circle cx="428" cy="221" r="0.75" fill="white" opacity="0.03"/>
    <circle cx="122" cy="88" r="0.59" fill="white" opacity="0.02"/>
  </g>
  <g id="focal">
    <circle cx="416" cy="390" r="168" fill="#ce704a" opacity="0.060" filter="url(#blur-h)"/>
    <circle cx="416" cy="390" r="84" fill="#ce704a" opacity="0.090" filter="url(#s-glow)"/>
    <line x1="416" y1="390" x2="499" y2="399" stroke="white" stroke-width="1.0" opacity="0.13"/>
    <line x1="416" y1="390" x2="424" y2="521" stroke="white" stroke-width="1.0" opacity="0.13"/>
    <line x1="416" y1="390" x2="350" y2="437" stroke="white" stroke-width="1.0" opacity="0.13"/>
    <line x1="416" y1="390" x2="373" y2="333" stroke="white" stroke-width="1.0" opacity="0.13"/>
    <line x1="416" y1="390" x2="453" y2="331" stroke="white" stroke-width="1.0" opacity="0.13"/>
    <circle cx="416" cy="390" r="18" fill="white" opacity="0.18"><animate attributeName="r" values="18;21;18" dur="5.4s" repeatCount="indefinite"/></circle>
    <circle cx="416" cy="390" r="6.8" fill="white" opacity="0.65"/>
  </g>
  <rect width="800" height="800" fill="url(#vig)"/>
</svg>