<svg viewBox="0 0 800 800" xmlns="http://www.w3.org/2000/svg">
  <defs>
    <filter id="glow"><feGaussianBlur stdDeviation="5" result="b"/><feMerge><feMergeNode in="b"/><feMergeNode in="SourceGraphic"/></feMerge></filter>
    <filter id="s-glow"><feGaussianBlur stdDeviation="12" result="b"/><feMerge><feMergeNode in="b"/><feMergeNode in="SourceGraphic"/></feMerge></filter>
    <filter id="blur-h"><feGaussianBlur stdDeviation="22"/></filter>
    <radialGradient id="vig" cx="50%" cy="50%" r="60%">
      <stop offset="0%" stop-color="black" stop-opacity="0"/>
      <stop offset="100%" stop-color="black" stop-opacity="0.30"/>
    </radialGradient>
  </defs>
  <rect width="800" height="800" fill="#131110"/>
  <defs>
    <radialGradient id="bg8036a" cx="55%" cy="51%" r="75%">
      <stop offset="0%" stop-color="#362e25"/>
      <stop offset="100%" stop-color="#131110"/>
    </radialGradient>
    <radialGradient id="bg8036b" cx="65%" cy="61%" r="50%">
      <stop offset="0%" stop-color="#221e1b" stop-opacity=".7"/>
      <stop offset="100%" stop-color="#131110" stop-opacity="0"/>
    </radialGradient>
    <filter id="noise8036">
      <feTurbulence type="fractalNoise" baseFrequency="0.0039" numOctaves="4" seed="202"/>
      <feColorMatrix type="saturate" values="0"/>
      <feComponentTransfer><feFuncA type="linear" slope="0.040"/></feComponentTransfer>
      <feBlend in="SourceGraphic" mode="screen"/>
    </filter>
  </defs>
  <rect width="800" height="800" fill="url(#bg8036a)"/>
  <rect width="800" height="800" fill="url(#bg8036b)"/>
  <rect width="800" height="800" filter="url(#noise8036)" opacity=".4"/>
  <g id="atmosphere">
  <circle cx="437" cy="411" r="320" fill="#ce8e4a" opacity="0.100" filter="url(#blur-h)"/>
  <circle cx="87" cy="-56" r="315" fill="#40bd8a" opacity="0.039" filter="url(#blur-h)"/>
  <circle cx="843" cy="251" r="320" fill="#a542c2" opacity="0.038" filter="url(#blur-h)"/>
  <circle cx="112" cy="760" r="149" fill="#7f46c3" opacity="0.079" filter="url(#blur-h)"/>
  <circle cx="603" cy="18" r="182" fill="#41bea0" opacity="0.035" filter="url(#blur-h)"/>
  <circle cx="-53" cy="309" r="375" fill="#7a45c3" opacity="0.057" filter="url(#blur-h)"/>
  </g>
  <g id="back">
    <circle cx="129" cy="359" r="202" fill="#763bba" opacity="0.053" filter="url(#blur-h)"/>
    <circle cx="92" cy="601" r="107" fill="#cb8e3f" opacity="0.068" filter="url(#blur-h)"/>
    <circle cx="599" cy="623" r="123" fill="#7b3dc0" opacity="0.084" filter="url(#blur-h)"/>
    <circle cx="420" cy="595" r="95" fill="#3aa967" opacity="0.060" filter="url(#blur-h)"/>
    <circle cx="381" cy="549" r="102" fill="#46bf8f" opacity="0.103" filter="url(#blur-h)"/>
    <circle cx="254" cy="191" r="91" fill="#863bba" opacity="0.120" filter="url(#blur-h)"/>
    <circle cx="254" cy="205" r="50" fill="#9a44c3" opacity="0.061" filter="url(#blur-h)"/>
    <circle cx="748" cy="572" r="89" fill="#3eb689" opacity="0.094" filter="url(#blur-h)"/>
    <circle cx="452" cy="185" r="94" fill="#633ec1" opacity="0.064" filter="url(#blur-h)"/>
    <circle cx="452" cy="185" r="94" fill="none" stroke="#633ec1" stroke-width="1.0" opacity="0.115"/>
    <circle cx="161" cy="412" r="57" fill="#cf8c50" opacity="0.055" filter="url(#blur-h)"/>
    <circle cx="161" cy="412" r="57" fill="none" stroke="#cf8c50" stroke-width="1.0" opacity="0.098"/>
    <circle cx="283" cy="-25" r="70" fill="#8454c8" opacity="0.049" filter="url(#blur-h)"/>
    <circle cx="283" cy="-25" r="70" fill="none" stroke="#8454c8" stroke-width="0.9" opacity="0.087"/>
    <circle cx="414" cy="489" r="30" fill="#50c396" opacity="0.039" filter="url(#blur-h)"/>
    <circle cx="414" cy="489" r="30" fill="none" stroke="#50c396" stroke-width="0.5" opacity="0.071"/>
    <circle cx="832" cy="54" r="78" fill="#c87e37" opacity="0.079" filter="url(#blur-h)"/>
    <circle cx="832" cy="54" r="78" fill="none" stroke="#c87e37" stroke-width="0.6" opacity="0.142"/>
    <circle cx="437" cy="845" r="55" fill="#3fb86b" opacity="0.065" filter="url(#blur-h)"/>
    <circle cx="437" cy="845" r="55" fill="none" stroke="#3fb86b" stroke-width="0.8" opacity="0.116"/>
    <circle cx="320" cy="634" r="38" fill="#40bb78" opacity="0.029" filter="url(#blur-h)"/>
    <circle cx="320" cy="634" r="38" fill="none" stroke="#40bb78" stroke-width="0.9" opacity="0.051"/>
    <circle cx="-16" cy="70" r="26" fill="#39a95c" opacity="0.037" filter="url(#blur-h)"/>
    <circle cx="-16" cy="70" r="26" fill="none" stroke="#39a95c" stroke-width="0.5" opacity="0.067"/>
    <circle cx="29" cy="532" r="82" fill="#c9683b" opacity="0.061" filter="url(#blur-h)"/>
    <circle cx="29" cy="532" r="82" fill="none" stroke="#c9683b" stroke-width="1.0" opacity="0.110"/>
    <circle cx="255" cy="73" r="80" fill="#923dbf" opacity="0.103" filter="url(#blur-h)"/>
    <circle cx="255" cy="73" r="80" fill="none" stroke="#923dbf" stroke-width="0.9" opacity="0.186"/>
    <circle cx="360" cy="792" r="47" fill="#8455c8" opacity="0.084" filter="url(#blur-h)"/>
    <circle cx="360" cy="792" r="47" fill="none" stroke="#8455c8" stroke-width="0.8" opacity="0.151"/>
    <circle cx="451" cy="184" r="88" fill="#a342c2" opacity="0.044" filter="url(#blur-h)"/>
    <circle cx="451" cy="184" r="88" fill="none" stroke="#a342c2" stroke-width="0.7" opacity="0.080"/>
    <circle cx="44" cy="637" r="46" fill="#3cb278" opacity="0.055" filter="url(#blur-h)"/>
    <circle cx="44" cy="637" r="46" fill="none" stroke="#3cb278" stroke-width="0.9" opacity="0.099"/>
    <circle cx="332" cy="271" r="39" fill="#7543c2" opacity="0.064" filter="url(#blur-h)"/>
    <circle cx="332" cy="271" r="39" fill="none" stroke="#7543c2" stroke-width="0.4" opacity="0.114"/>
  </g>
  <g id="nebula" opacity="0.59">
    <circle cx="50" cy="552" r="100" fill="#9753c7" opacity="0.071" filter="url(#blur-h)"/>
    <circle cx="290" cy="99" r="206" fill="#3fb96f" opacity="0.047" filter="url(#blur-h)"/>
    <circle cx="690" cy="451" r="126" fill="#9157c9" opacity="0.097" filter="url(#blur-h)"/>
    <circle cx="163" cy="51" r="191" fill="#3aac65" opacity="0.100" filter="url(#blur-h)"/>
    <circle cx="235" cy="723" r="204" fill="#50c38a" opacity="0.071" filter="url(#blur-h)"/>
    <circle cx="155" cy="205" r="138" fill="#9458c9" opacity="0.080" filter="url(#blur-h)"/>
  </g>
  <g id="curves" opacity="0.46">
    <path d="M-6.9,189.1 Q517.7,615.4 523.6,435.3 Q529.5,255.2 478.0,224.9 Q426.6,194.6 418.9,265.7 Q411.2,336.8 617.8,485.2 L824.4,633.6" stroke="#753dc0" stroke-width="1.2" fill="none" opacity="0.11"/>
    <path d="M-29.4,177.2 Q441.2,815.0 526.9,704.4 Q612.6,593.8 718.5,673.3 L824.5,752.8" stroke="#3eb581" stroke-width="0.9" fill="none" opacity="0.06"/>
    <path d="M-28.3,356.2 Q596.0,441.5 462.6,347.4 Q329.2,253.3 423.9,123.6 Q518.6,-6.2 318.5,84.7 Q118.5,175.7 469.1,297.2 L819.8,418.7" stroke="#4ec27c" stroke-width="0.9" fill="none" opacity="0.17"/>
    <path d="M-26.3,286.8 Q98.4,703.2 194.4,550.3 Q290.3,397.5 370.2,288.5 Q450.2,179.5 639.8,485.5 L829.5,791.5" stroke="#3caf6b" stroke-width="1.8" fill="none" opacity="0.06"/>
    <path d="M-21.6,8.1 Q581.6,444.1 380.3,427.5 Q179.1,411.0 492.4,226.0 L805.6,41.0" stroke="#48c091" stroke-width="3.1" fill="none" opacity="0.12"/>
    <path d="M-33.8,405.4 Q436.4,440.8 328.7,437.4 Q221.0,433.9 526.7,356.2 L832.4,278.4" stroke="#3db479" stroke-width="0.5" fill="none" opacity="0.11"/>
    <path d="M-16.2,818.8 Q233.1,694.6 300.0,549.5 Q366.9,404.4 325.9,300.9 Q284.9,197.5 366.9,452.2 Q448.8,707.0 632.9,458.6 L817.0,210.3" stroke="#ca923e" stroke-width="1.6" fill="none" opacity="0.17"/>
    <path d="M-15.9,626.9 Q232.3,689.0 214.5,506.9 Q196.8,324.8 333.0,554.9 Q469.2,785.0 520.8,484.7 Q572.5,184.4 376.4,383.4 Q180.4,582.4 491.1,393.7 L801.7,204.9" stroke="#40bc80" stroke-width="2.2" fill="none" opacity="0.16"/>
    <path d="M-4.0,313.7 Q210.8,223.3 306.2,117.7 Q401.6,12.1 388.1,191.8 Q374.6,371.6 321.5,422.7 Q268.4,473.8 548.3,485.4 L828.2,497.1" stroke="#48c07a" stroke-width="3.1" fill="none" opacity="0.06"/>
    <path d="M-14.9,643.7 Q309.2,508.7 197.2,617.2 Q85.3,725.7 453.6,451.6 L821.8,177.5" stroke="#47c09a" stroke-width="0.8" fill="none" opacity="0.15"/>
  </g>
  <g id="constellation" opacity="0.37">
    <line x1="308" y1="112" x2="409" y2="157" stroke="#8847c4" stroke-width="0.6" opacity="0.042"/>
    <line x1="308" y1="112" x2="303" y2="238" stroke="#8847c4" stroke-width="0.6" opacity="0.030"/>
    <line x1="439" y1="213" x2="510" y2="79" stroke="#8847c4" stroke-width="0.6" opacity="0.031"/>
    <line x1="439" y1="213" x2="286" y2="188" stroke="#8847c4" stroke-width="0.6" opacity="0.032"/>
    <line x1="409" y1="157" x2="303" y2="238" stroke="#8847c4" stroke-width="0.6" opacity="0.032"/>
    <line x1="409" y1="157" x2="400" y2="142" stroke="#8847c4" stroke-width="0.6" opacity="0.123"/>
    <line x1="409" y1="157" x2="286" y2="188" stroke="#8847c4" stroke-width="0.6" opacity="0.031"/>
    <line x1="377" y1="281" x2="400" y2="142" stroke="#8847c4" stroke-width="0.6" opacity="0.033"/>
    <line x1="377" y1="281" x2="505" y2="215" stroke="#8847c4" stroke-width="0.6" opacity="0.034"/>
    <line x1="510" y1="79" x2="526" y2="189" stroke="#8847c4" stroke-width="0.6" opacity="0.041"/>
    <line x1="510" y1="79" x2="400" y2="142" stroke="#8847c4" stroke-width="0.6" opacity="0.029"/>
    <line x1="510" y1="79" x2="559" y2="186" stroke="#8847c4" stroke-width="0.6" opacity="0.035"/>
    <line x1="220" y1="276" x2="227" y2="309" stroke="#8847c4" stroke-width="0.6" opacity="0.111"/>
    <line x1="220" y1="276" x2="286" y2="188" stroke="#8847c4" stroke-width="0.6" opacity="0.044"/>
    <line x1="220" y1="276" x2="217" y2="312" stroke="#8847c4" stroke-width="0.6" opacity="0.108"/>
    <line x1="303" y1="238" x2="389" y2="316" stroke="#8847c4" stroke-width="0.6" opacity="0.041"/>
    <line x1="303" y1="238" x2="227" y2="309" stroke="#8847c4" stroke-width="0.6" opacity="0.051"/>
    <line x1="303" y1="238" x2="337" y2="390" stroke="#8847c4" stroke-width="0.6" opacity="0.035"/>
    <line x1="303" y1="238" x2="263" y2="383" stroke="#8847c4" stroke-width="0.6" opacity="0.033"/>
    <line x1="389" y1="316" x2="324" y2="307" stroke="#8847c4" stroke-width="0.6" opacity="0.095"/>
    <line x1="526" y1="189" x2="518" y2="129" stroke="#8847c4" stroke-width="0.6" opacity="0.086"/>
    <line x1="400" y1="142" x2="505" y2="215" stroke="#8847c4" stroke-width="0.6" opacity="0.032"/>
    <line x1="400" y1="142" x2="400" y2="125" stroke="#8847c4" stroke-width="0.6" opacity="0.121"/>
    <line x1="664" y1="26" x2="666" y2="46" stroke="#8847c4" stroke-width="0.6" opacity="0.096"/>
    <line x1="151" y1="350" x2="263" y2="383" stroke="#8847c4" stroke-width="0.6" opacity="0.039"/>
    <line x1="227" y1="309" x2="337" y2="390" stroke="#8847c4" stroke-width="0.6" opacity="0.034"/>
    <line x1="337" y1="390" x2="263" y2="383" stroke="#8847c4" stroke-width="0.6" opacity="0.085"/>
    <line x1="337" y1="390" x2="324" y2="307" stroke="#8847c4" stroke-width="0.6" opacity="0.076"/>
    <line x1="627" y1="548" x2="529" y2="619" stroke="#8847c4" stroke-width="0.6" opacity="0.035"/>
    <line x1="627" y1="548" x2="680" y2="457" stroke="#8847c4" stroke-width="0.6" opacity="0.049"/>
    <line x1="770" y1="494" x2="812" y2="479" stroke="#8847c4" stroke-width="0.6" opacity="0.089"/>
    <circle cx="308" cy="112" r="2.5" fill="white" opacity="0.38"/>
    <circle cx="308" cy="112" r="8.5" fill="#c9753a" opacity="0.046"/>
    <circle cx="439" cy="213" r="2.1" fill="white" opacity="0.30"/>
    <circle cx="409" cy="157" r="2.2" fill="white" opacity="0.32"/>
    <circle cx="377" cy="281" r="3.9" fill="white" opacity="0.66"/>
    <circle cx="377" cy="281" r="9.9" fill="#ce8e4a" opacity="0.080"/>
    <circle cx="510" cy="79" r="3.3" fill="white" opacity="0.53"/>
    <circle cx="510" cy="79" r="9.3" fill="#cb7840" opacity="0.064"/>
    <circle cx="220" cy="276" r="3.7" fill="white" opacity="0.63"/>
    <circle cx="220" cy="276" r="9.7" fill="#ce8e4a" opacity="0.076"/>
    <circle cx="470" cy="376" r="2.5" fill="white" opacity="0.37"/>
    <circle cx="303" cy="238" r="2.3" fill="white" opacity="0.34"/>
    <circle cx="389" cy="316" r="4.2" fill="white" opacity="0.75"/>
    <circle cx="389" cy="316" r="10.2" fill="#ce8e4a" opacity="0.090"/>
    <circle cx="526" cy="189" r="2.3" fill="white" opacity="0.35"/>
    <circle cx="400" cy="142" r="3.2" fill="white" opacity="0.53"/>
    <circle cx="400" cy="142" r="9.2" fill="#ce8e4a" opacity="0.064"/>
    <circle cx="664" cy="26" r="1.4" fill="white" opacity="0.16"/>
    <circle cx="559" cy="186" r="1.9" fill="white" opacity="0.25"/>
    <circle cx="518" cy="129" r="1.4" fill="white" opacity="0.15"/>
    <circle cx="666" cy="46" r="1.2" fill="white" opacity="0.12"/>
    <circle cx="729" cy="51" r="2.1" fill="white" opacity="0.29"/>
    <circle cx="729" cy="51" r="8.1" fill="#ce8e4a" opacity="0.035"/>
    <circle cx="505" cy="215" r="3.5" fill="white" opacity="0.58"/>
    <circle cx="505" cy="215" r="9.5" fill="#ce8e4a" opacity="0.069"/>
    <circle cx="400" cy="125" r="1.7" fill="white" opacity="0.21"/>
    <circle cx="299" cy="501" r="2.2" fill="white" opacity="0.31"/>
    <circle cx="151" cy="350" r="3.3" fill="white" opacity="0.53"/>
    <circle cx="151" cy="350" r="9.3" fill="#ce8e4a" opacity="0.064"/>
    <circle cx="227" cy="309" r="2.6" fill="white" opacity="0.41"/>
    <circle cx="227" cy="309" r="8.6" fill="#ce8d4b" opacity="0.049"/>
    <circle cx="286" cy="188" r="3.2" fill="white" opacity="0.52"/>
    <circle cx="286" cy="188" r="9.2" fill="#ce8e4a" opacity="0.063"/>
    <circle cx="337" cy="390" r="3.6" fill="white" opacity="0.61"/>
    <circle cx="337" cy="390" r="9.6" fill="#d09253" opacity="0.073"/>
    <circle cx="126" cy="244" r="2.0" fill="white" opacity="0.27"/>
    <circle cx="217" cy="312" r="3.4" fill="white" opacity="0.57"/>
    <circle cx="217" cy="312" r="9.4" fill="#ca773c" opacity="0.068"/>
    <circle cx="263" cy="383" r="2.6" fill="white" opacity="0.40"/>
    <circle cx="263" cy="383" r="8.6" fill="#ce8e4a" opacity="0.048"/>
    <circle cx="324" cy="307" r="3.3" fill="white" opacity="0.54"/>
    <circle cx="324" cy="307" r="9.3" fill="#d09051" opacity="0.065"/>
    <circle cx="627" cy="548" r="3.2" fill="white" opacity="0.52"/>
    <circle cx="627" cy="548" r="9.2" fill="#cd9448" opacity="0.063"/>
    <circle cx="770" cy="494" r="3.2" fill="white" opacity="0.51"/>
    <circle cx="770" cy="494" r="9.2" fill="#d08a53" opacity="0.061"/>
    <circle cx="641" cy="696" r="1.8" fill="white" opacity="0.24"/>
    <circle cx="789" cy="554" r="1.9" fill="white" opacity="0.26"/>
    <circle cx="761" cy="575" r="2.0" fill="white" opacity="0.27"/>
    <circle cx="529" cy="619" r="3.8" fill="white" opacity="0.65"/>
    <circle cx="529" cy="619" r="9.8" fill="#cd8a46" opacity="0.078"/>
    <circle cx="665" cy="423" r="1.6" fill="white" opacity="0.19"/>
    <circle cx="812" cy="479" r="1.3" fill="white" opacity="0.13"/>
    <circle cx="680" cy="457" r="2.9" fill="white" opacity="0.45"/>
    <circle cx="680" cy="457" r="8.9" fill="#d28a58" opacity="0.055"/>
  </g>
  <g id="bokeh-fg" opacity="0.35">
    <circle cx="463" cy="242" r="88" fill="#613ab7" opacity="0.043" filter="url(#blur-h)"/>
    <circle cx="463" cy="242" r="88" fill="none" stroke="#613ab7" stroke-width="0.6" opacity="0.077"/>
    <circle cx="533" cy="228" r="38" fill="#cca343" opacity="0.032" filter="url(#blur-h)"/>
    <circle cx="533" cy="228" r="38" fill="none" stroke="#cca343" stroke-width="0.6" opacity="0.058"/>
    <circle cx="320" cy="765" r="32" fill="#d0a651" opacity="0.082" filter="url(#blur-h)"/>
    <circle cx="320" cy="765" r="32" fill="none" stroke="#d0a651" stroke-width="0.8" opacity="0.148"/>
    <circle cx="625" cy="331" r="61" fill="#d3b35d" opacity="0.055" filter="url(#blur-h)"/>
    <circle cx="625" cy="331" r="61" fill="none" stroke="#d3b35d" stroke-width="1.0" opacity="0.098"/>
    <circle cx="231" cy="176" r="61" fill="#8a3fc1" opacity="0.051" filter="url(#blur-h)"/>
    <circle cx="231" cy="176" r="61" fill="none" stroke="#8a3fc1" stroke-width="0.6" opacity="0.091"/>
    <circle cx="430" cy="597" r="51" fill="#c98a3a" opacity="0.049" filter="url(#blur-h)"/>
    <circle cx="430" cy="597" r="51" fill="none" stroke="#c98a3a" stroke-width="0.7" opacity="0.089"/>
    <circle cx="143" cy="350" r="69" fill="#45bf8d" opacity="0.053" filter="url(#blur-h)"/>
    <circle cx="143" cy="350" r="69" fill="none" stroke="#45bf8d" stroke-width="0.5" opacity="0.096"/>
    <circle cx="607" cy="467" r="49" fill="#733bb8" opacity="0.067" filter="url(#blur-h)"/>
    <circle cx="607" cy="467" r="49" fill="none" stroke="#733bb8" stroke-width="0.9" opacity="0.120"/>
    <circle cx="203" cy="161" r="61" fill="#3fba72" opacity="0.080" filter="url(#blur-h)"/>
    <circle cx="203" cy="161" r="61" fill="none" stroke="#3fba72" stroke-width="0.9" opacity="0.144"/>
    <circle cx="308" cy="726" r="63" fill="#cd9847" opacity="0.072" filter="url(#blur-h)"/>
    <circle cx="308" cy="726" r="63" fill="none" stroke="#cd9847" stroke-width="1.0" opacity="0.129"/>
    <circle cx="657" cy="20" r="46" fill="#cf7a4e" opacity="0.082" filter="url(#blur-h)"/>
    <circle cx="657" cy="20" r="46" fill="none" stroke="#cf7a4e" stroke-width="0.5" opacity="0.148"/>
    <circle cx="437" cy="609" r="34" fill="#3eb585" opacity="0.053" filter="url(#blur-h)"/>
    <circle cx="437" cy="609" r="34" fill="none" stroke="#3eb585" stroke-width="0.5" opacity="0.095"/>
  </g>
  <g id="volumetric" opacity="0.62">
    <ellipse cx="486" cy="411" rx="122" ry="61" fill="#d3975c" opacity="0.029" transform="rotate(23 486 411)" filter="url(#blur-h)"/>
    <ellipse cx="346" cy="378" rx="242" ry="119" fill="#ca973b" opacity="0.043" transform="rotate(19 346 378)" filter="url(#blur-h)"/>
    <ellipse cx="480" cy="416" rx="108" ry="79" fill="#cd8349" opacity="0.020" transform="rotate(7 480 416)" filter="url(#blur-h)"/>
    <ellipse cx="440" cy="383" rx="71" ry="57" fill="#cfa74e" opacity="0.044" transform="rotate(-3 440 383)" filter="url(#blur-h)"/>
  </g>
  <g id="stars">
    <circle cx="694" cy="-8" r="2.0" fill="white" opacity="0.34"/>
    <circle cx="694" cy="-8" r="7.0" fill="white" opacity="0.021"/>
    <circle cx="182" cy="757" r="1.7" fill="white" opacity="0.18"/>
    <circle cx="174" cy="505" r="1.6" fill="white" opacity="0.42"/>
    <circle cx="474" cy="138" r="1.6" fill="white" opacity="0.24"/>
    <circle cx="340" cy="646" r="0.4" fill="white" opacity="0.48"/>
    <circle cx="187" cy="407" r="1.3" fill="white" opacity="0.34"/>
    <circle cx="807" cy="285" r="2.3" fill="white" opacity="0.38"/>
    <circle cx="807" cy="285" r="7.3" fill="white" opacity="0.023"/>
    <circle cx="50" cy="476" r="2.1" fill="white" opacity="0.39"/>
    <circle cx="50" cy="476" r="7.1" fill="white" opacity="0.024"/>
    <circle cx="93" cy="274" r="2.2" fill="white" opacity="0.10"/>
    <circle cx="93" cy="274" r="7.2" fill="white" opacity="0.006"/>
    <circle cx="237" cy="9" r="0.4" fill="white" opacity="0.30"/>
    <circle cx="470" cy="783" r="1.6" fill="white" opacity="0.16"/>
    <circle cx="791" cy="17" r="1.2" fill="white" opacity="0.33"/>
    <circle cx="471" cy="55" r="1.6" fill="white" opacity="0.17"/>
    <circle cx="671" cy="254" r="0.5" fill="white" opacity="0.18"/>
    <circle cx="797" cy="576" r="2.3" fill="white" opacity="0.12"/>
    <circle cx="797" cy="576" r="7.3" fill="white" opacity="0.007"/>
    <circle cx="741" cy="695" r="1.7" fill="white" opacity="0.24"/>
    <circle cx="73" cy="667" r="1.5" fill="white" opacity="0.27"/>
    <circle cx="47" cy="367" r="2.1" fill="white" opacity="0.15"/>
    <circle cx="47" cy="367" r="7.1" fill="white" opacity="0.009"/>
    <circle cx="299" cy="749" r="0.6" fill="white" opacity="0.33"/>
    <circle cx="441" cy="728" r="2.3" fill="white" opacity="0.26"/>
    <circle cx="441" cy="728" r="7.3" fill="white" opacity="0.015"/>
    <circle cx="51" cy="703" r="2.3" fill="white" opacity="0.30"/>
    <circle cx="51" cy="703" r="7.3" fill="white" opacity="0.018"/>
    <circle cx="25" cy="629" r="0.9" fill="white" opacity="0.14"/>
    <circle cx="238" cy="36" r="0.8" fill="white" opacity="0.22"/>
    <circle cx="377" cy="316" r="3.0" fill="white" opacity="0.40"/>
    <circle cx="377" cy="316" r="8.0" fill="white" opacity="0.024"/>
    <circle cx="508" cy="667" r="1.1" fill="white" opacity="0.22"/>
    <circle cx="30" cy="341" r="0.8" fill="white" opacity="0.33"/>
    <circle cx="456" cy="534" r="1.0" fill="white" opacity="0.32"/>
    <circle cx="745" cy="63" r="1.9" fill="white" opacity="0.20"/>
    <circle cx="348" cy="739" r="0.7" fill="white" opacity="0.14"/>
    <circle cx="440" cy="45" r="0.5" fill="white" opacity="0.31"/>
    <circle cx="89" cy="505" r="1.8" fill="white" opacity="0.24"/>
    <circle cx="666" cy="213" r="1.2" fill="white" opacity="0.39"/>
    <circle cx="96" cy="738" r="2.4" fill="white" opacity="0.36"/>
    <circle cx="96" cy="738" r="7.4" fill="white" opacity="0.021"/>
    <circle cx="506" cy="396" r="2.3" fill="white" opacity="0.15"/>
    <circle cx="506" cy="396" r="7.3" fill="white" opacity="0.009"/>
    <circle cx="539" cy="510" r="2.0" fill="white" opacity="0.51"/>
    <circle cx="310" cy="578" r="1.9" fill="white" opacity="0.10"/>
    <circle cx="638" cy="43" r="0.6" fill="white" opacity="0.35"/>
    <circle cx="620" cy="485" r="0.5" fill="white" opacity="0.08"/>
    <circle cx="770" cy="-8" r="0.5" fill="white" opacity="0.32"/>
    <circle cx="150" cy="731" r="0.5" fill="white" opacity="0.17"/>
    <circle cx="15" cy="125" r="0.9" fill="white" opacity="0.31"/>
    <circle cx="502" cy="790" r="0.9" fill="white" opacity="0.28"/>
    <circle cx="75" cy="502" r="0.3" fill="white" opacity="0.16"/>
    <circle cx="773" cy="125" r="0.5" fill="white" opacity="0.28"/>
    <circle cx="785" cy="291" r="2.1" fill="white" opacity="0.14"/>
    <circle cx="785" cy="291" r="7.1" fill="white" opacity="0.009"/>
    <circle cx="458" cy="563" r="1.3" fill="white" opacity="0.26"/>
    <circle cx="123" cy="-2" r="0.9" fill="white" opacity="0.19"/>
  </g>
  <g id="grain" opacity="0.28">
    <circle cx="395" cy="454" r="0.36" fill="white" opacity="0.07"/>
    <circle cx="641" cy="764" r="0.44" fill="white" opacity="0.08"/>
    <circle cx="638" cy="133" r="0.61" fill="white" opacity="0.09"/>
    <circle cx="375" cy="422" r="0.54" fill="white" opacity="0.07"/>
    <circle cx="276" cy="594" r="0.54" fill="white" opacity="0.06"/>
    <circle cx="285" cy="581" r="0.42" fill="white" opacity="0.03"/>
    <circle cx="500" cy="268" r="0.52" fill="white" opacity="0.05"/>
    <circle cx="428" cy="359" r="0.27" fill="white" opacity="0.05"/>
    <circle cx="738" cy="7" r="0.28" fill="white" opacity="0.06"/>
    <circle cx="132" cy="485" r="0.23" fill="white" opacity="0.05"/>
    <circle cx="747" cy="237" r="0.50" fill="white" opacity="0.02"/>
    <circle cx="364" cy="750" r="0.56" fill="white" opacity="0.07"/>
    <circle cx="702" cy="564" r="0.53" fill="white" opacity="0.06"/>
    <circle cx="136" cy="73" r="0.53" fill="white" opacity="0.04"/>
    <circle cx="579" cy="22" r="0.39" fill="white" opacity="0.04"/>
    <circle cx="709" cy="651" r="0.65" fill="white" opacity="0.04"/>
    <circle cx="11" cy="399" r="0.22" fill="white" opacity="0.09"/>
    <circle cx="509" cy="551" r="0.43" fill="white" opacity="0.03"/>
    <circle cx="144" cy="42" r="0.17" fill="white" opacity="0.04"/>
    <circle cx="188" cy="599" r="0.37" fill="white" opacity="0.07"/>
    <circle cx="228" cy="252" r="0.66" fill="white" opacity="0.03"/>
    <circle cx="552" cy="577" r="0.41" fill="white" opacity="0.08"/>
    <circle cx="438" cy="279" r="0.66" fill="white" opacity="0.07"/>
    <circle cx="67" cy="175" r="0.71" fill="white" opacity="0.06"/>
    <circle cx="745" cy="25" r="0.75" fill="white" opacity="0.04"/>
    <circle cx="269" cy="219" r="0.70" fill="white" opacity="0.07"/>
    <circle cx="490" cy="795" r="0.15" fill="white" opacity="0.07"/>
    <circle cx="798" cy="361" r="0.50" fill="white" opacity="0.02"/>
    <circle cx="76" cy="261" r="0.20" fill="white" opacity="0.03"/>
    <circle cx="665" cy="768" r="0.19" fill="white" opacity="0.02"/>
    <circle cx="446" cy="121" r="0.70" fill="white" opacity="0.07"/>
    <circle cx="763" cy="675" r="0.34" fill="white" opacity="0.05"/>
    <circle cx="492" cy="772" r="0.63" fill="white" opacity="0.07"/>
    <circle cx="108" cy="475" r="0.29" fill="white" opacity="0.03"/>
    <circle cx="43" cy="769" r="0.52" fill="white" opacity="0.07"/>
    <circle cx="588" cy="350" r="0.59" fill="white" opacity="0.08"/>
    <circle cx="753" cy="462" r="0.64" fill="white" opacity="0.06"/>
    <circle cx="121" cy="418" r="0.27" fill="white" opacity="0.09"/>
    <circle cx="357" cy="84" r="0.41" fill="white" opacity="0.09"/>
    <circle cx="229" cy="386" r="0.68" fill="white" opacity="0.08"/>
    <circle cx="732" cy="263" r="0.17" fill="white" opacity="0.04"/>
    <circle cx="362" cy="113" r="0.65" fill="white" opacity="0.04"/>
    <circle cx="213" cy="435" r="0.71" fill="white" opacity="0.03"/>
    <circle cx="467" cy="690" r="0.22" fill="white" opacity="0.09"/>
    <circle cx="27" cy="744" r="0.72" fill="white" opacity="0.08"/>
    <circle cx="145" cy="433" r="0.62" fill="white" opacity="0.07"/>
    <circle cx="300" cy="447" r="0.19" fill="white" opacity="0.04"/>
    <circle cx="409" cy="304" r="0.54" fill="white" opacity="0.08"/>
    <circle cx="696" cy="553" r="0.71" fill="white" opacity="0.03"/>
    <circle cx="328" cy="705" r="0.25" fill="white" opacity="0.05"/>
    <circle cx="618" cy="385" r="0.38" fill="white" opacity="0.08"/>
    <circle cx="288" cy="347" r="0.30" fill="white" opacity="0.06"/>
    <circle cx="279" cy="599" r="0.67" fill="white" opacity="0.04"/>
    <circle cx="227" cy="137" r="0.65" fill="white" opacity="0.08"/>
    <circle cx="688" cy="355" r="0.48" fill="white" opacity="0.03"/>
    <circle cx="148" cy="794" r="0.26" fill="white" opacity="0.07"/>
    <circle cx="730" cy="56" r="0.60" fill="white" opacity="0.08"/>
    <circle cx="38" cy="624" r="0.63" fill="white" opacity="0.04"/>
    <circle cx="566" cy="134" r="0.54" fill="white" opacity="0.05"/>
    <circle cx="386" cy="604" r="0.61" fill="white" opacity="0.06"/>
    <circle cx="635" cy="52" r="0.56" fill="white" opacity="0.04"/>
    <circle cx="661" cy="33" r="0.27" fill="white" opacity="0.08"/>
    <circle cx="281" cy="713" r="0.58" fill="white" opacity="0.08"/>
    <circle cx="275" cy="250" r="0.29" fill="white" opacity="0.04"/>
    <circle cx="568" cy="210" r="0.48" fill="white" opacity="0.04"/>
    <circle cx="704" cy="775" r="0.63" fill="white" opacity="0.09"/>
    <circle cx="595" cy="545" r="0.30" fill="white" opacity="0.06"/>
    <circle cx="718" cy="466" r="0.32" fill="white" opacity="0.04"/>
    <circle cx="685" cy="52" r="0.19" fill="white" opacity="0.06"/>
    <circle cx="644" cy="718" r="0.36" fill="white" opacity="0.05"/>
  </g>
  <g id="focal">
    <circle cx="437" cy="411" r="168" fill="#ce8e4a" opacity="0.060" filter="url(#blur-h)"/>
    <circle cx="437" cy="411" r="84" fill="#ce8e4a" opacity="0.090" filter="url(#s-glow)"/>
    <line x1="437" y1="411" x2="514" y2="433" stroke="white" stroke-width="1.0" opacity="0.13"/>
    <line x1="437" y1="411" x2="467" y2="508" stroke="white" stroke-width="1.0" opacity="0.13"/>
    <line x1="437" y1="411" x2="354" y2="530" stroke="white" stroke-width="1.0" opacity="0.13"/>
    <line x1="437" y1="411" x2="372" y2="406" stroke="white" stroke-width="1.0" opacity="0.13"/>
    <line x1="437" y1="411" x2="402" y2="331" stroke="white" stroke-width="1.0" opacity="0.13"/>
    <line x1="437" y1="411" x2="489" y2="345" stroke="white" stroke-width="1.0" opacity="0.13"/>
    <circle cx="437" cy="411" r="18" fill="white" opacity="0.18"><animate attributeName="r" values="18;21;18" dur="5.4s" repeatCount="indefinite"/></circle>
    <circle cx="437" cy="411" r="6.8" fill="white" opacity="0.65"/>
  </g>
  <rect width="800" height="800" fill="url(#vig)"/>
</svg>