<svg xmlns="http://www.w3.org/2000/svg" viewBox="0 0 800 800" width="800" height="800">
  <defs>
    <radialGradient id="bg-grad" cx="50%" cy="45%" r="75%">
      <stop offset="0%" stop-color="#DDA0DD" stop-opacity="0.85"/>
      <stop offset="35%" stop-color="#9370DB" stop-opacity="0.65"/>
      <stop offset="65%" stop-color="#AA96DA" stop-opacity="0.6"/>
      <stop offset="100%" stop-color="#1A1025" stop-opacity="1"/>
    </radialGradient>
    <filter id="glow"><feGaussianBlur stdDeviation="4" result="b"/>
      <feMerge><feMergeNode in="b"/><feMergeNode in="SourceGraphic"/></feMerge>
    </filter>
    <filter id="soft-glow"><feGaussianBlur stdDeviation="8" result="b"/>
      <feMerge><feMergeNode in="b"/><feMergeNode in="SourceGraphic"/></feMerge>
    </filter>
    <filter id="blur-heavy"><feGaussianBlur stdDeviation="16"/></filter>
  </defs>
  <rect width="800" height="800" fill="url(#bg-grad)"/>
  <g id="constellation" opacity="0.35" filter="url(#glow)">
    <line x1="51" y1="348" x2="135" y2="392" stroke="#00D2FF" stroke-width="0.6" opacity="0.07"/>
    <line x1="537" y1="54" x2="621" y2="98" stroke="#00D2FF" stroke-width="0.6" opacity="0.07"/>
    <line x1="303" y1="480" x2="387" y2="524" stroke="#00D2FF" stroke-width="0.6" opacity="0.07"/>
    <line x1="69" y1="186" x2="153" y2="230" stroke="#00D2FF" stroke-width="0.6" opacity="0.07"/>
    <line x1="555" y1="612" x2="639" y2="656" stroke="#00D2FF" stroke-width="0.6" opacity="0.07"/>
    <line x1="321" y1="318" x2="405" y2="362" stroke="#00D2FF" stroke-width="0.6" opacity="0.07"/>
    <line x1="573" y1="450" x2="657" y2="494" stroke="#00D2FF" stroke-width="0.6" opacity="0.07"/>
    <circle cx="369" cy="686" r="2.3" fill="white" opacity="0.42"/>
    <circle cx="51" cy="348" r="3.1" fill="white" opacity="0.69"/>
    <circle cx="453" cy="730" r="3.9" fill="white" opacity="0.96"/>
    <circle cx="453" cy="730" r="7.9" fill="#00D2FF" opacity="0.14"/>
    <circle cx="135" cy="392" r="2.6" fill="white" opacity="0.54"/>
    <circle cx="537" cy="54" r="3.4" fill="white" opacity="0.81"/>
    <circle cx="537" cy="54" r="7.4" fill="#00D2FF" opacity="0.12"/>
    <circle cx="219" cy="436" r="2.2" fill="white" opacity="0.38"/>
    <circle cx="621" cy="98" r="3.0" fill="white" opacity="0.66"/>
    <circle cx="303" cy="480" r="3.8" fill="white" opacity="0.93"/>
    <circle cx="303" cy="480" r="7.8" fill="#00D2FF" opacity="0.14"/>
    <circle cx="705" cy="142" r="2.5" fill="white" opacity="0.50"/>
    <circle cx="387" cy="524" r="3.3" fill="white" opacity="0.78"/>
    <circle cx="387" cy="524" r="7.3" fill="#00D2FF" opacity="0.12"/>
    <circle cx="69" cy="186" r="2.0" fill="white" opacity="0.35"/>
    <circle cx="471" cy="568" r="2.9" fill="white" opacity="0.62"/>
    <circle cx="153" cy="230" r="3.7" fill="white" opacity="0.90"/>
    <circle cx="153" cy="230" r="7.7" fill="#00D2FF" opacity="0.13"/>
    <circle cx="555" cy="612" r="2.4" fill="white" opacity="0.47"/>
    <circle cx="237" cy="274" r="3.2" fill="white" opacity="0.74"/>
    <circle cx="237" cy="274" r="7.2" fill="#00D2FF" opacity="0.11"/>
    <circle cx="639" cy="656" r="1.9" fill="white" opacity="0.31"/>
    <circle cx="321" cy="318" r="2.8" fill="white" opacity="0.59"/>
    <circle cx="723" cy="700" r="3.6" fill="white" opacity="0.86"/>
    <circle cx="723" cy="700" r="7.6" fill="#00D2FF" opacity="0.13"/>
    <circle cx="405" cy="362" r="2.3" fill="white" opacity="0.43"/>
    <circle cx="87" cy="744" r="3.1" fill="white" opacity="0.71"/>
    <circle cx="87" cy="744" r="7.1" fill="#00D2FF" opacity="0.11"/>
    <circle cx="489" cy="406" r="3.9" fill="white" opacity="0.98"/>
    <circle cx="489" cy="406" r="7.9" fill="#00D2FF" opacity="0.15"/>
    <circle cx="171" cy="68" r="2.7" fill="white" opacity="0.55"/>
    <circle cx="573" cy="450" r="3.5" fill="white" opacity="0.82"/>
    <circle cx="573" cy="450" r="7.5" fill="#00D2FF" opacity="0.12"/>
    <circle cx="255" cy="112" r="2.2" fill="white" opacity="0.40"/>
    <circle cx="657" cy="494" r="3.0" fill="white" opacity="0.67"/>
  </g>

  <g id="neural" filter="url(#glow)">
    <circle cx="389" cy="626" r="2.5" fill="white" opacity="0.40"/>
    <circle cx="135" cy="312" r="2.5" fill="white" opacity="0.40"/>
    <circle cx="561" cy="678" r="2.5" fill="white" opacity="0.40"/>
    <circle cx="307" cy="364" r="2.5" fill="white" opacity="0.40"/>
    <circle cx="733" cy="730" r="2.5" fill="white" opacity="0.40"/>
    <circle cx="479" cy="416" r="2.5" fill="white" opacity="0.40"/>
    <circle cx="225" cy="102" r="2.5" fill="white" opacity="0.40"/>
    <circle cx="651" cy="468" r="2.5" fill="white" opacity="0.40"/>
  </g>
  <g id="core" filter="url(#soft-glow)">
    <circle cx="400" cy="400" r="72" fill="#00D2FF" opacity="0.11"/>
    <circle cx="400" cy="400" r="58" fill="#00D2FF" opacity="0.22"/>
    <circle cx="400" cy="400" r="42" fill="#E6E6FA" opacity="0.55"/>
    <circle cx="400" cy="400" r="15" fill="white" opacity="0.47"/>
  </g>
  <g id="day-rings" opacity="0.12">
    <circle cx="400" cy="400" r="280" fill="none" stroke="white" stroke-width="0.6" stroke-dasharray="3,5"/>
    <circle cx="400" cy="400" r="305" fill="none" stroke="white" stroke-width="0.6" stroke-dasharray="5,8"/>
  </g>
  <defs>
    <radialGradient id="vignette" cx="50%" cy="50%" r="50%">
      <stop offset="55%" stop-color="transparent"/>
      <stop offset="100%" stop-color="black" stop-opacity="0.45"/>
    </radialGradient>
  </defs>
  <rect width="800" height="800" fill="url(#vignette)"/>
</svg>