<svg viewBox="0 0 800 800" xmlns="http://www.w3.org/2000/svg">
  <defs>
    <filter id="glow"><feGaussianBlur stdDeviation="5" result="b"/><feMerge><feMergeNode in="b"/><feMergeNode in="SourceGraphic"/></feMerge></filter>
    <filter id="s-glow"><feGaussianBlur stdDeviation="12" result="b"/><feMerge><feMergeNode in="b"/><feMergeNode in="SourceGraphic"/></feMerge></filter>
    <filter id="blur-h"><feGaussianBlur stdDeviation="22"/></filter>
    <radialGradient id="vig" cx="50%" cy="50%" r="60%">
      <stop offset="0%" stop-color="black" stop-opacity="0"/>
      <stop offset="100%" stop-color="black" stop-opacity="0.30"/>
    </radialGradient>
  </defs>
  <rect width="800" height="800" fill="#131110"/>
  <defs>
    <radialGradient id="bg8120a" cx="55%" cy="52%" r="75%">
      <stop offset="0%" stop-color="#362d25"/>
      <stop offset="100%" stop-color="#131110"/>
    </radialGradient>
    <radialGradient id="bg8120b" cx="42%" cy="64%" r="50%">
      <stop offset="0%" stop-color="#221e1b" stop-opacity=".7"/>
      <stop offset="100%" stop-color="#131110" stop-opacity="0"/>
    </radialGradient>
    <filter id="noise8120">
      <feTurbulence type="fractalNoise" baseFrequency="0.0028" numOctaves="4" seed="85"/>
      <feColorMatrix type="saturate" values="0"/>
      <feComponentTransfer><feFuncA type="linear" slope="0.040"/></feComponentTransfer>
      <feBlend in="SourceGraphic" mode="screen"/>
    </filter>
  </defs>
  <rect width="800" height="800" fill="url(#bg8120a)"/>
  <rect width="800" height="800" fill="url(#bg8120b)"/>
  <rect width="800" height="800" filter="url(#noise8120)" opacity=".4"/>
  <g id="atmosphere">
  <circle cx="440" cy="415" r="320" fill="#ce874a" opacity="0.100" filter="url(#blur-h)"/>
  <circle cx="345" cy="787" r="145" fill="#b99f3f" opacity="0.084" filter="url(#blur-h)"/>
  <circle cx="228" cy="865" r="291" fill="#a9bd40" opacity="0.068" filter="url(#blur-h)"/>
  <circle cx="-90" cy="297" r="259" fill="#5f553b" opacity="0.074" filter="url(#blur-h)"/>
  </g>
  <g id="back">
    <circle cx="626" cy="683" r="131" fill="#ce854b" opacity="0.068" filter="url(#blur-h)"/>
    <circle cx="383" cy="269" r="220" fill="#b7c24e" opacity="0.100" filter="url(#blur-h)"/>
    <circle cx="325" cy="447" r="227" fill="#c86654" opacity="0.094" filter="url(#blur-h)"/>
    <circle cx="644" cy="100" r="189" fill="#beb541" opacity="0.085" filter="url(#blur-h)"/>
    <circle cx="502" cy="337" r="139" fill="#b6b03e" opacity="0.100" filter="url(#blur-h)"/>
    <circle cx="218" cy="597" r="129" fill="#cd7c47" opacity="0.049" filter="url(#blur-h)"/>
    <circle cx="691" cy="446" r="195" fill="#c35844" opacity="0.101" filter="url(#blur-h)"/>
    <circle cx="606" cy="257" r="89" fill="#c3aa50" opacity="0.048" filter="url(#blur-h)"/>
    <circle cx="531" cy="422" r="73" fill="#bba640" opacity="0.069" filter="url(#blur-h)"/>
    <circle cx="531" cy="422" r="73" fill="none" stroke="#bba640" stroke-width="0.5" opacity="0.125"/>
    <circle cx="389" cy="387" r="53" fill="#c1b34c" opacity="0.082" filter="url(#blur-h)"/>
    <circle cx="389" cy="387" r="53" fill="none" stroke="#c1b34c" stroke-width="0.8" opacity="0.147"/>
    <circle cx="375" cy="237" r="74" fill="#b4c24d" opacity="0.046" filter="url(#blur-h)"/>
    <circle cx="375" cy="237" r="74" fill="none" stroke="#b4c24d" stroke-width="0.7" opacity="0.083"/>
    <circle cx="201" cy="703" r="90" fill="#c13e53" opacity="0.074" filter="url(#blur-h)"/>
    <circle cx="201" cy="703" r="90" fill="none" stroke="#c13e53" stroke-width="0.5" opacity="0.134"/>
    <circle cx="16" cy="99" r="43" fill="#ca9c3b" opacity="0.054" filter="url(#blur-h)"/>
    <circle cx="16" cy="99" r="43" fill="none" stroke="#ca9c3b" stroke-width="0.7" opacity="0.097"/>
    <circle cx="821" cy="845" r="38" fill="#c13f48" opacity="0.044" filter="url(#blur-h)"/>
    <circle cx="821" cy="845" r="38" fill="none" stroke="#c13f48" stroke-width="0.5" opacity="0.079"/>
    <circle cx="728" cy="23" r="42" fill="#c5614a" opacity="0.067" filter="url(#blur-h)"/>
    <circle cx="728" cy="23" r="42" fill="none" stroke="#c5614a" stroke-width="0.9" opacity="0.121"/>
    <circle cx="759" cy="273" r="60" fill="#cb8342" opacity="0.052" filter="url(#blur-h)"/>
    <circle cx="759" cy="273" r="60" fill="none" stroke="#cb8342" stroke-width="0.7" opacity="0.094"/>
    <circle cx="716" cy="206" r="69" fill="#b2913d" opacity="0.057" filter="url(#blur-h)"/>
    <circle cx="716" cy="206" r="69" fill="none" stroke="#b2913d" stroke-width="0.4" opacity="0.102"/>
    <circle cx="501" cy="194" r="65" fill="#c4495b" opacity="0.070" filter="url(#blur-h)"/>
    <circle cx="501" cy="194" r="65" fill="none" stroke="#c4495b" stroke-width="0.5" opacity="0.127"/>
    <circle cx="320" cy="768" r="35" fill="#cc9846" opacity="0.056" filter="url(#blur-h)"/>
    <circle cx="320" cy="768" r="35" fill="none" stroke="#cc9846" stroke-width="0.7" opacity="0.100"/>
    <circle cx="310" cy="92" r="77" fill="#c0413d" opacity="0.054" filter="url(#blur-h)"/>
    <circle cx="310" cy="92" r="77" fill="none" stroke="#c0413d" stroke-width="0.7" opacity="0.098"/>
    <circle cx="154" cy="379" r="65" fill="#c15a3f" opacity="0.107" filter="url(#blur-h)"/>
    <circle cx="154" cy="379" r="65" fill="none" stroke="#c15a3f" stroke-width="0.6" opacity="0.193"/>
    <circle cx="441" cy="394" r="56" fill="#c8545f" opacity="0.083" filter="url(#blur-h)"/>
    <circle cx="441" cy="394" r="56" fill="none" stroke="#c8545f" stroke-width="0.6" opacity="0.149"/>
    <circle cx="824" cy="587" r="31" fill="#c35746" opacity="0.065" filter="url(#blur-h)"/>
    <circle cx="824" cy="587" r="31" fill="none" stroke="#c35746" stroke-width="1.0" opacity="0.118"/>
    <circle cx="175" cy="210" r="57" fill="#cd7446" opacity="0.102" filter="url(#blur-h)"/>
    <circle cx="175" cy="210" r="57" fill="none" stroke="#cd7446" stroke-width="0.5" opacity="0.184"/>
    <circle cx="126" cy="135" r="71" fill="#c45f48" opacity="0.049" filter="url(#blur-h)"/>
    <circle cx="126" cy="135" r="71" fill="none" stroke="#c45f48" stroke-width="0.6" opacity="0.088"/>
  </g>
  <g id="brushstrokes" opacity="0.70">
    <path d="M450.7,758.7 Q435.3,745.3 434.5,762.1 Q433.8,778.8 425.6,794.3 Q417.5,809.8 446.0,801.8 Q474.5,793.7 435.4,810.2 Q396.4,826.6 392.3,840.9 Q388.2,855.2 402.7,865.9 Q417.2,876.6 395.8,883.8 Q374.3,891.0 398.6,879.0 L422.8,867.0" stroke="#e7ce84" stroke-width="15" fill="none" opacity="0.081" stroke-linecap="round"/>
    <path d="M803.1,655.5 Q802.2,614.9 818.2,586.0 Q834.3,557.1 853.0,524.7 Q871.7,492.4 868.3,478.9 Q864.8,465.5 847.7,440.1 L830.7,414.8" stroke="#c69035" stroke-width="10" fill="none" opacity="0.056" stroke-linecap="round"/>
    <path d="M735.0,280.1 Q782.1,334.6 785.7,351.7 Q789.2,368.7 804.8,362.0 Q820.4,355.3 822.7,401.9 Q825.0,448.4 838.7,435.8 Q852.4,423.2 864.2,452.3 Q876.1,481.4 881.2,501.6 L886.3,521.8" stroke="#a6ad3b" stroke-width="5" fill="none" opacity="0.049" stroke-linecap="round"/>
    <path d="M519.8,663.1 Q506.8,620.7 476.2,628.3 Q445.7,636.0 475.2,638.3 Q504.8,640.7 509.2,610.0 Q513.6,579.2 500.4,545.0 Q487.3,510.8 490.8,505.2 Q494.4,499.7 477.6,493.8 Q460.8,488.0 459.6,474.4 Q458.4,460.8 438.4,459.7 Q418.4,458.7 432.9,453.6 L447.3,448.5" stroke="#b6aa3e" stroke-width="12" fill="none" opacity="0.036" stroke-linecap="round"/>
    <path d="M318.0,517.6 Q336.0,499.1 337.3,505.8 Q338.6,512.6 376.3,494.8 Q414.0,477.1 413.4,530.8 Q412.7,584.5 435.7,572.2 Q458.7,560.0 456.1,567.9 L453.4,575.9" stroke="#d17557" stroke-width="8" fill="none" opacity="0.090" stroke-linecap="round"/>
    <path d="M274.3,648.9 Q233.2,661.6 208.4,651.4 Q183.7,641.2 190.5,622.5 Q197.4,603.8 180.3,593.4 Q163.2,583.0 157.6,580.3 L152.0,577.6" stroke="#eace94" stroke-width="3" fill="none" opacity="0.083" stroke-linecap="round"/>
    <path d="M276.6,719.8 Q246.4,750.6 211.7,741.3 Q177.1,732.0 167.0,722.4 Q156.8,712.9 124.4,729.6 Q91.9,746.4 84.1,745.7 Q76.4,745.0 46.2,737.8 Q16.1,730.7 -1.8,742.6 L-19.7,754.6" stroke="#c4a952" stroke-width="15" fill="none" opacity="0.076" stroke-linecap="round"/>
    <path d="M28.6,365.8 Q61.4,362.0 35.4,362.4 Q9.5,362.7 25.8,332.9 Q42.1,303.0 30.9,339.6 Q19.8,376.3 11.0,338.5 Q2.1,300.8 -8.7,297.1 Q-19.4,293.4 -3.4,296.6 Q12.7,299.7 -3.2,272.1 Q-19.0,244.5 -42.9,223.8 L-66.9,203.1" stroke="#cca245" stroke-width="17" fill="none" opacity="0.085" stroke-linecap="round"/>
  </g>
  <g id="nebula" opacity="0.59">
    <circle cx="181" cy="688" r="64" fill="#cf9a4d" opacity="0.094" filter="url(#blur-h)"/>
    <circle cx="542" cy="205" r="177" fill="#cb8041" opacity="0.110" filter="url(#blur-h)"/>
    <circle cx="431" cy="201" r="121" fill="#c95859" opacity="0.092" filter="url(#blur-h)"/>
    <circle cx="647" cy="55" r="175" fill="#c13f40" opacity="0.119" filter="url(#blur-h)"/>
    <circle cx="530" cy="126" r="132" fill="#c2bb4e" opacity="0.129" filter="url(#blur-h)"/>
    <circle cx="710" cy="372" r="65" fill="#c0b149" opacity="0.064" filter="url(#blur-h)"/>
  </g>
  <g id="curves" opacity="0.46">
    <path d="M-23.1,489.7 Q634.4,308.2 531.9,366.2 Q429.4,424.1 485.7,268.0 Q542.0,111.9 680.5,375.9 L818.9,639.8" stroke="#beba42" stroke-width="1.8" fill="none" opacity="0.17"/>
    <path d="M-29.4,237.2 Q177.9,755.2 328.5,695.7 Q479.1,636.1 478.9,326.1 Q478.7,16.1 387.2,352.7 Q295.7,689.4 555.8,539.3 L815.8,389.3" stroke="#bc513c" stroke-width="2.7" fill="none" opacity="0.20"/>
    <path d="M2.6,800.4 Q479.3,144.3 403.6,235.6 Q327.9,326.8 573.2,348.0 L818.5,369.2" stroke="#ce9f4d" stroke-width="1.9" fill="none" opacity="0.05"/>
    <path d="M-23.9,321.5 Q494.3,45.9 413.0,318.3 Q331.6,590.8 352.6,383.6 Q373.5,176.5 530.4,110.2 Q687.2,43.9 380.7,202.0 Q74.2,360.1 452.7,475.4 L831.2,590.6" stroke="#ac9a3b" stroke-width="1.0" fill="none" opacity="0.08"/>
    <path d="M-23.3,-47.7 Q516.5,271.5 613.3,399.5 Q710.0,527.4 760.5,506.7 L811.0,486.1" stroke="#adba3f" stroke-width="3.1" fill="none" opacity="0.19"/>
    <path d="M-19.0,-19.1 Q236.4,135.4 244.7,462.3 Q253.0,789.2 540.5,505.1 L828.0,221.0" stroke="#c24f43" stroke-width="3.1" fill="none" opacity="0.12"/>
    <path d="M-21.3,598.2 Q485.2,790.5 308.7,539.0 Q132.2,287.4 276.6,507.4 Q421.0,727.4 626.0,380.7 L830.9,34.1" stroke="#c75354" stroke-width="0.6" fill="none" opacity="0.10"/>
    <path d="M-15.3,294.4 Q98.1,547.6 109.9,489.6 Q121.7,431.5 473.1,285.9 L824.6,140.3" stroke="#c13e51" stroke-width="0.5" fill="none" opacity="0.19"/>
    <path d="M-28.8,380.4 Q295.0,210.1 195.7,364.3 Q96.4,518.4 460.6,574.2 L824.9,630.0" stroke="#cfa051" stroke-width="0.4" fill="none" opacity="0.14"/>
    <path d="M-16.2,66.7 Q206.5,524.1 163.6,565.1 Q120.7,606.1 457.9,591.5 L795.2,576.8" stroke="#d08054" stroke-width="3.0" fill="none" opacity="0.06"/>
  </g>
  <g id="constellation" opacity="0.37">
    <line x1="186" y1="397" x2="247" y2="422" stroke="#c44749" stroke-width="0.6" opacity="0.065"/>
    <line x1="186" y1="397" x2="115" y2="391" stroke="#c44749" stroke-width="0.6" opacity="0.054"/>
    <line x1="681" y1="93" x2="588" y2="26" stroke="#c44749" stroke-width="0.6" opacity="0.026"/>
    <line x1="91" y1="422" x2="153" y2="351" stroke="#c44749" stroke-width="0.6" opacity="0.029"/>
    <line x1="91" y1="422" x2="115" y2="391" stroke="#c44749" stroke-width="0.6" opacity="0.085"/>
    <line x1="655" y1="236" x2="614" y2="227" stroke="#c44749" stroke-width="0.6" opacity="0.089"/>
    <line x1="243" y1="379" x2="192" y2="321" stroke="#c44749" stroke-width="0.6" opacity="0.051"/>
    <line x1="243" y1="379" x2="153" y2="351" stroke="#c44749" stroke-width="0.6" opacity="0.031"/>
    <line x1="192" y1="321" x2="247" y2="422" stroke="#c44749" stroke-width="0.6" opacity="0.032"/>
    <line x1="192" y1="321" x2="115" y2="391" stroke="#c44749" stroke-width="0.6" opacity="0.030"/>
    <line x1="416" y1="532" x2="465" y2="429" stroke="#c44749" stroke-width="0.6" opacity="0.038"/>
    <line x1="416" y1="532" x2="340" y2="493" stroke="#c44749" stroke-width="0.6" opacity="0.047"/>
    <line x1="241" y1="160" x2="172" y2="245" stroke="#c44749" stroke-width="0.6" opacity="0.029"/>
    <line x1="241" y1="160" x2="293" y2="260" stroke="#c44749" stroke-width="0.6" opacity="0.031"/>
    <line x1="662" y1="92" x2="588" y2="26" stroke="#c44749" stroke-width="0.6" opacity="0.026"/>
    <line x1="326" y1="392" x2="247" y2="422" stroke="#c44749" stroke-width="0.6" opacity="0.046"/>
    <line x1="291" y1="18" x2="379" y2="78" stroke="#c44749" stroke-width="0.6" opacity="0.027"/>
    <line x1="291" y1="18" x2="359" y2="48" stroke="#c44749" stroke-width="0.6" opacity="0.044"/>
    <line x1="291" y1="18" x2="281" y2="21" stroke="#c44749" stroke-width="0.6" opacity="0.103"/>
    <line x1="533" y1="722" x2="593" y2="770" stroke="#c44749" stroke-width="0.6" opacity="0.045"/>
    <line x1="379" y1="78" x2="281" y2="21" stroke="#c44749" stroke-width="0.6" opacity="0.027"/>
    <line x1="174" y1="559" x2="117" y2="625" stroke="#c44749" stroke-width="0.6" opacity="0.034"/>
    <line x1="465" y1="429" x2="464" y2="361" stroke="#c44749" stroke-width="0.6" opacity="0.076"/>
    <line x1="465" y1="429" x2="458" y2="416" stroke="#c44749" stroke-width="0.6" opacity="0.155"/>
    <line x1="247" y1="422" x2="207" y2="447" stroke="#c44749" stroke-width="0.6" opacity="0.089"/>
    <line x1="247" y1="422" x2="340" y2="493" stroke="#c44749" stroke-width="0.6" opacity="0.035"/>
    <line x1="207" y1="447" x2="153" y2="351" stroke="#c44749" stroke-width="0.6" opacity="0.031"/>
    <line x1="632" y1="674" x2="593" y2="770" stroke="#c44749" stroke-width="0.6" opacity="0.028"/>
    <line x1="464" y1="361" x2="458" y2="416" stroke="#c44749" stroke-width="0.6" opacity="0.094"/>
    <line x1="153" y1="351" x2="115" y2="391" stroke="#c44749" stroke-width="0.6" opacity="0.071"/>
    <circle cx="186" cy="397" r="2.7" fill="white" opacity="0.42"/>
    <circle cx="186" cy="397" r="8.7" fill="#ce874a" opacity="0.051"/>
    <circle cx="681" cy="93" r="1.7" fill="white" opacity="0.22"/>
    <circle cx="91" cy="422" r="2.8" fill="white" opacity="0.43"/>
    <circle cx="91" cy="422" r="8.8" fill="#ce874a" opacity="0.052"/>
    <circle cx="655" cy="236" r="2.1" fill="white" opacity="0.30"/>
    <circle cx="243" cy="379" r="3.0" fill="white" opacity="0.49"/>
    <circle cx="243" cy="379" r="9.0" fill="#ce874a" opacity="0.059"/>
    <circle cx="614" cy="227" r="1.9" fill="white" opacity="0.26"/>
    <circle cx="116" cy="676" r="2.9" fill="white" opacity="0.46"/>
    <circle cx="116" cy="676" r="8.9" fill="#d07f53" opacity="0.055"/>
    <circle cx="192" cy="321" r="3.5" fill="white" opacity="0.59"/>
    <circle cx="192" cy="321" r="9.5" fill="#ce874a" opacity="0.071"/>
    <circle cx="416" cy="532" r="2.1" fill="white" opacity="0.30"/>
    <circle cx="161" cy="746" r="2.3" fill="white" opacity="0.33"/>
    <circle cx="161" cy="746" r="8.3" fill="#cb7a40" opacity="0.040"/>
    <circle cx="241" cy="160" r="1.9" fill="white" opacity="0.26"/>
    <circle cx="42" cy="91" r="2.6" fill="white" opacity="0.39"/>
    <circle cx="42" cy="91" r="8.6" fill="#ce874a" opacity="0.047"/>
    <circle cx="662" cy="92" r="3.2" fill="white" opacity="0.50"/>
    <circle cx="662" cy="92" r="9.2" fill="#ca7d3e" opacity="0.060"/>
    <circle cx="326" cy="392" r="3.3" fill="white" opacity="0.54"/>
    <circle cx="326" cy="392" r="9.3" fill="#cc7546" opacity="0.065"/>
    <circle cx="588" cy="26" r="1.5" fill="white" opacity="0.19"/>
    <circle cx="291" cy="18" r="1.7" fill="white" opacity="0.22"/>
    <circle cx="533" cy="722" r="1.5" fill="white" opacity="0.18"/>
    <circle cx="356" cy="711" r="2.1" fill="white" opacity="0.29"/>
    <circle cx="379" cy="78" r="1.5" fill="white" opacity="0.18"/>
    <circle cx="174" cy="559" r="3.6" fill="white" opacity="0.61"/>
    <circle cx="174" cy="559" r="9.6" fill="#d08f51" opacity="0.073"/>
    <circle cx="465" cy="429" r="3.4" fill="white" opacity="0.58"/>
    <circle cx="465" cy="429" r="9.4" fill="#d19b57" opacity="0.070"/>
    <circle cx="653" cy="239" r="2.8" fill="white" opacity="0.45"/>
    <circle cx="653" cy="239" r="8.8" fill="#d19056" opacity="0.054"/>
    <circle cx="247" cy="422" r="3.6" fill="white" opacity="0.60"/>
    <circle cx="247" cy="422" r="9.6" fill="#cd8d46" opacity="0.072"/>
    <circle cx="367" cy="273" r="2.7" fill="white" opacity="0.41"/>
    <circle cx="367" cy="273" r="8.7" fill="#ce874a" opacity="0.050"/>
    <circle cx="172" cy="245" r="1.7" fill="white" opacity="0.22"/>
    <circle cx="713" cy="428" r="1.5" fill="white" opacity="0.17"/>
    <circle cx="207" cy="447" r="2.8" fill="white" opacity="0.44"/>
    <circle cx="207" cy="447" r="8.8" fill="#ce874a" opacity="0.052"/>
    <circle cx="632" cy="674" r="2.7" fill="white" opacity="0.41"/>
    <circle cx="632" cy="674" r="8.7" fill="#ce964c" opacity="0.049"/>
    <circle cx="593" cy="770" r="3.2" fill="white" opacity="0.52"/>
    <circle cx="593" cy="770" r="9.2" fill="#cc9346" opacity="0.062"/>
    <circle cx="48" cy="148" r="1.6" fill="white" opacity="0.19"/>
    <circle cx="722" cy="549" r="3.7" fill="white" opacity="0.61"/>
    <circle cx="722" cy="549" r="9.7" fill="#ce874a" opacity="0.073"/>
    <circle cx="117" cy="625" r="2.1" fill="white" opacity="0.31"/>
    <circle cx="235" cy="784" r="2.6" fill="white" opacity="0.39"/>
    <circle cx="235" cy="784" r="8.6" fill="#ce874a" opacity="0.047"/>
    <circle cx="324" cy="774" r="1.2" fill="white" opacity="0.12"/>
    <circle cx="340" cy="493" r="3.4" fill="white" opacity="0.56"/>
    <circle cx="340" cy="493" r="9.4" fill="#ce874a" opacity="0.067"/>
    <circle cx="359" cy="48" r="2.3" fill="white" opacity="0.34"/>
    <circle cx="359" cy="48" r="8.3" fill="#cd7f48" opacity="0.041"/>
    <circle cx="464" cy="361" r="1.8" fill="white" opacity="0.22"/>
    <circle cx="293" cy="260" r="2.4" fill="white" opacity="0.37"/>
    <circle cx="344" cy="617" r="3.6" fill="white" opacity="0.61"/>
    <circle cx="344" cy="617" r="9.6" fill="#cb8c41" opacity="0.073"/>
    <circle cx="458" cy="416" r="3.2" fill="white" opacity="0.53"/>
    <circle cx="458" cy="416" r="9.2" fill="#ce894a" opacity="0.064"/>
    <circle cx="726" cy="537" r="1.3" fill="white" opacity="0.13"/>
    <circle cx="153" cy="351" r="2.4" fill="white" opacity="0.36"/>
    <circle cx="153" cy="351" r="8.4" fill="#cc7443" opacity="0.043"/>
    <circle cx="115" cy="391" r="3.5" fill="white" opacity="0.59"/>
    <circle cx="115" cy="391" r="9.5" fill="#d19057" opacity="0.070"/>
    <circle cx="281" cy="21" r="1.2" fill="white" opacity="0.12"/>
  </g>
  <g id="bokeh-fg" opacity="0.35">
    <circle cx="-29" cy="688" r="53" fill="#c44b47" opacity="0.053" filter="url(#blur-h)"/>
    <circle cx="-29" cy="688" r="53" fill="none" stroke="#c44b47" stroke-width="1.0" opacity="0.095"/>
    <circle cx="621" cy="842" r="66" fill="#d19158" opacity="0.043" filter="url(#blur-h)"/>
    <circle cx="621" cy="842" r="66" fill="none" stroke="#d19158" stroke-width="0.5" opacity="0.078"/>
    <circle cx="45" cy="89" r="56" fill="#b0c24d" opacity="0.047" filter="url(#blur-h)"/>
    <circle cx="45" cy="89" r="56" fill="none" stroke="#b0c24d" stroke-width="0.7" opacity="0.084"/>
    <circle cx="-21" cy="621" r="93" fill="#aebb40" opacity="0.045" filter="url(#blur-h)"/>
    <circle cx="-21" cy="621" r="93" fill="none" stroke="#aebb40" stroke-width="0.9" opacity="0.082"/>
    <circle cx="567" cy="478" r="30" fill="#afc24f" opacity="0.032" filter="url(#blur-h)"/>
    <circle cx="567" cy="478" r="30" fill="none" stroke="#afc24f" stroke-width="0.5" opacity="0.058"/>
    <circle cx="415" cy="43" r="84" fill="#b73a55" opacity="0.091" filter="url(#blur-h)"/>
    <circle cx="415" cy="43" r="84" fill="none" stroke="#b73a55" stroke-width="0.9" opacity="0.164"/>
    <circle cx="99" cy="323" r="50" fill="#b69f3e" opacity="0.057" filter="url(#blur-h)"/>
    <circle cx="99" cy="323" r="50" fill="none" stroke="#b69f3e" stroke-width="0.7" opacity="0.102"/>
    <circle cx="57" cy="701" r="71" fill="#c5634c" opacity="0.082" filter="url(#blur-h)"/>
    <circle cx="57" cy="701" r="71" fill="none" stroke="#c5634c" stroke-width="1.1" opacity="0.147"/>
    <circle cx="330" cy="561" r="74" fill="#ca9c3d" opacity="0.049" filter="url(#blur-h)"/>
    <circle cx="330" cy="561" r="74" fill="none" stroke="#ca9c3d" stroke-width="0.6" opacity="0.089"/>
    <circle cx="688" cy="356" r="63" fill="#d07d54" opacity="0.068" filter="url(#blur-h)"/>
    <circle cx="688" cy="356" r="63" fill="none" stroke="#d07d54" stroke-width="1.0" opacity="0.122"/>
    <circle cx="746" cy="589" r="60" fill="#a9aa3a" opacity="0.051" filter="url(#blur-h)"/>
    <circle cx="746" cy="589" r="60" fill="none" stroke="#a9aa3a" stroke-width="0.9" opacity="0.091"/>
    <circle cx="453" cy="249" r="72" fill="#bab03f" opacity="0.032" filter="url(#blur-h)"/>
    <circle cx="453" cy="249" r="72" fill="none" stroke="#bab03f" stroke-width="0.7" opacity="0.058"/>
    <circle cx="751" cy="191" r="34" fill="#c86e55" opacity="0.105" filter="url(#blur-h)"/>
    <circle cx="751" cy="191" r="34" fill="none" stroke="#c86e55" stroke-width="0.9" opacity="0.189"/>
  </g>
  <g id="volumetric" opacity="0.62">
    <ellipse cx="395" cy="406" rx="115" ry="81" fill="#d28d59" opacity="0.035" transform="rotate(9 395 406)" filter="url(#blur-h)"/>
    <ellipse cx="451" cy="502" rx="218" ry="114" fill="#cf9a50" opacity="0.020" transform="rotate(2 451 502)" filter="url(#blur-h)"/>
    <ellipse cx="443" cy="363" rx="131" ry="70" fill="#d29459" opacity="0.024" transform="rotate(3 443 363)" filter="url(#blur-h)"/>
    <ellipse cx="477" cy="380" rx="127" ry="84" fill="#ce994b" opacity="0.028" transform="rotate(11 477 380)" filter="url(#blur-h)"/>
  </g>
  <g id="stars">
    <circle cx="-5" cy="341" r="1.5" fill="white" opacity="0.19"/>
    <circle cx="408" cy="211" r="1.1" fill="white" opacity="0.10"/>
    <circle cx="358" cy="163" r="1.5" fill="white" opacity="0.10"/>
    <circle cx="22" cy="178" r="2.3" fill="white" opacity="0.15"/>
    <circle cx="22" cy="178" r="7.3" fill="white" opacity="0.009"/>
    <circle cx="367" cy="517" r="1.3" fill="white" opacity="0.28"/>
    <circle cx="549" cy="370" r="1.4" fill="white" opacity="0.33"/>
    <circle cx="51" cy="261" r="0.4" fill="white" opacity="0.38"/>
    <circle cx="735" cy="493" r="0.7" fill="white" opacity="0.19"/>
    <circle cx="584" cy="326" r="0.7" fill="white" opacity="0.53"/>
    <circle cx="790" cy="173" r="2.5" fill="white" opacity="0.06"/>
    <circle cx="790" cy="173" r="7.5" fill="white" opacity="0.004"/>
    <circle cx="47" cy="206" r="1.5" fill="white" opacity="0.36"/>
    <circle cx="717" cy="794" r="0.5" fill="white" opacity="0.27"/>
    <circle cx="35" cy="393" r="0.9" fill="white" opacity="0.10"/>
    <circle cx="584" cy="6" r="1.4" fill="white" opacity="0.23"/>
    <circle cx="386" cy="407" r="1.1" fill="white" opacity="0.17"/>
    <circle cx="429" cy="60" r="2.2" fill="white" opacity="0.10"/>
    <circle cx="429" cy="60" r="7.2" fill="white" opacity="0.006"/>
    <circle cx="193" cy="27" r="0.5" fill="white" opacity="0.19"/>
    <circle cx="226" cy="321" r="1.4" fill="white" opacity="0.37"/>
    <circle cx="206" cy="562" r="2.6" fill="white" opacity="0.48"/>
    <circle cx="206" cy="562" r="7.6" fill="white" opacity="0.029"/>
    <circle cx="230" cy="319" r="0.3" fill="white" opacity="0.43"/>
    <circle cx="589" cy="543" r="0.5" fill="white" opacity="0.42"/>
    <circle cx="724" cy="613" r="0.9" fill="white" opacity="0.33"/>
    <circle cx="681" cy="521" r="2.8" fill="white" opacity="0.29"/>
    <circle cx="681" cy="521" r="7.8" fill="white" opacity="0.017"/>
    <circle cx="34" cy="30" r="1.9" fill="white" opacity="0.26"/>
    <circle cx="113" cy="279" r="1.0" fill="white" opacity="0.25"/>
    <circle cx="275" cy="714" r="1.3" fill="white" opacity="0.26"/>
    <circle cx="294" cy="109" r="2.8" fill="white" opacity="0.41"/>
    <circle cx="294" cy="109" r="7.8" fill="white" opacity="0.024"/>
    <circle cx="699" cy="545" r="1.7" fill="white" opacity="0.16"/>
    <circle cx="764" cy="300" r="0.4" fill="white" opacity="0.08"/>
    <circle cx="524" cy="176" r="2.6" fill="white" opacity="0.10"/>
    <circle cx="524" cy="176" r="7.6" fill="white" opacity="0.006"/>
    <circle cx="796" cy="279" r="1.3" fill="white" opacity="0.25"/>
    <circle cx="159" cy="-9" r="2.0" fill="white" opacity="0.05"/>
    <circle cx="159" cy="-9" r="7.0" fill="white" opacity="0.003"/>
    <circle cx="401" cy="310" r="0.8" fill="white" opacity="0.44"/>
    <circle cx="182" cy="192" r="0.6" fill="white" opacity="0.09"/>
    <circle cx="301" cy="264" r="2.5" fill="white" opacity="0.17"/>
    <circle cx="301" cy="264" r="7.5" fill="white" opacity="0.010"/>
    <circle cx="754" cy="488" r="1.3" fill="white" opacity="0.29"/>
    <circle cx="96" cy="51" r="0.5" fill="white" opacity="0.21"/>
    <circle cx="388" cy="731" r="0.8" fill="white" opacity="0.39"/>
    <circle cx="32" cy="446" r="0.3" fill="white" opacity="0.15"/>
    <circle cx="47" cy="225" r="1.8" fill="white" opacity="0.38"/>
    <circle cx="689" cy="166" r="2.6" fill="white" opacity="0.32"/>
    <circle cx="689" cy="166" r="7.6" fill="white" opacity="0.019"/>
    <circle cx="53" cy="772" r="1.1" fill="white" opacity="0.24"/>
    <circle cx="714" cy="800" r="1.7" fill="white" opacity="0.10"/>
    <circle cx="152" cy="453" r="0.8" fill="white" opacity="0.32"/>
    <circle cx="346" cy="634" r="0.5" fill="white" opacity="0.08"/>
    <circle cx="755" cy="123" r="2.4" fill="white" opacity="0.25"/>
    <circle cx="755" cy="123" r="7.4" fill="white" opacity="0.015"/>
    <circle cx="184" cy="115" r="2.7" fill="white" opacity="0.36"/>
    <circle cx="184" cy="115" r="7.7" fill="white" opacity="0.022"/>
  </g>
  <g id="grain" opacity="0.28">
    <circle cx="390" cy="650" r="0.19" fill="white" opacity="0.03"/>
    <circle cx="113" cy="564" r="0.18" fill="white" opacity="0.06"/>
    <circle cx="99" cy="762" r="0.72" fill="white" opacity="0.06"/>
    <circle cx="61" cy="531" r="0.67" fill="white" opacity="0.02"/>
    <circle cx="590" cy="179" r="0.68" fill="white" opacity="0.07"/>
    <circle cx="121" cy="552" r="0.73" fill="white" opacity="0.07"/>
    <circle cx="684" cy="212" r="0.30" fill="white" opacity="0.05"/>
    <circle cx="557" cy="127" r="0.62" fill="white" opacity="0.06"/>
    <circle cx="650" cy="691" r="0.31" fill="white" opacity="0.03"/>
    <circle cx="95" cy="50" r="0.72" fill="white" opacity="0.05"/>
    <circle cx="456" cy="74" r="0.44" fill="white" opacity="0.08"/>
    <circle cx="724" cy="63" r="0.48" fill="white" opacity="0.04"/>
    <circle cx="576" cy="489" r="0.19" fill="white" opacity="0.03"/>
    <circle cx="640" cy="427" r="0.34" fill="white" opacity="0.04"/>
    <circle cx="448" cy="217" r="0.33" fill="white" opacity="0.03"/>
    <circle cx="725" cy="447" r="0.64" fill="white" opacity="0.08"/>
    <circle cx="363" cy="479" r="0.44" fill="white" opacity="0.05"/>
    <circle cx="146" cy="430" r="0.29" fill="white" opacity="0.04"/>
    <circle cx="782" cy="786" r="0.24" fill="white" opacity="0.07"/>
    <circle cx="647" cy="463" r="0.23" fill="white" opacity="0.03"/>
    <circle cx="204" cy="492" r="0.48" fill="white" opacity="0.08"/>
    <circle cx="144" cy="49" r="0.63" fill="white" opacity="0.07"/>
    <circle cx="340" cy="81" r="0.38" fill="white" opacity="0.07"/>
    <circle cx="764" cy="703" r="0.67" fill="white" opacity="0.08"/>
    <circle cx="689" cy="314" r="0.38" fill="white" opacity="0.04"/>
    <circle cx="338" cy="33" r="0.25" fill="white" opacity="0.03"/>
    <circle cx="625" cy="220" r="0.34" fill="white" opacity="0.07"/>
    <circle cx="409" cy="299" r="0.45" fill="white" opacity="0.03"/>
    <circle cx="462" cy="501" r="0.61" fill="white" opacity="0.03"/>
    <circle cx="500" cy="47" r="0.69" fill="white" opacity="0.04"/>
    <circle cx="202" cy="592" r="0.34" fill="white" opacity="0.08"/>
    <circle cx="716" cy="697" r="0.39" fill="white" opacity="0.06"/>
    <circle cx="749" cy="101" r="0.37" fill="white" opacity="0.06"/>
    <circle cx="614" cy="697" r="0.71" fill="white" opacity="0.06"/>
    <circle cx="266" cy="483" r="0.20" fill="white" opacity="0.02"/>
    <circle cx="620" cy="387" r="0.25" fill="white" opacity="0.02"/>
    <circle cx="549" cy="613" r="0.42" fill="white" opacity="0.05"/>
    <circle cx="668" cy="403" r="0.47" fill="white" opacity="0.09"/>
    <circle cx="148" cy="119" r="0.19" fill="white" opacity="0.05"/>
    <circle cx="58" cy="232" r="0.46" fill="white" opacity="0.08"/>
    <circle cx="160" cy="336" r="0.16" fill="white" opacity="0.03"/>
    <circle cx="50" cy="42" r="0.61" fill="white" opacity="0.03"/>
    <circle cx="129" cy="123" r="0.33" fill="white" opacity="0.04"/>
    <circle cx="371" cy="313" r="0.40" fill="white" opacity="0.02"/>
    <circle cx="738" cy="381" r="0.44" fill="white" opacity="0.05"/>
    <circle cx="646" cy="688" r="0.27" fill="white" opacity="0.08"/>
    <circle cx="664" cy="623" r="0.43" fill="white" opacity="0.06"/>
    <circle cx="293" cy="216" r="0.33" fill="white" opacity="0.05"/>
    <circle cx="151" cy="218" r="0.58" fill="white" opacity="0.06"/>
    <circle cx="280" cy="191" r="0.71" fill="white" opacity="0.02"/>
    <circle cx="74" cy="493" r="0.69" fill="white" opacity="0.03"/>
    <circle cx="53" cy="190" r="0.17" fill="white" opacity="0.02"/>
    <circle cx="700" cy="576" r="0.71" fill="white" opacity="0.03"/>
    <circle cx="245" cy="571" r="0.43" fill="white" opacity="0.03"/>
    <circle cx="452" cy="510" r="0.26" fill="white" opacity="0.08"/>
    <circle cx="267" cy="665" r="0.71" fill="white" opacity="0.06"/>
    <circle cx="368" cy="576" r="0.50" fill="white" opacity="0.05"/>
    <circle cx="198" cy="609" r="0.59" fill="white" opacity="0.06"/>
    <circle cx="0" cy="208" r="0.24" fill="white" opacity="0.03"/>
    <circle cx="596" cy="540" r="0.36" fill="white" opacity="0.06"/>
    <circle cx="390" cy="177" r="0.33" fill="white" opacity="0.08"/>
    <circle cx="393" cy="456" r="0.45" fill="white" opacity="0.05"/>
    <circle cx="307" cy="535" r="0.24" fill="white" opacity="0.06"/>
    <circle cx="249" cy="49" r="0.74" fill="white" opacity="0.05"/>
    <circle cx="677" cy="212" r="0.37" fill="white" opacity="0.05"/>
    <circle cx="76" cy="475" r="0.19" fill="white" opacity="0.08"/>
    <circle cx="769" cy="348" r="0.69" fill="white" opacity="0.06"/>
    <circle cx="88" cy="436" r="0.19" fill="white" opacity="0.04"/>
    <circle cx="113" cy="208" r="0.74" fill="white" opacity="0.08"/>
    <circle cx="38" cy="286" r="0.65" fill="white" opacity="0.08"/>
  </g>
  <g id="focal">
    <circle cx="440" cy="415" r="168" fill="#ce874a" opacity="0.060" filter="url(#blur-h)"/>
    <circle cx="440" cy="415" r="84" fill="#ce874a" opacity="0.090" filter="url(#s-glow)"/>
    <circle cx="440" cy="415" r="33" fill="#ce874a" opacity="0.08"/>
    <circle cx="440" cy="415" r="18" fill="white" opacity="0.16"><animate attributeName="opacity" values="0.16;0.24;0.16" dur="4.1s" repeatCount="indefinite"/></circle>
    <circle cx="440" cy="415" r="7.5" fill="white" opacity="0.60"/>
  </g>
  <rect width="800" height="800" fill="url(#vig)"/>
</svg>