<svg xmlns="http://www.w3.org/2000/svg" viewBox="0 0 800 800" width="800" height="800">
  <defs>
    <radialGradient id="bg-grad" cx="50%" cy="45%" r="75%">
      <stop offset="0%" stop-color="#DDA0DD" stop-opacity="0.85"/>
      <stop offset="35%" stop-color="#9370DB" stop-opacity="0.65"/>
      <stop offset="65%" stop-color="#AA96DA" stop-opacity="0.6"/>
      <stop offset="100%" stop-color="#1A1025" stop-opacity="1"/>
    </radialGradient>
    <filter id="glow"><feGaussianBlur stdDeviation="4" result="b"/>
      <feMerge><feMergeNode in="b"/><feMergeNode in="SourceGraphic"/></feMerge>
    </filter>
    <filter id="soft-glow"><feGaussianBlur stdDeviation="8" result="b"/>
      <feMerge><feMergeNode in="b"/><feMergeNode in="SourceGraphic"/></feMerge>
    </filter>
    <filter id="blur-heavy"><feGaussianBlur stdDeviation="16"/></filter>
  </defs>
  <rect width="800" height="800" fill="url(#bg-grad)"/>
  <g id="storm" opacity="0.35">
    <path d="M 536,308 L 539,309 L 541,312 L 542,315 L 543,318 L 543,322 L 542,327 L 539,331 L 536,335 L 531,338 L 525,340 L 519,341 L 512,341 L 505,339 L 498,336 L 491,331 L 485,325 L 480,317 L 476,308 L 475,298 L 475,287 L 477,277 L 481,266 L 487,256 L 496,247 L 506,239 L 518,233 L 531,229 L 545,227 L 560,228 L 575,232 L 589,239 L 602,248 L 614,260 L 624,274 L 631,290 L 635,308 L 636,327 L 634,345 L 628,364 L 619,382 L 607,398 L 591,412 L 573,424 L 553,432 L 531,437 L 508,438 L 485,434 L 463,427 L 441,415 L 422,400 L 405,381 L 392,359 L 383,334 L 378,308 L 377,281 L 382,254 L 391,227 L 405,202 L 423,180 L 446,161 L 472,146 L 501,135 L 531,130 L 562,130 L 594,135 L 624,146 L 653,163 L 678,185 L 700,211 L 717,240 L 728,273 L 734,308 L 734,344 L 727,379 L 714,414 L 695,446 L 670,474 L 641,498 L 607,517 L 570,530 L 531,536 L 491,535 L 451,527 L 413,512 L 378,491 L 346,463 L 319,430 L 299,392 L 285,351 L 278,308 L 280,264 L 289,220 L 305,178 L 329,139 L 360,104 L 396,75 L 438,53 L 483,38 L 531,31" fill="none" stroke="#6C5B7B" stroke-width="0.8" opacity="0.2"/>
    <rect x="570" y="290" width="2" height="2" fill="#6C5B7B" opacity="0.1" transform="rotate(321 570 290)"/>
    <rect x="509" y="231" width="4" height="4" fill="#6C5B7B" opacity="0.1" transform="rotate(68 509 231)"/>
    <rect x="448" y="372" width="6" height="6" fill="#6C5B7B" opacity="0.1" transform="rotate(175 448 372)"/>
    <rect x="587" y="313" width="3" height="3" fill="#6C5B7B" opacity="0.1" transform="rotate(282 587 313)"/>
    <rect x="526" y="254" width="5" height="5" fill="#6C5B7B" opacity="0.1" transform="rotate(29 526 254)"/>
    <rect x="465" y="395" width="2" height="2" fill="#6C5B7B" opacity="0.1" transform="rotate(136 465 395)"/>
    <rect x="604" y="336" width="4" height="4" fill="#6C5B7B" opacity="0.1" transform="rotate(243 604 336)"/>
    <rect x="543" y="277" width="6" height="6" fill="#6C5B7B" opacity="0.1" transform="rotate(350 543 277)"/>
    <rect x="482" y="218" width="3" height="3" fill="#6C5B7B" opacity="0.1" transform="rotate(97 482 218)"/>
    <path d="M 517,487 L 520,488 L 522,491 L 523,494 L 524,497 L 524,501 L 523,506 L 520,510 L 517,514 L 512,517 L 506,519 L 500,520 L 493,520 L 486,518 L 479,515 L 472,510 L 466,504 L 461,496 L 458,487 L 456,477 L 456,466 L 458,456 L 462,445 L 468,435 L 476,426 L 487,418 L 499,412 L 512,408 L 526,406 L 541,407 L 556,411 L 570,418 L 583,427 L 595,439 L 605,453 L 612,469 L 616,487 L 617,506 L 615,524 L 609,543 L 600,561 L 588,577 L 572,591 L 554,603 L 534,611 L 512,616 L 489,617 L 466,613 L 444,606 L 422,594 L 403,579 L 386,560 L 373,538 L 364,513 L 358,487 L 358,460 L 363,433 L 372,406 L 386,381 L 404,359 L 427,340 L 453,325 L 482,314 L 512,309 L 543,309 L 575,314 L 605,325 L 634,342 L 659,364 L 681,390 L 698,419 L 709,452 L 715,487 L 715,523 L 708,558 L 695,593 L 676,625 L 651,653 L 622,677 L 588,696 L 551,709 L 512,715 L 472,714 L 432,706 L 394,691 L 359,670 L 327,642 L 300,609 L 280,571 L 266,530 L 260,487 L 261,443 L 270,399 L 286,357 L 310,318 L 341,283 L 377,254 L 419,232 L 464,217 L 512,210" fill="none" stroke="#6C5B7B" stroke-width="0.8" opacity="0.2"/>
    <rect x="490" y="410" width="2" height="2" fill="#6C5B7B" opacity="0.1" transform="rotate(321 490 410)"/>
    <rect x="429" y="551" width="4" height="4" fill="#6C5B7B" opacity="0.1" transform="rotate(68 429 551)"/>
    <rect x="568" y="492" width="6" height="6" fill="#6C5B7B" opacity="0.1" transform="rotate(175 568 492)"/>
    <rect x="507" y="433" width="3" height="3" fill="#6C5B7B" opacity="0.1" transform="rotate(282 507 433)"/>
    <rect x="446" y="574" width="5" height="5" fill="#6C5B7B" opacity="0.1" transform="rotate(29 446 574)"/>
    <rect x="585" y="515" width="2" height="2" fill="#6C5B7B" opacity="0.1" transform="rotate(136 585 515)"/>
    <rect x="524" y="456" width="4" height="4" fill="#6C5B7B" opacity="0.1" transform="rotate(243 524 456)"/>
    <rect x="463" y="397" width="6" height="6" fill="#6C5B7B" opacity="0.1" transform="rotate(350 463 397)"/>
    <rect x="602" y="538" width="3" height="3" fill="#6C5B7B" opacity="0.1" transform="rotate(97 602 538)"/>
    <path d="M 498,366 L 501,367 L 503,370 L 504,373 L 505,376 L 505,380 L 504,385 L 501,389 L 498,393 L 493,396 L 487,398 L 481,399 L 474,399 L 467,397 L 460,394 L 453,389 L 447,383 L 442,375 L 438,366 L 437,356 L 437,345 L 439,335 L 443,324 L 449,314 L 458,305 L 468,297 L 480,291 L 493,287 L 507,285 L 522,286 L 537,290 L 551,297 L 564,306 L 576,318 L 586,332 L 593,348 L 597,366 L 598,385 L 596,403 L 590,422 L 581,440 L 569,456 L 553,470 L 535,482 L 515,490 L 493,495 L 470,496 L 447,492 L 425,485 L 403,473 L 384,458 L 367,439 L 354,417 L 345,392 L 340,366 L 339,339 L 344,312 L 353,285 L 367,260 L 385,238 L 408,219 L 434,204 L 463,193 L 493,188 L 524,188 L 556,193 L 586,204 L 615,221 L 640,243 L 662,269 L 679,298 L 690,331 L 696,366 L 696,402 L 689,437 L 676,472 L 657,504 L 632,532 L 603,556 L 569,575 L 532,588 L 493,594 L 453,593 L 413,585 L 375,570 L 340,549 L 308,521 L 281,488 L 261,450 L 247,409 L 240,366 L 242,322 L 251,278 L 267,236 L 291,197 L 322,162 L 358,133 L 400,111 L 445,96 L 493,89" fill="none" stroke="#6C5B7B" stroke-width="0.8" opacity="0.2"/>
    <rect x="410" y="430" width="2" height="2" fill="#6C5B7B" opacity="0.1" transform="rotate(321 410 430)"/>
    <rect x="549" y="371" width="4" height="4" fill="#6C5B7B" opacity="0.1" transform="rotate(68 549 371)"/>
    <rect x="488" y="312" width="6" height="6" fill="#6C5B7B" opacity="0.1" transform="rotate(175 488 312)"/>
    <rect x="427" y="453" width="3" height="3" fill="#6C5B7B" opacity="0.1" transform="rotate(282 427 453)"/>
    <rect x="566" y="394" width="5" height="5" fill="#6C5B7B" opacity="0.1" transform="rotate(29 566 394)"/>
    <rect x="505" y="335" width="2" height="2" fill="#6C5B7B" opacity="0.1" transform="rotate(136 505 335)"/>
    <rect x="444" y="276" width="4" height="4" fill="#6C5B7B" opacity="0.1" transform="rotate(243 444 276)"/>
    <rect x="583" y="417" width="6" height="6" fill="#6C5B7B" opacity="0.1" transform="rotate(350 583 417)"/>
    <rect x="522" y="358" width="3" height="3" fill="#6C5B7B" opacity="0.1" transform="rotate(97 522 358)"/>
  </g>

  <g id="neural" filter="url(#glow)">
    <circle cx="537" cy="738" r="2.5" fill="white" opacity="0.40"/>
    <circle cx="431" cy="140" r="2.5" fill="white" opacity="0.40"/>
    <circle cx="325" cy="222" r="2.5" fill="white" opacity="0.40"/>
    <circle cx="219" cy="304" r="2.5" fill="white" opacity="0.40"/>
    <circle cx="113" cy="386" r="2.5" fill="white" opacity="0.40"/>
    <circle cx="687" cy="468" r="2.5" fill="white" opacity="0.40"/>
    <circle cx="581" cy="550" r="2.5" fill="white" opacity="0.40"/>
    <circle cx="475" cy="632" r="2.5" fill="white" opacity="0.40"/>
  </g>
  <g id="core" filter="url(#soft-glow)">
    <circle cx="400" cy="400" r="72" fill="#6C5B7B" opacity="0.11"/>
    <circle cx="400" cy="400" r="58" fill="#6C5B7B" opacity="0.22"/>
    <circle cx="400" cy="400" r="42" fill="#E6E6FA" opacity="0.55"/>
    <circle cx="400" cy="400" r="15" fill="white" opacity="0.47"/>
  </g>
  <g id="day-rings" opacity="0.12">
    <circle cx="400" cy="400" r="280" fill="none" stroke="white" stroke-width="0.6" stroke-dasharray="3,5"/>
    <circle cx="400" cy="400" r="305" fill="none" stroke="white" stroke-width="0.6" stroke-dasharray="5,8"/>
  </g>
  <defs>
    <radialGradient id="vignette" cx="50%" cy="50%" r="50%">
      <stop offset="55%" stop-color="transparent"/>
      <stop offset="100%" stop-color="black" stop-opacity="0.45"/>
    </radialGradient>
  </defs>
  <rect width="800" height="800" fill="url(#vignette)"/>
</svg>