<svg viewBox="0 0 800 800" xmlns="http://www.w3.org/2000/svg">
  <defs>
    <filter id="glow"><feGaussianBlur stdDeviation="5" result="b"/><feMerge><feMergeNode in="b"/><feMergeNode in="SourceGraphic"/></feMerge></filter>
    <filter id="s-glow"><feGaussianBlur stdDeviation="12" result="b"/><feMerge><feMergeNode in="b"/><feMergeNode in="SourceGraphic"/></feMerge></filter>
    <filter id="blur-h"><feGaussianBlur stdDeviation="22"/></filter>
    <radialGradient id="vig" cx="50%" cy="50%" r="60%">
      <stop offset="0%" stop-color="black" stop-opacity="0"/>
      <stop offset="100%" stop-color="black" stop-opacity="0.30"/>
    </radialGradient>
  </defs>
  <rect width="800" height="800" fill="#131110"/>
  <defs>
    <radialGradient id="bg3255a" cx="48%" cy="51%" r="75%">
      <stop offset="0%" stop-color="#362e25"/>
      <stop offset="100%" stop-color="#131110"/>
    </radialGradient>
    <radialGradient id="bg3255b" cx="59%" cy="60%" r="50%">
      <stop offset="0%" stop-color="#221e1b" stop-opacity=".7"/>
      <stop offset="100%" stop-color="#131110" stop-opacity="0"/>
    </radialGradient>
    <filter id="noise3255">
      <feTurbulence type="fractalNoise" baseFrequency="0.0031" numOctaves="4" seed="909"/>
      <feColorMatrix type="saturate" values="0"/>
      <feComponentTransfer><feFuncA type="linear" slope="0.040"/></feComponentTransfer>
      <feBlend in="SourceGraphic" mode="screen"/>
    </filter>
  </defs>
  <rect width="800" height="800" fill="url(#bg3255a)"/>
  <rect width="800" height="800" fill="url(#bg3255b)"/>
  <rect width="800" height="800" filter="url(#noise3255)" opacity=".4"/>
  <g id="atmosphere">
  <circle cx="383" cy="410" r="320" fill="#ce8d4a" opacity="0.100" filter="url(#blur-h)"/>
  <circle cx="-5" cy="410" r="178" fill="#429fbe" opacity="0.065" filter="url(#blur-h)"/>
  <circle cx="16" cy="133" r="349" fill="#50c64e" opacity="0.057" filter="url(#blur-h)"/>
  <circle cx="659" cy="769" r="323" fill="#78624b" opacity="0.035" filter="url(#blur-h)"/>
  <circle cx="853" cy="522" r="321" fill="#57ba3b" opacity="0.044" filter="url(#blur-h)"/>
  </g>
  <g id="back">
    <circle cx="202" cy="523" r="113" fill="#4fc346" opacity="0.114" filter="url(#blur-h)"/>
    <circle cx="357" cy="744" r="199" fill="#4dbc3c" opacity="0.063" filter="url(#blur-h)"/>
    <circle cx="479" cy="58" r="127" fill="#c86f36" opacity="0.128" filter="url(#blur-h)"/>
    <circle cx="575" cy="590" r="81" fill="#4cb73a" opacity="0.044" filter="url(#blur-h)"/>
    <circle cx="718" cy="514" r="113" fill="#3e8eb7" opacity="0.061" filter="url(#blur-h)"/>
    <circle cx="466" cy="30" r="147" fill="#4693bf" opacity="0.096" filter="url(#blur-h)"/>
    <circle cx="66" cy="742" r="120" fill="#d09154" opacity="0.122" filter="url(#blur-h)"/>
    <circle cx="356" cy="42" r="90" fill="#5cc854" opacity="0.049" filter="url(#blur-h)"/>
    <circle cx="223" cy="297" r="77" fill="#cc8244" opacity="0.031" filter="url(#blur-h)"/>
    <circle cx="223" cy="297" r="77" fill="none" stroke="#cc8244" stroke-width="0.7" opacity="0.056"/>
    <circle cx="224" cy="845" r="52" fill="#c9a039" opacity="0.045" filter="url(#blur-h)"/>
    <circle cx="224" cy="845" r="52" fill="none" stroke="#c9a039" stroke-width="0.6" opacity="0.081"/>
    <circle cx="454" cy="764" r="77" fill="#d0ab52" opacity="0.075" filter="url(#blur-h)"/>
    <circle cx="454" cy="764" r="77" fill="none" stroke="#d0ab52" stroke-width="0.6" opacity="0.134"/>
    <circle cx="681" cy="469" r="78" fill="#4ec449" opacity="0.085" filter="url(#blur-h)"/>
    <circle cx="681" cy="469" r="78" fill="none" stroke="#4ec449" stroke-width="0.6" opacity="0.153"/>
    <circle cx="211" cy="30" r="73" fill="#ca813c" opacity="0.088" filter="url(#blur-h)"/>
    <circle cx="211" cy="30" r="73" fill="none" stroke="#ca813c" stroke-width="1.1" opacity="0.158"/>
    <circle cx="363" cy="594" r="52" fill="#3982a9" opacity="0.064" filter="url(#blur-h)"/>
    <circle cx="363" cy="594" r="52" fill="none" stroke="#3982a9" stroke-width="0.8" opacity="0.115"/>
    <circle cx="531" cy="276" r="34" fill="#d08d54" opacity="0.051" filter="url(#blur-h)"/>
    <circle cx="531" cy="276" r="34" fill="none" stroke="#d08d54" stroke-width="1.0" opacity="0.092"/>
    <circle cx="744" cy="681" r="88" fill="#4194be" opacity="0.059" filter="url(#blur-h)"/>
    <circle cx="744" cy="681" r="88" fill="none" stroke="#4194be" stroke-width="1.0" opacity="0.106"/>
    <circle cx="745" cy="-39" r="88" fill="#4465bf" opacity="0.063" filter="url(#blur-h)"/>
    <circle cx="745" cy="-39" r="88" fill="none" stroke="#4465bf" stroke-width="0.9" opacity="0.113"/>
    <circle cx="528" cy="366" r="77" fill="#63c650" opacity="0.051" filter="url(#blur-h)"/>
    <circle cx="528" cy="366" r="77" fill="none" stroke="#63c650" stroke-width="0.9" opacity="0.093"/>
    <circle cx="718" cy="516" r="57" fill="#cf9651" opacity="0.069" filter="url(#blur-h)"/>
    <circle cx="718" cy="516" r="57" fill="none" stroke="#cf9651" stroke-width="0.9" opacity="0.125"/>
    <circle cx="303" cy="499" r="77" fill="#d08c51" opacity="0.070" filter="url(#blur-h)"/>
    <circle cx="303" cy="499" r="77" fill="none" stroke="#d08c51" stroke-width="0.8" opacity="0.126"/>
  </g>
  <g id="brushstrokes" opacity="0.70">
    <path d="M568.2,604.9 Q574.6,605.0 615.9,633.9 Q657.1,662.8 654.4,648.0 Q651.8,633.1 658.8,645.0 Q665.8,656.9 697.5,678.5 L729.3,700.0" stroke="#eee7a8" stroke-width="10" fill="none" opacity="0.035" stroke-linecap="round"/>
    <path d="M99.1,623.4 Q108.7,631.6 128.7,611.4 Q148.7,591.2 164.4,619.5 Q180.0,647.8 198.0,615.6 Q216.0,583.4 225.2,594.5 Q234.3,605.6 227.8,613.2 Q221.3,620.9 244.7,612.9 Q268.1,604.9 262.9,597.0 Q257.7,589.0 275.0,580.6 Q292.3,572.2 315.6,580.3 L338.8,588.3" stroke="#3bba3c" stroke-width="11" fill="none" opacity="0.058" stroke-linecap="round"/>
    <path d="M524.7,539.5 Q524.1,531.1 548.8,534.1 Q573.4,537.1 565.8,534.8 Q558.2,532.5 555.1,535.7 Q551.9,538.8 588.2,530.5 Q624.5,522.2 622.1,522.2 Q619.7,522.2 629.7,527.5 Q639.8,532.8 641.7,498.5 Q643.7,464.1 640.8,482.4 Q637.9,500.7 646.5,520.3 L655.2,539.8" stroke="#e8bf87" stroke-width="10" fill="none" opacity="0.107" stroke-linecap="round"/>
    <path d="M661.4,427.1 Q653.1,406.8 654.2,397.1 Q655.3,387.4 668.8,362.6 Q682.3,337.9 675.4,341.1 Q668.5,344.3 654.4,340.9 Q640.3,337.5 664.2,323.8 Q688.2,310.0 676.0,301.7 Q663.8,293.4 672.1,291.2 Q680.3,289.0 672.7,277.1 L665.0,265.3" stroke="#cc9345" stroke-width="4" fill="none" opacity="0.078" stroke-linecap="round"/>
    <path d="M120.8,-28.1 Q113.5,-20.6 110.1,-3.4 Q106.6,13.7 101.9,54.3 Q97.2,94.8 110.7,72.0 Q124.1,49.1 120.3,75.2 Q116.5,101.4 115.9,121.3 L115.4,141.3" stroke="#d18057" stroke-width="10" fill="none" opacity="0.098" stroke-linecap="round"/>
    <path d="M810.4,318.1 Q852.9,281.5 860.8,289.8 Q868.7,298.0 888.5,278.8 Q908.2,259.7 932.4,236.0 Q956.6,212.3 925.5,204.5 L894.4,196.7" stroke="#ebd498" stroke-width="13" fill="none" opacity="0.040" stroke-linecap="round"/>
    <path d="M492.0,624.9 Q491.2,691.5 503.5,674.3 Q515.9,657.2 524.0,674.7 Q532.1,692.1 547.4,692.2 Q562.6,692.3 573.1,711.2 Q583.5,730.1 592.7,741.7 Q601.9,753.4 586.6,760.2 Q571.3,767.0 573.3,791.8 Q575.4,816.6 619.8,810.8 Q664.3,805.0 656.8,817.4 L649.4,829.8" stroke="#4472bf" stroke-width="16" fill="none" opacity="0.065" stroke-linecap="round"/>
    <path d="M533.1,652.4 Q562.6,643.7 558.1,649.2 Q553.5,654.7 600.8,664.2 Q648.1,673.7 602.3,659.8 Q556.5,646.0 580.0,652.0 Q603.4,658.1 621.4,663.8 Q639.5,669.4 648.2,673.8 L657.0,678.2" stroke="#e7d084" stroke-width="10" fill="none" opacity="0.035" stroke-linecap="round"/>
  </g>
  <g id="nebula" opacity="0.59">
    <circle cx="641" cy="301" r="71" fill="#ca7e3c" opacity="0.042" filter="url(#blur-h)"/>
    <circle cx="95" cy="752" r="178" fill="#cf8f4f" opacity="0.046" filter="url(#blur-h)"/>
    <circle cx="563" cy="127" r="142" fill="#45c356" opacity="0.047" filter="url(#blur-h)"/>
    <circle cx="768" cy="558" r="89" fill="#c96b3a" opacity="0.066" filter="url(#blur-h)"/>
    <circle cx="35" cy="460" r="209" fill="#3d85b4" opacity="0.113" filter="url(#blur-h)"/>
    <circle cx="108" cy="574" r="198" fill="#3c6cb0" opacity="0.056" filter="url(#blur-h)"/>
  </g>
  <g id="curves" opacity="0.46">
    <path d="M-36.4,-25.9 Q588.2,47.3 523.7,118.4 Q459.2,189.5 641.8,119.1 L824.4,48.7" stroke="#4996c0" stroke-width="0.5" fill="none" opacity="0.09"/>
    <path d="M0.9,286.5 Q424.0,439.3 406.5,335.8 Q389.0,232.4 452.1,477.3 Q515.1,722.2 324.8,737.6 Q134.5,753.0 471.9,506.9 L809.3,260.7" stroke="#c96b38" stroke-width="2.8" fill="none" opacity="0.16"/>
    <path d="M-40.2,330.2 Q309.2,665.7 340.3,473.2 Q371.5,280.7 609.2,192.4 L846.9,104.2" stroke="#c97438" stroke-width="1.4" fill="none" opacity="0.16"/>
    <path d="M1.4,57.6 Q91.9,93.8 249.7,248.9 Q407.5,404.1 434.4,383.8 Q461.3,363.6 429.2,427.2 Q397.2,490.8 606.5,478.3 L815.7,465.8" stroke="#42c246" stroke-width="2.7" fill="none" opacity="0.07"/>
    <path d="M3.4,170.0 Q102.8,-13.9 154.5,50.5 Q206.3,115.0 445.4,339.3 Q684.6,563.6 604.3,458.1 Q524.0,352.7 293.0,452.2 Q62.0,551.8 437.2,688.8 L812.4,825.8" stroke="#d1a557" stroke-width="1.4" fill="none" opacity="0.14"/>
    <path d="M-3.2,87.0 Q577.6,-20.8 520.0,-3.4 Q462.5,13.9 548.8,285.4 Q635.1,556.9 494.1,633.6 Q353.1,710.3 583.3,693.5 L813.5,676.8" stroke="#4dc65d" stroke-width="1.4" fill="none" opacity="0.10"/>
    <path d="M-4.6,104.9 Q357.3,705.2 474.4,748.5 Q591.5,791.8 713.8,747.2 L836.0,702.6" stroke="#3c79b1" stroke-width="2.6" fill="none" opacity="0.10"/>
    <path d="M-13.9,140.6 Q167.9,593.9 365.7,555.5 Q563.6,517.1 312.0,436.0 Q60.5,354.9 447.7,378.7 L834.9,402.5" stroke="#56c958" stroke-width="1.7" fill="none" opacity="0.06"/>
    <path d="M-28.9,214.9 Q482.9,374.9 565.9,383.4 Q648.9,391.9 536.0,465.6 Q423.0,539.4 379.5,330.4 Q336.1,121.4 582.3,186.6 L828.6,251.7" stroke="#456ebf" stroke-width="1.0" fill="none" opacity="0.08"/>
    <path d="M-19.6,55.1 Q274.4,81.3 265.5,274.2 Q256.6,467.0 312.6,258.6 Q368.6,50.3 356.5,201.1 Q344.3,352.0 581.6,458.5 L818.8,565.0" stroke="#c89336" stroke-width="1.7" fill="none" opacity="0.07"/>
  </g>
  <g id="constellation" opacity="0.37">
    <line x1="198" y1="677" x2="200" y2="567" stroke="#47c447" stroke-width="0.6" opacity="0.030"/>
    <line x1="198" y1="677" x2="91" y2="666" stroke="#47c447" stroke-width="0.6" opacity="0.027"/>
    <line x1="198" y1="677" x2="309" y2="636" stroke="#47c447" stroke-width="0.6" opacity="0.030"/>
    <line x1="198" y1="677" x2="213" y2="660" stroke="#47c447" stroke-width="0.6" opacity="0.106"/>
    <line x1="359" y1="305" x2="370" y2="259" stroke="#47c447" stroke-width="0.6" opacity="0.097"/>
    <line x1="332" y1="21" x2="237" y2="58" stroke="#47c447" stroke-width="0.6" opacity="0.026"/>
    <line x1="332" y1="21" x2="306" y2="135" stroke="#47c447" stroke-width="0.6" opacity="0.028"/>
    <line x1="116" y1="282" x2="99" y2="191" stroke="#47c447" stroke-width="0.6" opacity="0.029"/>
    <line x1="306" y1="135" x2="329" y2="137" stroke="#47c447" stroke-width="0.6" opacity="0.109"/>
    <line x1="306" y1="135" x2="201" y2="162" stroke="#47c447" stroke-width="0.6" opacity="0.030"/>
    <line x1="132" y1="497" x2="111" y2="510" stroke="#47c447" stroke-width="0.6" opacity="0.108"/>
    <line x1="309" y1="636" x2="352" y2="594" stroke="#47c447" stroke-width="0.6" opacity="0.073"/>
    <line x1="309" y1="636" x2="213" y2="660" stroke="#47c447" stroke-width="0.6" opacity="0.031"/>
    <line x1="474" y1="423" x2="446" y2="537" stroke="#47c447" stroke-width="0.6" opacity="0.036"/>
    <line x1="204" y1="179" x2="201" y2="162" stroke="#47c447" stroke-width="0.6" opacity="0.113"/>
    <line x1="204" y1="179" x2="99" y2="191" stroke="#47c447" stroke-width="0.6" opacity="0.029"/>
    <line x1="723" y1="428" x2="681" y2="514" stroke="#47c447" stroke-width="0.6" opacity="0.029"/>
    <line x1="714" y1="456" x2="681" y2="514" stroke="#47c447" stroke-width="0.6" opacity="0.057"/>
    <circle cx="618" cy="246" r="2.5" fill="white" opacity="0.37"/>
    <circle cx="618" cy="246" r="8.5" fill="#ce8d4a" opacity="0.044"/>
    <circle cx="198" cy="677" r="3.1" fill="white" opacity="0.49"/>
    <circle cx="198" cy="677" r="9.1" fill="#d08e53" opacity="0.059"/>
    <circle cx="20" cy="372" r="1.5" fill="white" opacity="0.19"/>
    <circle cx="413" cy="671" r="3.5" fill="white" opacity="0.58"/>
    <circle cx="413" cy="671" r="9.5" fill="#cf8e50" opacity="0.070"/>
    <circle cx="414" cy="223" r="1.8" fill="white" opacity="0.23"/>
    <circle cx="359" cy="305" r="3.0" fill="white" opacity="0.49"/>
    <circle cx="359" cy="305" r="9.0" fill="#ce8d4a" opacity="0.059"/>
    <circle cx="332" cy="21" r="2.2" fill="white" opacity="0.32"/>
    <circle cx="332" cy="21" r="8.2" fill="#ce8d4a" opacity="0.039"/>
    <circle cx="200" cy="567" r="3.9" fill="white" opacity="0.67"/>
    <circle cx="200" cy="567" r="9.9" fill="#ca843c" opacity="0.080"/>
    <circle cx="370" cy="259" r="2.9" fill="white" opacity="0.46"/>
    <circle cx="370" cy="259" r="8.9" fill="#cc7e46" opacity="0.055"/>
    <circle cx="116" cy="282" r="1.9" fill="white" opacity="0.25"/>
    <circle cx="237" cy="58" r="1.9" fill="white" opacity="0.26"/>
    <circle cx="306" cy="135" r="2.6" fill="white" opacity="0.39"/>
    <circle cx="306" cy="135" r="8.6" fill="#ce944a" opacity="0.047"/>
    <circle cx="645" cy="52" r="1.4" fill="white" opacity="0.17"/>
    <circle cx="230" cy="352" r="3.5" fill="white" opacity="0.58"/>
    <circle cx="230" cy="352" r="9.5" fill="#ce964b" opacity="0.070"/>
    <circle cx="42" cy="108" r="2.8" fill="white" opacity="0.43"/>
    <circle cx="42" cy="108" r="8.8" fill="#ce934c" opacity="0.051"/>
    <circle cx="132" cy="497" r="3.1" fill="white" opacity="0.51"/>
    <circle cx="132" cy="497" r="9.1" fill="#ce9a4a" opacity="0.061"/>
    <circle cx="329" cy="137" r="2.7" fill="white" opacity="0.41"/>
    <circle cx="329" cy="137" r="8.7" fill="#ce8d4a" opacity="0.050"/>
    <circle cx="91" cy="666" r="2.0" fill="white" opacity="0.27"/>
    <circle cx="309" cy="636" r="1.4" fill="white" opacity="0.16"/>
    <circle cx="544" cy="721" r="2.8" fill="white" opacity="0.43"/>
    <circle cx="544" cy="721" r="8.8" fill="#c98f3b" opacity="0.052"/>
    <circle cx="557" cy="52" r="2.1" fill="white" opacity="0.29"/>
    <circle cx="474" cy="423" r="3.1" fill="white" opacity="0.51"/>
    <circle cx="474" cy="423" r="9.1" fill="#d08d53" opacity="0.061"/>
    <circle cx="81" cy="43" r="2.7" fill="white" opacity="0.40"/>
    <circle cx="81" cy="43" r="8.7" fill="#ce8d4a" opacity="0.048"/>
    <circle cx="352" cy="594" r="2.3" fill="white" opacity="0.33"/>
    <circle cx="49" cy="359" r="1.5" fill="white" opacity="0.18"/>
    <circle cx="360" cy="578" r="1.5" fill="white" opacity="0.17"/>
    <circle cx="446" cy="537" r="2.1" fill="white" opacity="0.30"/>
    <circle cx="755" cy="151" r="1.5" fill="white" opacity="0.19"/>
    <circle cx="204" cy="179" r="2.3" fill="white" opacity="0.35"/>
    <circle cx="111" cy="510" r="2.7" fill="white" opacity="0.43"/>
    <circle cx="111" cy="510" r="8.7" fill="#cc7d44" opacity="0.051"/>
    <circle cx="723" cy="428" r="1.8" fill="white" opacity="0.24"/>
    <circle cx="201" cy="162" r="3.0" fill="white" opacity="0.47"/>
    <circle cx="201" cy="162" r="9.0" fill="#ce8d4a" opacity="0.057"/>
    <circle cx="99" cy="191" r="1.4" fill="white" opacity="0.15"/>
    <circle cx="213" cy="660" r="3.4" fill="white" opacity="0.56"/>
    <circle cx="213" cy="660" r="9.4" fill="#ce8d4a" opacity="0.068"/>
    <circle cx="639" cy="472" r="1.5" fill="white" opacity="0.17"/>
    <circle cx="126" cy="755" r="2.2" fill="white" opacity="0.31"/>
    <circle cx="126" cy="755" r="8.2" fill="#ce804b" opacity="0.037"/>
    <circle cx="714" cy="456" r="1.4" fill="white" opacity="0.16"/>
    <circle cx="681" cy="514" r="2.8" fill="white" opacity="0.43"/>
    <circle cx="681" cy="514" r="8.8" fill="#cd7d47" opacity="0.051"/>
    <circle cx="60" cy="41" r="2.3" fill="white" opacity="0.34"/>
    <circle cx="60" cy="41" r="8.3" fill="#d08651" opacity="0.041"/>
  </g>
  <g id="bokeh-fg" opacity="0.35">
    <circle cx="400" cy="-38" r="27" fill="#3bba41" opacity="0.039" filter="url(#blur-h)"/>
    <circle cx="400" cy="-38" r="27" fill="none" stroke="#3bba41" stroke-width="0.7" opacity="0.070"/>
    <circle cx="772" cy="444" r="30" fill="#55c862" opacity="0.076" filter="url(#blur-h)"/>
    <circle cx="772" cy="444" r="30" fill="none" stroke="#55c862" stroke-width="0.8" opacity="0.137"/>
    <circle cx="82" cy="655" r="29" fill="#58c967" opacity="0.043" filter="url(#blur-h)"/>
    <circle cx="82" cy="655" r="29" fill="none" stroke="#58c967" stroke-width="0.8" opacity="0.077"/>
    <circle cx="308" cy="699" r="95" fill="#446fbf" opacity="0.058" filter="url(#blur-h)"/>
    <circle cx="308" cy="699" r="95" fill="none" stroke="#446fbf" stroke-width="1.1" opacity="0.105"/>
    <circle cx="787" cy="607" r="72" fill="#70ca5a" opacity="0.061" filter="url(#blur-h)"/>
    <circle cx="787" cy="607" r="72" fill="none" stroke="#70ca5a" stroke-width="0.6" opacity="0.109"/>
    <circle cx="749" cy="471" r="92" fill="#c96439" opacity="0.104" filter="url(#blur-h)"/>
    <circle cx="749" cy="471" r="92" fill="none" stroke="#c96439" stroke-width="0.9" opacity="0.187"/>
    <circle cx="271" cy="86" r="30" fill="#cf9c51" opacity="0.078" filter="url(#blur-h)"/>
    <circle cx="271" cy="86" r="30" fill="none" stroke="#cf9c51" stroke-width="0.5" opacity="0.141"/>
    <circle cx="808" cy="58" r="74" fill="#c99439" opacity="0.046" filter="url(#blur-h)"/>
    <circle cx="808" cy="58" r="74" fill="none" stroke="#c99439" stroke-width="1.0" opacity="0.083"/>
    <circle cx="74" cy="536" r="51" fill="#cd6f49" opacity="0.112" filter="url(#blur-h)"/>
    <circle cx="74" cy="536" r="51" fill="none" stroke="#cd6f49" stroke-width="0.6" opacity="0.202"/>
    <circle cx="364" cy="271" r="78" fill="#4cb93b" opacity="0.067" filter="url(#blur-h)"/>
    <circle cx="364" cy="271" r="78" fill="none" stroke="#4cb93b" stroke-width="1.0" opacity="0.120"/>
    <circle cx="659" cy="563" r="61" fill="#51c767" opacity="0.048" filter="url(#blur-h)"/>
    <circle cx="659" cy="563" r="61" fill="none" stroke="#51c767" stroke-width="1.0" opacity="0.086"/>
    <circle cx="733" cy="634" r="34" fill="#446cbf" opacity="0.051" filter="url(#blur-h)"/>
    <circle cx="733" cy="634" r="34" fill="none" stroke="#446cbf" stroke-width="0.6" opacity="0.092"/>
    <circle cx="185" cy="772" r="86" fill="#3c6fb1" opacity="0.059" filter="url(#blur-h)"/>
    <circle cx="185" cy="772" r="86" fill="none" stroke="#3c6fb1" stroke-width="0.7" opacity="0.105"/>
    <circle cx="349" cy="17" r="87" fill="#397fa8" opacity="0.047" filter="url(#blur-h)"/>
    <circle cx="349" cy="17" r="87" fill="none" stroke="#397fa8" stroke-width="0.4" opacity="0.084"/>
    <circle cx="292" cy="494" r="35" fill="#51c751" opacity="0.072" filter="url(#blur-h)"/>
    <circle cx="292" cy="494" r="35" fill="none" stroke="#51c751" stroke-width="0.6" opacity="0.129"/>
    <circle cx="254" cy="437" r="91" fill="#428abe" opacity="0.058" filter="url(#blur-h)"/>
    <circle cx="254" cy="437" r="91" fill="none" stroke="#428abe" stroke-width="0.7" opacity="0.104"/>
  </g>
  <g id="volumetric" opacity="0.62">
    <ellipse cx="336" cy="442" rx="143" ry="59" fill="#d08454" opacity="0.019" transform="rotate(27 336 442)" filter="url(#blur-h)"/>
    <ellipse cx="353" cy="379" rx="107" ry="63" fill="#d28259" opacity="0.019" transform="rotate(4 353 379)" filter="url(#blur-h)"/>
    <ellipse cx="373" cy="487" rx="193" ry="154" fill="#d09a52" opacity="0.036" transform="rotate(29 373 487)" filter="url(#blur-h)"/>
    <ellipse cx="406" cy="364" rx="130" ry="80" fill="#d18f57" opacity="0.020" transform="rotate(22 406 364)" filter="url(#blur-h)"/>
  </g>
  <g id="stars">
    <circle cx="669" cy="615" r="1.7" fill="white" opacity="0.34"/>
    <circle cx="108" cy="644" r="2.0" fill="white" opacity="0.43"/>
    <circle cx="611" cy="426" r="2.6" fill="white" opacity="0.15"/>
    <circle cx="611" cy="426" r="7.6" fill="white" opacity="0.009"/>
    <circle cx="594" cy="377" r="3.0" fill="white" opacity="0.47"/>
    <circle cx="594" cy="377" r="8.0" fill="white" opacity="0.028"/>
    <circle cx="533" cy="62" r="2.4" fill="white" opacity="0.24"/>
    <circle cx="533" cy="62" r="7.4" fill="white" opacity="0.015"/>
    <circle cx="142" cy="425" r="2.3" fill="white" opacity="0.43"/>
    <circle cx="142" cy="425" r="7.3" fill="white" opacity="0.026"/>
    <circle cx="401" cy="439" r="1.5" fill="white" opacity="0.34"/>
    <circle cx="269" cy="20" r="0.7" fill="white" opacity="0.35"/>
    <circle cx="717" cy="105" r="2.3" fill="white" opacity="0.33"/>
    <circle cx="717" cy="105" r="7.3" fill="white" opacity="0.020"/>
    <circle cx="440" cy="-3" r="2.1" fill="white" opacity="0.37"/>
    <circle cx="440" cy="-3" r="7.1" fill="white" opacity="0.022"/>
    <circle cx="681" cy="610" r="1.7" fill="white" opacity="0.18"/>
    <circle cx="601" cy="268" r="1.2" fill="white" opacity="0.10"/>
    <circle cx="135" cy="223" r="2.1" fill="white" opacity="0.19"/>
    <circle cx="135" cy="223" r="7.1" fill="white" opacity="0.011"/>
    <circle cx="674" cy="41" r="1.1" fill="white" opacity="0.07"/>
    <circle cx="496" cy="644" r="2.1" fill="white" opacity="0.27"/>
    <circle cx="496" cy="644" r="7.1" fill="white" opacity="0.016"/>
    <circle cx="174" cy="755" r="1.0" fill="white" opacity="0.20"/>
    <circle cx="693" cy="328" r="2.1" fill="white" opacity="0.20"/>
    <circle cx="693" cy="328" r="7.1" fill="white" opacity="0.012"/>
    <circle cx="607" cy="479" r="2.8" fill="white" opacity="0.35"/>
    <circle cx="607" cy="479" r="7.8" fill="white" opacity="0.021"/>
    <circle cx="383" cy="446" r="0.8" fill="white" opacity="0.10"/>
    <circle cx="753" cy="21" r="0.7" fill="white" opacity="0.12"/>
    <circle cx="152" cy="152" r="1.1" fill="white" opacity="0.40"/>
    <circle cx="176" cy="611" r="1.0" fill="white" opacity="0.13"/>
    <circle cx="618" cy="803" r="0.8" fill="white" opacity="0.11"/>
    <circle cx="116" cy="537" r="0.4" fill="white" opacity="0.22"/>
    <circle cx="39" cy="454" r="0.7" fill="white" opacity="0.26"/>
    <circle cx="668" cy="707" r="1.6" fill="white" opacity="0.14"/>
    <circle cx="676" cy="556" r="2.0" fill="white" opacity="0.26"/>
    <circle cx="525" cy="779" r="1.8" fill="white" opacity="0.31"/>
    <circle cx="120" cy="496" r="2.3" fill="white" opacity="0.37"/>
    <circle cx="120" cy="496" r="7.3" fill="white" opacity="0.022"/>
    <circle cx="478" cy="196" r="1.8" fill="white" opacity="0.25"/>
    <circle cx="377" cy="326" r="0.6" fill="white" opacity="0.51"/>
    <circle cx="803" cy="681" r="1.3" fill="white" opacity="0.08"/>
    <circle cx="624" cy="75" r="1.1" fill="white" opacity="0.08"/>
    <circle cx="469" cy="9" r="2.0" fill="white" opacity="0.30"/>
    <circle cx="285" cy="379" r="1.9" fill="white" opacity="0.36"/>
    <circle cx="80" cy="404" r="2.3" fill="white" opacity="0.38"/>
    <circle cx="80" cy="404" r="7.3" fill="white" opacity="0.023"/>
    <circle cx="663" cy="449" r="2.8" fill="white" opacity="0.19"/>
    <circle cx="663" cy="449" r="7.8" fill="white" opacity="0.012"/>
    <circle cx="436" cy="406" r="0.7" fill="white" opacity="0.57"/>
    <circle cx="748" cy="10" r="0.6" fill="white" opacity="0.24"/>
    <circle cx="791" cy="205" r="1.3" fill="white" opacity="0.35"/>
    <circle cx="665" cy="25" r="0.9" fill="white" opacity="0.12"/>
    <circle cx="677" cy="66" r="1.3" fill="white" opacity="0.34"/>
    <circle cx="31" cy="317" r="1.8" fill="white" opacity="0.08"/>
    <circle cx="475" cy="109" r="0.7" fill="white" opacity="0.26"/>
    <circle cx="404" cy="329" r="0.4" fill="white" opacity="0.21"/>
    <circle cx="509" cy="587" r="0.3" fill="white" opacity="0.25"/>
    <circle cx="473" cy="105" r="0.6" fill="white" opacity="0.06"/>
  </g>
  <g id="grain" opacity="0.28">
    <circle cx="714" cy="376" r="0.74" fill="white" opacity="0.07"/>
    <circle cx="209" cy="388" r="0.64" fill="white" opacity="0.06"/>
    <circle cx="800" cy="384" r="0.16" fill="white" opacity="0.07"/>
    <circle cx="221" cy="3" r="0.38" fill="white" opacity="0.09"/>
    <circle cx="336" cy="582" r="0.70" fill="white" opacity="0.03"/>
    <circle cx="376" cy="449" r="0.18" fill="white" opacity="0.08"/>
    <circle cx="31" cy="751" r="0.16" fill="white" opacity="0.03"/>
    <circle cx="120" cy="109" r="0.59" fill="white" opacity="0.07"/>
    <circle cx="764" cy="85" r="0.21" fill="white" opacity="0.09"/>
    <circle cx="374" cy="100" r="0.52" fill="white" opacity="0.05"/>
    <circle cx="240" cy="319" r="0.50" fill="white" opacity="0.07"/>
    <circle cx="210" cy="444" r="0.54" fill="white" opacity="0.08"/>
    <circle cx="702" cy="285" r="0.46" fill="white" opacity="0.05"/>
    <circle cx="352" cy="162" r="0.68" fill="white" opacity="0.09"/>
    <circle cx="394" cy="767" r="0.24" fill="white" opacity="0.04"/>
    <circle cx="725" cy="141" r="0.41" fill="white" opacity="0.04"/>
    <circle cx="684" cy="710" r="0.28" fill="white" opacity="0.06"/>
    <circle cx="360" cy="542" r="0.47" fill="white" opacity="0.05"/>
    <circle cx="354" cy="246" r="0.59" fill="white" opacity="0.06"/>
    <circle cx="125" cy="617" r="0.30" fill="white" opacity="0.08"/>
    <circle cx="377" cy="143" r="0.28" fill="white" opacity="0.04"/>
    <circle cx="193" cy="492" r="0.18" fill="white" opacity="0.03"/>
    <circle cx="118" cy="175" r="0.17" fill="white" opacity="0.04"/>
    <circle cx="368" cy="786" r="0.39" fill="white" opacity="0.07"/>
    <circle cx="200" cy="636" r="0.64" fill="white" opacity="0.08"/>
    <circle cx="584" cy="100" r="0.50" fill="white" opacity="0.08"/>
    <circle cx="488" cy="592" r="0.33" fill="white" opacity="0.09"/>
    <circle cx="257" cy="590" r="0.16" fill="white" opacity="0.05"/>
    <circle cx="515" cy="252" r="0.75" fill="white" opacity="0.03"/>
    <circle cx="184" cy="419" r="0.57" fill="white" opacity="0.03"/>
    <circle cx="28" cy="155" r="0.62" fill="white" opacity="0.06"/>
    <circle cx="386" cy="73" r="0.63" fill="white" opacity="0.05"/>
    <circle cx="336" cy="87" r="0.44" fill="white" opacity="0.06"/>
    <circle cx="739" cy="199" r="0.51" fill="white" opacity="0.05"/>
    <circle cx="629" cy="509" r="0.38" fill="white" opacity="0.04"/>
    <circle cx="305" cy="462" r="0.64" fill="white" opacity="0.07"/>
    <circle cx="768" cy="755" r="0.72" fill="white" opacity="0.03"/>
    <circle cx="767" cy="511" r="0.55" fill="white" opacity="0.05"/>
    <circle cx="675" cy="135" r="0.49" fill="white" opacity="0.05"/>
    <circle cx="285" cy="619" r="0.20" fill="white" opacity="0.04"/>
    <circle cx="251" cy="173" r="0.28" fill="white" opacity="0.03"/>
    <circle cx="138" cy="361" r="0.50" fill="white" opacity="0.04"/>
    <circle cx="348" cy="70" r="0.33" fill="white" opacity="0.08"/>
    <circle cx="73" cy="385" r="0.19" fill="white" opacity="0.02"/>
    <circle cx="683" cy="571" r="0.56" fill="white" opacity="0.04"/>
    <circle cx="447" cy="134" r="0.36" fill="white" opacity="0.07"/>
    <circle cx="783" cy="703" r="0.50" fill="white" opacity="0.06"/>
    <circle cx="320" cy="133" r="0.56" fill="white" opacity="0.05"/>
    <circle cx="594" cy="635" r="0.29" fill="white" opacity="0.05"/>
    <circle cx="541" cy="188" r="0.30" fill="white" opacity="0.04"/>
    <circle cx="457" cy="626" r="0.48" fill="white" opacity="0.06"/>
    <circle cx="335" cy="90" r="0.58" fill="white" opacity="0.02"/>
    <circle cx="395" cy="448" r="0.36" fill="white" opacity="0.02"/>
    <circle cx="749" cy="67" r="0.20" fill="white" opacity="0.07"/>
    <circle cx="545" cy="612" r="0.61" fill="white" opacity="0.05"/>
    <circle cx="399" cy="378" r="0.21" fill="white" opacity="0.03"/>
    <circle cx="197" cy="55" r="0.64" fill="white" opacity="0.02"/>
    <circle cx="531" cy="763" r="0.47" fill="white" opacity="0.03"/>
    <circle cx="35" cy="276" r="0.41" fill="white" opacity="0.08"/>
    <circle cx="71" cy="552" r="0.57" fill="white" opacity="0.06"/>
    <circle cx="45" cy="710" r="0.73" fill="white" opacity="0.06"/>
    <circle cx="312" cy="709" r="0.20" fill="white" opacity="0.05"/>
    <circle cx="449" cy="90" r="0.75" fill="white" opacity="0.09"/>
    <circle cx="711" cy="106" r="0.36" fill="white" opacity="0.05"/>
    <circle cx="721" cy="650" r="0.28" fill="white" opacity="0.02"/>
    <circle cx="190" cy="649" r="0.29" fill="white" opacity="0.04"/>
    <circle cx="398" cy="175" r="0.25" fill="white" opacity="0.06"/>
    <circle cx="446" cy="662" r="0.56" fill="white" opacity="0.04"/>
    <circle cx="191" cy="47" r="0.72" fill="white" opacity="0.06"/>
    <circle cx="762" cy="187" r="0.68" fill="white" opacity="0.06"/>
  </g>
  <g id="focal">
    <circle cx="383" cy="410" r="168" fill="#ce8d4a" opacity="0.060" filter="url(#blur-h)"/>
    <circle cx="383" cy="410" r="84" fill="#ce8d4a" opacity="0.090" filter="url(#s-glow)"/>
    <circle cx="383" cy="410" r="33" fill="#ecd39b" opacity=".08" filter="url(#s-glow)"/>
    <circle cx="383" cy="410" r="18" fill="white" opacity="0.18"><animate attributeName="r" values="18;21;18" dur="6.5s" repeatCount="indefinite"/></circle>
    <circle cx="383" cy="410" r="6.8" fill="white" opacity="0.65"/>
    <ellipse cx="406" cy="406" rx="10" ry="4" fill="#ce8d4a" opacity="0.06" transform="rotate(20 383 410)"/>
  </g>
  <rect width="800" height="800" fill="url(#vig)"/>
</svg>