<svg viewBox="0 0 800 800" xmlns="http://www.w3.org/2000/svg">
  <defs>
    <filter id="glow"><feGaussianBlur stdDeviation="5" result="b"/><feMerge><feMergeNode in="b"/><feMergeNode in="SourceGraphic"/></feMerge></filter>
    <filter id="s-glow"><feGaussianBlur stdDeviation="12" result="b"/><feMerge><feMergeNode in="b"/><feMergeNode in="SourceGraphic"/></feMerge></filter>
    <filter id="blur-h"><feGaussianBlur stdDeviation="22"/></filter>
    <radialGradient id="vig" cx="50%" cy="50%" r="60%">
      <stop offset="0%" stop-color="black" stop-opacity="0"/>
      <stop offset="100%" stop-color="black" stop-opacity="0.30"/>
    </radialGradient>
  </defs>
  <rect width="800" height="800" fill="#131110"/>
  <defs>
    <radialGradient id="bg3787a" cx="50%" cy="47%" r="75%">
      <stop offset="0%" stop-color="#362c25"/>
      <stop offset="100%" stop-color="#131110"/>
    </radialGradient>
    <radialGradient id="bg3787b" cx="50%" cy="45%" r="50%">
      <stop offset="0%" stop-color="#221d1b" stop-opacity=".7"/>
      <stop offset="100%" stop-color="#131110" stop-opacity="0"/>
    </radialGradient>
    <filter id="noise3787">
      <feTurbulence type="fractalNoise" baseFrequency="0.0039" numOctaves="4" seed="24"/>
      <feColorMatrix type="saturate" values="0"/>
      <feComponentTransfer><feFuncA type="linear" slope="0.040"/></feComponentTransfer>
      <feBlend in="SourceGraphic" mode="screen"/>
    </filter>
  </defs>
  <rect width="800" height="800" fill="url(#bg3787a)"/>
  <rect width="800" height="800" fill="url(#bg3787b)"/>
  <rect width="800" height="800" filter="url(#noise3787)" opacity=".4"/>
  <g id="atmosphere">
  <circle cx="397" cy="374" r="320" fill="#ce804a" opacity="0.100" filter="url(#blur-h)"/>
  <circle cx="403" cy="-58" r="165" fill="#3eafb5" opacity="0.065" filter="url(#blur-h)"/>
  <circle cx="494" cy="32" r="369" fill="#3db393" opacity="0.039" filter="url(#blur-h)"/>
  <circle cx="-53" cy="110" r="366" fill="#5472c8" opacity="0.076" filter="url(#blur-h)"/>
  </g>
  <g id="back">
    <circle cx="242" cy="143" r="138" fill="#3e43c1" opacity="0.090" filter="url(#blur-h)"/>
    <circle cx="40" cy="204" r="177" fill="#4a53c5" opacity="0.068" filter="url(#blur-h)"/>
    <circle cx="413" cy="591" r="89" fill="#50b6c3" opacity="0.114" filter="url(#blur-h)"/>
    <circle cx="329" cy="305" r="103" fill="#cb613f" opacity="0.084" filter="url(#blur-h)"/>
    <circle cx="81" cy="164" r="213" fill="#ca7f3b" opacity="0.041" filter="url(#blur-h)"/>
    <circle cx="429" cy="223" r="189" fill="#5458c8" opacity="0.116" filter="url(#blur-h)"/>
    <circle cx="681" cy="249" r="52" fill="#ca8d3b" opacity="0.084" filter="url(#blur-h)"/>
    <circle cx="716" cy="530" r="189" fill="#cf984e" opacity="0.083" filter="url(#blur-h)"/>
    <circle cx="768" cy="602" r="69" fill="#ca643b" opacity="0.062" filter="url(#blur-h)"/>
    <circle cx="768" cy="602" r="69" fill="none" stroke="#ca643b" stroke-width="1.1" opacity="0.111"/>
    <circle cx="141" cy="418" r="38" fill="#ce864c" opacity="0.035" filter="url(#blur-h)"/>
    <circle cx="141" cy="418" r="38" fill="none" stroke="#ce864c" stroke-width="0.7" opacity="0.063"/>
    <circle cx="92" cy="736" r="84" fill="#4151c2" opacity="0.051" filter="url(#blur-h)"/>
    <circle cx="92" cy="736" r="84" fill="none" stroke="#4151c2" stroke-width="1.0" opacity="0.092"/>
    <circle cx="662" cy="119" r="77" fill="#48c0ae" opacity="0.056" filter="url(#blur-h)"/>
    <circle cx="662" cy="119" r="77" fill="none" stroke="#48c0ae" stroke-width="0.5" opacity="0.100"/>
    <circle cx="46" cy="824" r="57" fill="#4eb8c2" opacity="0.051" filter="url(#blur-h)"/>
    <circle cx="46" cy="824" r="57" fill="none" stroke="#4eb8c2" stroke-width="0.4" opacity="0.092"/>
    <circle cx="13" cy="488" r="51" fill="#4053c1" opacity="0.064" filter="url(#blur-h)"/>
    <circle cx="13" cy="488" r="51" fill="none" stroke="#4053c1" stroke-width="0.4" opacity="0.115"/>
    <circle cx="405" cy="368" r="78" fill="#cc5d45" opacity="0.086" filter="url(#blur-h)"/>
    <circle cx="405" cy="368" r="78" fill="none" stroke="#cc5d45" stroke-width="0.9" opacity="0.156"/>
    <circle cx="685" cy="89" r="76" fill="#c86437" opacity="0.088" filter="url(#blur-h)"/>
    <circle cx="685" cy="89" r="76" fill="none" stroke="#c86437" stroke-width="0.7" opacity="0.159"/>
    <circle cx="759" cy="760" r="71" fill="#3eb599" opacity="0.057" filter="url(#blur-h)"/>
    <circle cx="759" cy="760" r="71" fill="none" stroke="#3eb599" stroke-width="0.9" opacity="0.103"/>
    <circle cx="421" cy="597" r="64" fill="#5058c7" opacity="0.042" filter="url(#blur-h)"/>
    <circle cx="421" cy="597" r="64" fill="none" stroke="#5058c7" stroke-width="0.7" opacity="0.075"/>
    <circle cx="316" cy="665" r="54" fill="#4cb3c1" opacity="0.071" filter="url(#blur-h)"/>
    <circle cx="316" cy="665" r="54" fill="none" stroke="#4cb3c1" stroke-width="0.4" opacity="0.127"/>
    <circle cx="843" cy="569" r="69" fill="#42bebc" opacity="0.067" filter="url(#blur-h)"/>
    <circle cx="843" cy="569" r="69" fill="none" stroke="#42bebc" stroke-width="0.9" opacity="0.120"/>
    <circle cx="790" cy="225" r="61" fill="#3c68bd" opacity="0.088" filter="url(#blur-h)"/>
    <circle cx="790" cy="225" r="61" fill="none" stroke="#3c68bd" stroke-width="0.6" opacity="0.158"/>
    <circle cx="451" cy="128" r="35" fill="#3aa5ab" opacity="0.054" filter="url(#blur-h)"/>
    <circle cx="451" cy="128" r="35" fill="none" stroke="#3aa5ab" stroke-width="1.0" opacity="0.097"/>
    <circle cx="426" cy="269" r="33" fill="#3e42c1" opacity="0.057" filter="url(#blur-h)"/>
    <circle cx="426" cy="269" r="33" fill="none" stroke="#3e42c1" stroke-width="0.9" opacity="0.102"/>
    <circle cx="723" cy="47" r="34" fill="#5b59c9" opacity="0.059" filter="url(#blur-h)"/>
    <circle cx="723" cy="47" r="34" fill="none" stroke="#5b59c9" stroke-width="0.8" opacity="0.106"/>
    <circle cx="245" cy="124" r="84" fill="#463cbe" opacity="0.091" filter="url(#blur-h)"/>
    <circle cx="245" cy="124" r="84" fill="none" stroke="#463cbe" stroke-width="0.6" opacity="0.164"/>
  </g>
  <g id="nebula" opacity="0.59">
    <circle cx="485" cy="277" r="84" fill="#495dc4" opacity="0.115" filter="url(#blur-h)"/>
    <circle cx="165" cy="353" r="103" fill="#3aaaa1" opacity="0.061" filter="url(#blur-h)"/>
    <circle cx="599" cy="325" r="153" fill="#3b45ba" opacity="0.077" filter="url(#blur-h)"/>
    <circle cx="53" cy="574" r="196" fill="#cc8c45" opacity="0.072" filter="url(#blur-h)"/>
    <circle cx="149" cy="120" r="149" fill="#4740c1" opacity="0.117" filter="url(#blur-h)"/>
    <circle cx="709" cy="79" r="119" fill="#4c48c4" opacity="0.121" filter="url(#blur-h)"/>
  </g>
  <g id="curves" opacity="0.46">
    <path d="M-24.6,-2.4 Q641.3,66.9 672.7,386.2 Q704.1,705.6 767.9,773.0 L831.8,840.5" stroke="#3b5eba" stroke-width="0.4" fill="none" opacity="0.06"/>
    <path d="M-25.6,523.6 Q597.4,298.3 407.5,541.4 Q217.7,784.4 191.8,607.1 Q166.0,429.7 489.8,415.8 L813.6,402.0" stroke="#cd8247" stroke-width="2.9" fill="none" opacity="0.07"/>
    <path d="M-20.0,732.3 Q525.2,212.9 495.1,328.9 Q465.1,444.9 506.1,568.3 Q547.1,691.7 538.5,483.5 Q529.9,275.4 610.7,210.9 Q691.4,146.4 752.2,68.2 L813.0,-9.9" stroke="#5759c9" stroke-width="1.7" fill="none" opacity="0.11"/>
    <path d="M-10.8,612.9 Q73.4,101.0 253.1,241.9 Q432.8,382.7 627.8,391.1 L822.9,399.4" stroke="#c98339" stroke-width="2.1" fill="none" opacity="0.18"/>
    <path d="M-17.8,756.5 Q233.9,243.3 163.9,384.6 Q94.0,525.8 340.4,272.0 Q586.9,18.2 382.6,189.8 Q178.3,361.5 176.4,426.7 Q174.6,491.9 496.1,648.9 L817.6,805.9" stroke="#5975c9" stroke-width="3.0" fill="none" opacity="0.15"/>
    <path d="M-30.7,150.9 Q513.8,51.8 587.8,13.2 Q661.8,-25.5 689.1,314.2 Q716.4,654.0 400.0,569.3 Q83.5,484.7 402.6,549.2 Q721.7,613.8 766.8,345.7 L811.9,77.5" stroke="#3eb6b3" stroke-width="2.3" fill="none" opacity="0.18"/>
    <path d="M-28.1,393.6 Q565.6,368.6 588.6,592.1 Q611.6,815.7 720.8,638.6 L830.0,461.5" stroke="#d3875d" stroke-width="1.5" fill="none" opacity="0.06"/>
    <path d="M-26.1,425.7 Q389.2,82.7 246.5,102.1 Q103.7,121.6 97.9,148.1 Q92.2,174.6 264.9,87.3 Q437.5,-0.1 621.5,300.3 L805.4,600.6" stroke="#3f50c1" stroke-width="1.6" fill="none" opacity="0.08"/>
    <path d="M-8.9,204.7 Q134.7,462.3 123.6,470.7 Q112.4,479.2 222.7,589.5 Q333.0,699.8 581.9,440.9 L830.8,182.0" stroke="#c9833a" stroke-width="2.8" fill="none" opacity="0.19"/>
    <path d="M-25.3,-35.1 Q713.6,254.1 485.9,492.3 Q258.2,730.5 379.2,384.5 Q500.2,38.5 549.9,344.8 Q599.6,651.0 707.1,394.0 L814.5,136.9" stroke="#43beba" stroke-width="2.8" fill="none" opacity="0.14"/>
  </g>
  <g id="constellation" opacity="0.37">
    <line x1="172" y1="489" x2="112" y2="401" stroke="#4754c4" stroke-width="0.6" opacity="0.047"/>
    <line x1="172" y1="489" x2="255" y2="371" stroke="#4754c4" stroke-width="0.6" opacity="0.033"/>
    <line x1="205" y1="367" x2="255" y2="371" stroke="#4754c4" stroke-width="0.6" opacity="0.106"/>
    <line x1="205" y1="367" x2="281" y2="267" stroke="#4754c4" stroke-width="0.6" opacity="0.034"/>
    <line x1="205" y1="367" x2="81" y2="310" stroke="#4754c4" stroke-width="0.6" opacity="0.031"/>
    <line x1="255" y1="371" x2="248" y2="337" stroke="#4754c4" stroke-width="0.6" opacity="0.123"/>
    <line x1="255" y1="371" x2="281" y2="267" stroke="#4754c4" stroke-width="0.6" opacity="0.053"/>
    <line x1="21" y1="326" x2="81" y2="310" stroke="#4754c4" stroke-width="0.6" opacity="0.076"/>
    <line x1="163" y1="448" x2="248" y2="337" stroke="#4754c4" stroke-width="0.6" opacity="0.033"/>
    <line x1="163" y1="448" x2="81" y2="310" stroke="#4754c4" stroke-width="0.6" opacity="0.030"/>
    <line x1="248" y1="337" x2="227" y2="211" stroke="#4754c4" stroke-width="0.6" opacity="0.033"/>
    <line x1="248" y1="337" x2="288" y2="404" stroke="#4754c4" stroke-width="0.6" opacity="0.082"/>
    <line x1="248" y1="337" x2="331" y2="278" stroke="#4754c4" stroke-width="0.6" opacity="0.058"/>
    <line x1="658" y1="364" x2="610" y2="457" stroke="#4754c4" stroke-width="0.6" opacity="0.048"/>
    <line x1="562" y1="574" x2="488" y2="649" stroke="#4754c4" stroke-width="0.6" opacity="0.047"/>
    <line x1="562" y1="574" x2="553" y2="489" stroke="#4754c4" stroke-width="0.6" opacity="0.067"/>
    <line x1="562" y1="574" x2="440" y2="515" stroke="#4754c4" stroke-width="0.6" opacity="0.033"/>
    <line x1="488" y1="649" x2="490" y2="494" stroke="#4754c4" stroke-width="0.6" opacity="0.032"/>
    <line x1="488" y1="649" x2="440" y2="515" stroke="#4754c4" stroke-width="0.6" opacity="0.032"/>
    <line x1="488" y1="649" x2="469" y2="613" stroke="#4754c4" stroke-width="0.6" opacity="0.102"/>
    <line x1="352" y1="585" x2="440" y2="515" stroke="#4754c4" stroke-width="0.6" opacity="0.046"/>
    <line x1="352" y1="585" x2="351" y2="576" stroke="#4754c4" stroke-width="0.6" opacity="0.138"/>
    <line x1="714" y1="652" x2="789" y2="548" stroke="#4754c4" stroke-width="0.6" opacity="0.025"/>
    <line x1="714" y1="652" x2="597" y2="572" stroke="#4754c4" stroke-width="0.6" opacity="0.028"/>
    <line x1="608" y1="520" x2="490" y2="494" stroke="#4754c4" stroke-width="0.6" opacity="0.037"/>
    <line x1="610" y1="457" x2="490" y2="494" stroke="#4754c4" stroke-width="0.6" opacity="0.034"/>
    <line x1="610" y1="457" x2="458" y2="496" stroke="#4754c4" stroke-width="0.6" opacity="0.034"/>
    <line x1="553" y1="489" x2="469" y2="613" stroke="#4754c4" stroke-width="0.6" opacity="0.033"/>
    <line x1="458" y1="496" x2="597" y2="572" stroke="#4754c4" stroke-width="0.6" opacity="0.033"/>
    <line x1="458" y1="496" x2="440" y2="515" stroke="#4754c4" stroke-width="0.6" opacity="0.132"/>
    <line x1="458" y1="496" x2="351" y2="576" stroke="#4754c4" stroke-width="0.6" opacity="0.034"/>
    <line x1="620" y1="610" x2="611" y2="482" stroke="#4754c4" stroke-width="0.6" opacity="0.030"/>
    <line x1="620" y1="610" x2="597" y2="572" stroke="#4754c4" stroke-width="0.6" opacity="0.095"/>
    <line x1="620" y1="610" x2="469" y2="613" stroke="#4754c4" stroke-width="0.6" opacity="0.030"/>
    <line x1="611" y1="482" x2="597" y2="572" stroke="#4754c4" stroke-width="0.6" opacity="0.060"/>
    <line x1="597" y1="572" x2="469" y2="613" stroke="#4754c4" stroke-width="0.6" opacity="0.031"/>
    <line x1="440" y1="515" x2="469" y2="613" stroke="#4754c4" stroke-width="0.6" opacity="0.053"/>
    <line x1="323" y1="292" x2="281" y2="267" stroke="#4754c4" stroke-width="0.6" opacity="0.111"/>
    <line x1="323" y1="292" x2="288" y2="404" stroke="#4754c4" stroke-width="0.6" opacity="0.043"/>
    <line x1="323" y1="292" x2="333" y2="181" stroke="#4754c4" stroke-width="0.6" opacity="0.048"/>
    <line x1="281" y1="267" x2="358" y2="247" stroke="#4754c4" stroke-width="0.6" opacity="0.080"/>
    <line x1="227" y1="211" x2="358" y2="247" stroke="#4754c4" stroke-width="0.6" opacity="0.034"/>
    <circle cx="215" cy="705" r="3.3" fill="white" opacity="0.52"/>
    <circle cx="215" cy="705" r="9.3" fill="#cb7642" opacity="0.063"/>
    <circle cx="172" cy="489" r="1.8" fill="white" opacity="0.24"/>
    <circle cx="112" cy="401" r="2.9" fill="white" opacity="0.47"/>
    <circle cx="112" cy="401" r="8.9" fill="#ce804a" opacity="0.056"/>
    <circle cx="205" cy="367" r="2.8" fill="white" opacity="0.45"/>
    <circle cx="205" cy="367" r="8.8" fill="#ce804a" opacity="0.054"/>
    <circle cx="255" cy="371" r="3.6" fill="white" opacity="0.61"/>
    <circle cx="255" cy="371" r="9.6" fill="#ce804a" opacity="0.073"/>
    <circle cx="21" cy="326" r="3.1" fill="white" opacity="0.50"/>
    <circle cx="21" cy="326" r="9.1" fill="#ce8b4c" opacity="0.060"/>
    <circle cx="155" cy="576" r="3.5" fill="white" opacity="0.58"/>
    <circle cx="155" cy="576" r="9.5" fill="#ce804a" opacity="0.070"/>
    <circle cx="163" cy="448" r="2.0" fill="white" opacity="0.28"/>
    <circle cx="248" cy="337" r="2.0" fill="white" opacity="0.27"/>
    <circle cx="658" cy="364" r="3.5" fill="white" opacity="0.59"/>
    <circle cx="658" cy="364" r="9.5" fill="#ce804a" opacity="0.071"/>
    <circle cx="562" cy="574" r="1.8" fill="white" opacity="0.23"/>
    <circle cx="621" cy="462" r="1.3" fill="white" opacity="0.14"/>
    <circle cx="488" cy="649" r="3.2" fill="white" opacity="0.52"/>
    <circle cx="488" cy="649" r="9.2" fill="#cc8142" opacity="0.063"/>
    <circle cx="352" cy="585" r="1.5" fill="white" opacity="0.18"/>
    <circle cx="714" cy="652" r="2.6" fill="white" opacity="0.39"/>
    <circle cx="714" cy="652" r="8.6" fill="#ce804a" opacity="0.047"/>
    <circle cx="608" cy="520" r="2.4" fill="white" opacity="0.36"/>
    <circle cx="789" cy="548" r="2.9" fill="white" opacity="0.45"/>
    <circle cx="789" cy="548" r="8.9" fill="#cb7a41" opacity="0.054"/>
    <circle cx="610" cy="457" r="3.9" fill="white" opacity="0.66"/>
    <circle cx="610" cy="457" r="9.9" fill="#cf7a50" opacity="0.079"/>
    <circle cx="490" cy="494" r="2.8" fill="white" opacity="0.45"/>
    <circle cx="490" cy="494" r="8.8" fill="#cc7245" opacity="0.054"/>
    <circle cx="553" cy="489" r="3.8" fill="white" opacity="0.64"/>
    <circle cx="553" cy="489" r="9.8" fill="#cc7c43" opacity="0.077"/>
    <circle cx="458" cy="496" r="2.2" fill="white" opacity="0.32"/>
    <circle cx="620" cy="610" r="1.6" fill="white" opacity="0.19"/>
    <circle cx="611" cy="482" r="2.9" fill="white" opacity="0.46"/>
    <circle cx="611" cy="482" r="8.9" fill="#cb743f" opacity="0.055"/>
    <circle cx="597" cy="572" r="1.6" fill="white" opacity="0.21"/>
    <circle cx="440" cy="515" r="1.4" fill="white" opacity="0.15"/>
    <circle cx="351" cy="576" r="2.5" fill="white" opacity="0.39"/>
    <circle cx="351" cy="576" r="8.5" fill="#ca7f3b" opacity="0.046"/>
    <circle cx="469" cy="613" r="3.1" fill="white" opacity="0.50"/>
    <circle cx="469" cy="613" r="9.1" fill="#ce804a" opacity="0.060"/>
    <circle cx="323" cy="292" r="3.4" fill="white" opacity="0.58"/>
    <circle cx="323" cy="292" r="9.4" fill="#d19657" opacity="0.069"/>
    <circle cx="519" cy="274" r="3.4" fill="white" opacity="0.57"/>
    <circle cx="519" cy="274" r="9.4" fill="#d07c51" opacity="0.068"/>
    <circle cx="281" cy="267" r="2.5" fill="white" opacity="0.37"/>
    <circle cx="227" cy="211" r="2.8" fill="white" opacity="0.43"/>
    <circle cx="227" cy="211" r="8.8" fill="#ce804a" opacity="0.052"/>
    <circle cx="288" cy="404" r="2.9" fill="white" opacity="0.47"/>
    <circle cx="288" cy="404" r="8.9" fill="#ce804a" opacity="0.056"/>
    <circle cx="333" cy="181" r="3.7" fill="white" opacity="0.63"/>
    <circle cx="333" cy="181" r="9.7" fill="#cd8648" opacity="0.075"/>
    <circle cx="331" cy="278" r="1.6" fill="white" opacity="0.20"/>
    <circle cx="358" cy="247" r="3.4" fill="white" opacity="0.57"/>
    <circle cx="358" cy="247" r="9.4" fill="#cf7e4f" opacity="0.068"/>
    <circle cx="81" cy="310" r="3.2" fill="white" opacity="0.52"/>
    <circle cx="81" cy="310" r="9.2" fill="#ce804a" opacity="0.063"/>
  </g>
  <g id="bokeh-fg" opacity="0.35">
    <circle cx="610" cy="328" r="31" fill="#47c09c" opacity="0.058" filter="url(#blur-h)"/>
    <circle cx="610" cy="328" r="31" fill="none" stroke="#47c09c" stroke-width="1.1" opacity="0.104"/>
    <circle cx="495" cy="223" r="94" fill="#576ec9" opacity="0.033" filter="url(#blur-h)"/>
    <circle cx="495" cy="223" r="94" fill="none" stroke="#576ec9" stroke-width="0.7" opacity="0.059"/>
    <circle cx="-22" cy="504" r="42" fill="#454bc3" opacity="0.082" filter="url(#blur-h)"/>
    <circle cx="-22" cy="504" r="42" fill="none" stroke="#454bc3" stroke-width="0.8" opacity="0.147"/>
    <circle cx="389" cy="168" r="53" fill="#d28f59" opacity="0.050" filter="url(#blur-h)"/>
    <circle cx="389" cy="168" r="53" fill="none" stroke="#d28f59" stroke-width="0.4" opacity="0.090"/>
    <circle cx="22" cy="233" r="89" fill="#5060c6" opacity="0.058" filter="url(#blur-h)"/>
    <circle cx="22" cy="233" r="89" fill="none" stroke="#5060c6" stroke-width="0.7" opacity="0.104"/>
    <circle cx="568" cy="419" r="93" fill="#cc7944" opacity="0.060" filter="url(#blur-h)"/>
    <circle cx="568" cy="419" r="93" fill="none" stroke="#cc7944" stroke-width="0.6" opacity="0.108"/>
    <circle cx="775" cy="623" r="78" fill="#5577c8" opacity="0.062" filter="url(#blur-h)"/>
    <circle cx="775" cy="623" r="78" fill="none" stroke="#5577c8" stroke-width="0.5" opacity="0.112"/>
    <circle cx="506" cy="673" r="83" fill="#d3805d" opacity="0.047" filter="url(#blur-h)"/>
    <circle cx="506" cy="673" r="83" fill="none" stroke="#d3805d" stroke-width="0.6" opacity="0.085"/>
    <circle cx="81" cy="504" r="70" fill="#48c0ac" opacity="0.069" filter="url(#blur-h)"/>
    <circle cx="81" cy="504" r="70" fill="none" stroke="#48c0ac" stroke-width="0.8" opacity="0.124"/>
    <circle cx="360" cy="643" r="70" fill="#3e4ec1" opacity="0.036" filter="url(#blur-h)"/>
    <circle cx="360" cy="643" r="70" fill="none" stroke="#3e4ec1" stroke-width="0.6" opacity="0.065"/>
  </g>
  <g id="volumetric" opacity="0.62">
    <ellipse cx="377" cy="460" rx="222" ry="100" fill="#d37b5d" opacity="0.035" transform="rotate(-3 377 460)" filter="url(#blur-h)"/>
    <ellipse cx="347" cy="371" rx="126" ry="86" fill="#c88737" opacity="0.032" transform="rotate(5 347 371)" filter="url(#blur-h)"/>
    <ellipse cx="378" cy="350" rx="78" ry="53" fill="#c88736" opacity="0.035" transform="rotate(11 378 350)" filter="url(#blur-h)"/>
    <ellipse cx="305" cy="384" rx="232" ry="172" fill="#d08853" opacity="0.045" transform="rotate(-14 305 384)" filter="url(#blur-h)"/>
  </g>
  <g id="stars">
    <circle cx="425" cy="473" r="0.6" fill="white" opacity="0.18"/>
    <circle cx="500" cy="622" r="0.5" fill="white" opacity="0.37"/>
    <circle cx="4" cy="758" r="1.2" fill="white" opacity="0.10"/>
    <circle cx="406" cy="407" r="2.1" fill="white" opacity="0.32"/>
    <circle cx="406" cy="407" r="7.1" fill="white" opacity="0.019"/>
    <circle cx="553" cy="640" r="1.3" fill="white" opacity="0.29"/>
    <circle cx="517" cy="530" r="1.1" fill="white" opacity="0.50"/>
    <circle cx="685" cy="567" r="2.6" fill="white" opacity="0.21"/>
    <circle cx="685" cy="567" r="7.6" fill="white" opacity="0.013"/>
    <circle cx="642" cy="574" r="1.4" fill="white" opacity="0.23"/>
    <circle cx="713" cy="86" r="0.8" fill="white" opacity="0.30"/>
    <circle cx="47" cy="417" r="1.6" fill="white" opacity="0.13"/>
    <circle cx="8" cy="421" r="2.6" fill="white" opacity="0.31"/>
    <circle cx="8" cy="421" r="7.6" fill="white" opacity="0.019"/>
    <circle cx="276" cy="762" r="0.3" fill="white" opacity="0.14"/>
    <circle cx="487" cy="308" r="1.4" fill="white" opacity="0.50"/>
    <circle cx="795" cy="395" r="0.5" fill="white" opacity="0.38"/>
    <circle cx="232" cy="123" r="1.9" fill="white" opacity="0.24"/>
    <circle cx="629" cy="464" r="2.4" fill="white" opacity="0.20"/>
    <circle cx="629" cy="464" r="7.4" fill="white" opacity="0.012"/>
    <circle cx="599" cy="185" r="2.4" fill="white" opacity="0.44"/>
    <circle cx="599" cy="185" r="7.4" fill="white" opacity="0.026"/>
    <circle cx="810" cy="769" r="2.2" fill="white" opacity="0.14"/>
    <circle cx="810" cy="769" r="7.2" fill="white" opacity="0.008"/>
    <circle cx="9" cy="500" r="1.1" fill="white" opacity="0.39"/>
    <circle cx="627" cy="53" r="2.6" fill="white" opacity="0.13"/>
    <circle cx="627" cy="53" r="7.6" fill="white" opacity="0.008"/>
    <circle cx="690" cy="698" r="0.7" fill="white" opacity="0.18"/>
    <circle cx="688" cy="278" r="1.0" fill="white" opacity="0.07"/>
    <circle cx="362" cy="186" r="2.0" fill="white" opacity="0.41"/>
    <circle cx="109" cy="424" r="1.7" fill="white" opacity="0.18"/>
    <circle cx="643" cy="293" r="1.3" fill="white" opacity="0.41"/>
    <circle cx="443" cy="68" r="0.7" fill="white" opacity="0.42"/>
    <circle cx="279" cy="792" r="0.5" fill="white" opacity="0.30"/>
    <circle cx="337" cy="795" r="1.8" fill="white" opacity="0.34"/>
    <circle cx="55" cy="340" r="2.2" fill="white" opacity="0.07"/>
    <circle cx="55" cy="340" r="7.2" fill="white" opacity="0.004"/>
    <circle cx="154" cy="332" r="1.2" fill="white" opacity="0.09"/>
    <circle cx="582" cy="314" r="0.6" fill="white" opacity="0.19"/>
    <circle cx="133" cy="355" r="0.8" fill="white" opacity="0.21"/>
    <circle cx="609" cy="351" r="3.1" fill="white" opacity="0.13"/>
    <circle cx="609" cy="351" r="8.1" fill="white" opacity="0.008"/>
    <circle cx="104" cy="627" r="1.6" fill="white" opacity="0.34"/>
    <circle cx="396" cy="119" r="2.5" fill="white" opacity="0.36"/>
    <circle cx="396" cy="119" r="7.5" fill="white" opacity="0.022"/>
    <circle cx="126" cy="426" r="0.9" fill="white" opacity="0.37"/>
    <circle cx="692" cy="-2" r="0.3" fill="white" opacity="0.20"/>
    <circle cx="256" cy="584" r="0.9" fill="white" opacity="0.19"/>
    <circle cx="635" cy="389" r="0.5" fill="white" opacity="0.11"/>
    <circle cx="346" cy="225" r="2.4" fill="white" opacity="0.51"/>
    <circle cx="346" cy="225" r="7.4" fill="white" opacity="0.030"/>
    <circle cx="41" cy="85" r="0.9" fill="white" opacity="0.33"/>
    <circle cx="6" cy="490" r="1.1" fill="white" opacity="0.29"/>
    <circle cx="24" cy="659" r="0.6" fill="white" opacity="0.09"/>
    <circle cx="432" cy="763" r="2.2" fill="white" opacity="0.20"/>
    <circle cx="432" cy="763" r="7.2" fill="white" opacity="0.012"/>
    <circle cx="596" cy="402" r="2.1" fill="white" opacity="0.42"/>
    <circle cx="596" cy="402" r="7.1" fill="white" opacity="0.025"/>
    <circle cx="264" cy="675" r="1.9" fill="white" opacity="0.30"/>
    <circle cx="394" cy="288" r="2.3" fill="white" opacity="0.09"/>
    <circle cx="394" cy="288" r="7.3" fill="white" opacity="0.006"/>
  </g>
  <g id="grain" opacity="0.28">
    <circle cx="454" cy="376" r="0.51" fill="white" opacity="0.04"/>
    <circle cx="733" cy="617" r="0.43" fill="white" opacity="0.07"/>
    <circle cx="58" cy="327" r="0.22" fill="white" opacity="0.06"/>
    <circle cx="435" cy="193" r="0.15" fill="white" opacity="0.03"/>
    <circle cx="83" cy="741" r="0.49" fill="white" opacity="0.07"/>
    <circle cx="331" cy="108" r="0.53" fill="white" opacity="0.03"/>
    <circle cx="609" cy="798" r="0.59" fill="white" opacity="0.07"/>
    <circle cx="155" cy="645" r="0.62" fill="white" opacity="0.03"/>
    <circle cx="723" cy="796" r="0.43" fill="white" opacity="0.07"/>
    <circle cx="276" cy="645" r="0.24" fill="white" opacity="0.04"/>
    <circle cx="495" cy="253" r="0.36" fill="white" opacity="0.09"/>
    <circle cx="475" cy="199" r="0.55" fill="white" opacity="0.08"/>
    <circle cx="634" cy="573" r="0.48" fill="white" opacity="0.02"/>
    <circle cx="17" cy="123" r="0.39" fill="white" opacity="0.04"/>
    <circle cx="435" cy="533" r="0.17" fill="white" opacity="0.09"/>
    <circle cx="469" cy="436" r="0.39" fill="white" opacity="0.05"/>
    <circle cx="660" cy="645" r="0.75" fill="white" opacity="0.04"/>
    <circle cx="329" cy="491" r="0.35" fill="white" opacity="0.06"/>
    <circle cx="716" cy="542" r="0.65" fill="white" opacity="0.09"/>
    <circle cx="607" cy="233" r="0.58" fill="white" opacity="0.02"/>
    <circle cx="547" cy="528" r="0.71" fill="white" opacity="0.04"/>
    <circle cx="481" cy="36" r="0.48" fill="white" opacity="0.07"/>
    <circle cx="646" cy="478" r="0.16" fill="white" opacity="0.05"/>
    <circle cx="255" cy="571" r="0.62" fill="white" opacity="0.07"/>
    <circle cx="608" cy="441" r="0.67" fill="white" opacity="0.07"/>
    <circle cx="691" cy="635" r="0.57" fill="white" opacity="0.09"/>
    <circle cx="647" cy="26" r="0.36" fill="white" opacity="0.08"/>
    <circle cx="15" cy="458" r="0.40" fill="white" opacity="0.02"/>
    <circle cx="527" cy="328" r="0.33" fill="white" opacity="0.05"/>
    <circle cx="629" cy="373" r="0.44" fill="white" opacity="0.09"/>
    <circle cx="130" cy="709" r="0.54" fill="white" opacity="0.06"/>
    <circle cx="412" cy="538" r="0.39" fill="white" opacity="0.03"/>
    <circle cx="497" cy="798" r="0.17" fill="white" opacity="0.09"/>
    <circle cx="0" cy="284" r="0.61" fill="white" opacity="0.07"/>
    <circle cx="323" cy="411" r="0.34" fill="white" opacity="0.04"/>
    <circle cx="329" cy="681" r="0.33" fill="white" opacity="0.07"/>
    <circle cx="149" cy="653" r="0.38" fill="white" opacity="0.08"/>
    <circle cx="22" cy="464" r="0.73" fill="white" opacity="0.03"/>
    <circle cx="635" cy="230" r="0.16" fill="white" opacity="0.06"/>
    <circle cx="406" cy="190" r="0.34" fill="white" opacity="0.06"/>
    <circle cx="610" cy="548" r="0.54" fill="white" opacity="0.04"/>
    <circle cx="584" cy="779" r="0.21" fill="white" opacity="0.07"/>
    <circle cx="126" cy="204" r="0.39" fill="white" opacity="0.02"/>
    <circle cx="172" cy="175" r="0.63" fill="white" opacity="0.06"/>
    <circle cx="520" cy="754" r="0.47" fill="white" opacity="0.04"/>
    <circle cx="729" cy="286" r="0.20" fill="white" opacity="0.03"/>
    <circle cx="703" cy="413" r="0.69" fill="white" opacity="0.04"/>
    <circle cx="296" cy="674" r="0.74" fill="white" opacity="0.06"/>
    <circle cx="299" cy="164" r="0.18" fill="white" opacity="0.04"/>
    <circle cx="54" cy="160" r="0.48" fill="white" opacity="0.09"/>
    <circle cx="696" cy="41" r="0.61" fill="white" opacity="0.04"/>
    <circle cx="489" cy="181" r="0.55" fill="white" opacity="0.04"/>
    <circle cx="148" cy="220" r="0.67" fill="white" opacity="0.08"/>
    <circle cx="790" cy="157" r="0.56" fill="white" opacity="0.07"/>
    <circle cx="301" cy="548" r="0.71" fill="white" opacity="0.05"/>
    <circle cx="285" cy="115" r="0.32" fill="white" opacity="0.06"/>
    <circle cx="654" cy="65" r="0.16" fill="white" opacity="0.03"/>
    <circle cx="15" cy="214" r="0.39" fill="white" opacity="0.07"/>
    <circle cx="656" cy="540" r="0.41" fill="white" opacity="0.08"/>
    <circle cx="628" cy="479" r="0.69" fill="white" opacity="0.07"/>
    <circle cx="534" cy="136" r="0.32" fill="white" opacity="0.09"/>
    <circle cx="444" cy="473" r="0.26" fill="white" opacity="0.09"/>
    <circle cx="646" cy="167" r="0.74" fill="white" opacity="0.07"/>
    <circle cx="491" cy="405" r="0.50" fill="white" opacity="0.06"/>
    <circle cx="71" cy="698" r="0.28" fill="white" opacity="0.06"/>
    <circle cx="170" cy="763" r="0.42" fill="white" opacity="0.05"/>
    <circle cx="788" cy="75" r="0.38" fill="white" opacity="0.05"/>
    <circle cx="446" cy="485" r="0.43" fill="white" opacity="0.04"/>
    <circle cx="619" cy="414" r="0.21" fill="white" opacity="0.02"/>
    <circle cx="670" cy="403" r="0.75" fill="white" opacity="0.05"/>
  </g>
  <g id="focal">
    <circle cx="397" cy="374" r="168" fill="#ce804a" opacity="0.060" filter="url(#blur-h)"/>
    <circle cx="397" cy="374" r="84" fill="#ce804a" opacity="0.090" filter="url(#s-glow)"/>
    <line x1="397" y1="374" x2="461" y2="393" stroke="white" stroke-width="1.0" opacity="0.13"/>
    <line x1="397" y1="374" x2="450" y2="491" stroke="white" stroke-width="1.0" opacity="0.13"/>
    <line x1="397" y1="374" x2="363" y2="456" stroke="white" stroke-width="1.0" opacity="0.13"/>
    <line x1="397" y1="374" x2="299" y2="417" stroke="white" stroke-width="1.0" opacity="0.13"/>
    <line x1="397" y1="374" x2="304" y2="324" stroke="white" stroke-width="1.0" opacity="0.13"/>
    <line x1="397" y1="374" x2="379" y2="290" stroke="white" stroke-width="1.0" opacity="0.13"/>
    <line x1="397" y1="374" x2="443" y2="334" stroke="white" stroke-width="1.0" opacity="0.13"/>
    <circle cx="397" cy="374" r="18" fill="white" opacity="0.18"><animate attributeName="r" values="18;21;18" dur="6.2s" repeatCount="indefinite"/></circle>
    <circle cx="397" cy="374" r="6.8" fill="white" opacity="0.65"/>
  </g>
  <rect width="800" height="800" fill="url(#vig)"/>
</svg>