<svg viewBox="0 0 800 800" xmlns="http://www.w3.org/2000/svg">
  <defs>
    <filter id="glow"><feGaussianBlur stdDeviation="5" result="b"/><feMerge><feMergeNode in="b"/><feMergeNode in="SourceGraphic"/></feMerge></filter>
    <filter id="s-glow"><feGaussianBlur stdDeviation="12" result="b"/><feMerge><feMergeNode in="b"/><feMergeNode in="SourceGraphic"/></feMerge></filter>
    <filter id="blur-h"><feGaussianBlur stdDeviation="22"/></filter>
    <radialGradient id="vig" cx="50%" cy="50%" r="60%">
      <stop offset="0%" stop-color="black" stop-opacity="0"/>
      <stop offset="100%" stop-color="black" stop-opacity="0.30"/>
    </radialGradient>
  </defs>
  <rect width="800" height="800" fill="#131110"/>
  <defs>
    <radialGradient id="bg8762a" cx="54%" cy="55%" r="75%">
      <stop offset="0%" stop-color="#362b25"/>
      <stop offset="100%" stop-color="#131110"/>
    </radialGradient>
    <radialGradient id="bg8762b" cx="41%" cy="46%" r="50%">
      <stop offset="0%" stop-color="#221d1b" stop-opacity=".7"/>
      <stop offset="100%" stop-color="#131110" stop-opacity="0"/>
    </radialGradient>
    <filter id="noise8762">
      <feTurbulence type="fractalNoise" baseFrequency="0.0035" numOctaves="4" seed="285"/>
      <feColorMatrix type="saturate" values="0"/>
      <feComponentTransfer><feFuncA type="linear" slope="0.040"/></feComponentTransfer>
      <feBlend in="SourceGraphic" mode="screen"/>
    </filter>
  </defs>
  <rect width="800" height="800" fill="url(#bg8762a)"/>
  <rect width="800" height="800" fill="url(#bg8762b)"/>
  <rect width="800" height="800" filter="url(#noise8762)" opacity=".4"/>
  <g id="atmosphere">
  <circle cx="428" cy="436" r="320" fill="#ce7b4a" opacity="0.100" filter="url(#blur-h)"/>
  <circle cx="500" cy="808" r="334" fill="#726447" opacity="0.038" filter="url(#blur-h)"/>
  <circle cx="-44" cy="187" r="149" fill="#3baf9d" opacity="0.039" filter="url(#blur-h)"/>
  <circle cx="117" cy="26" r="336" fill="#5c3c39" opacity="0.058" filter="url(#blur-h)"/>
  <circle cx="541" cy="26" r="219" fill="#5b4739" opacity="0.076" filter="url(#blur-h)"/>
  <circle cx="512" cy="33" r="222" fill="#6c5643" opacity="0.054" filter="url(#blur-h)"/>
  </g>
  <g id="back">
    <circle cx="593" cy="620" r="118" fill="#cd8748" opacity="0.126" filter="url(#blur-h)"/>
    <circle cx="480" cy="263" r="149" fill="#cc8344" opacity="0.094" filter="url(#blur-h)"/>
    <circle cx="226" cy="275" r="168" fill="#3bac92" opacity="0.084" filter="url(#blur-h)"/>
    <circle cx="322" cy="222" r="200" fill="#48c0bb" opacity="0.072" filter="url(#blur-h)"/>
    <circle cx="161" cy="218" r="93" fill="#5769c9" opacity="0.063" filter="url(#blur-h)"/>
    <circle cx="388" cy="238" r="65" fill="#4dc2b4" opacity="0.066" filter="url(#blur-h)"/>
    <circle cx="285" cy="161" r="61" fill="#3f4ac1" opacity="0.083" filter="url(#blur-h)"/>
    <circle cx="210" cy="584" r="108" fill="#3db394" opacity="0.112" filter="url(#blur-h)"/>
    <circle cx="597" cy="388" r="59" fill="#4649c3" opacity="0.069" filter="url(#blur-h)"/>
    <circle cx="597" cy="388" r="59" fill="none" stroke="#4649c3" stroke-width="1.1" opacity="0.124"/>
    <circle cx="326" cy="31" r="51" fill="#5457c8" opacity="0.075" filter="url(#blur-h)"/>
    <circle cx="326" cy="31" r="51" fill="none" stroke="#5457c8" stroke-width="0.5" opacity="0.134"/>
    <circle cx="565" cy="728" r="48" fill="#d38d5c" opacity="0.109" filter="url(#blur-h)"/>
    <circle cx="565" cy="728" r="48" fill="none" stroke="#d38d5c" stroke-width="0.7" opacity="0.196"/>
    <circle cx="517" cy="691" r="90" fill="#48b8c0" opacity="0.044" filter="url(#blur-h)"/>
    <circle cx="517" cy="691" r="90" fill="none" stroke="#48b8c0" stroke-width="0.8" opacity="0.079"/>
    <circle cx="-33" cy="143" r="64" fill="#cc7344" opacity="0.054" filter="url(#blur-h)"/>
    <circle cx="-33" cy="143" r="64" fill="none" stroke="#cc7344" stroke-width="0.8" opacity="0.097"/>
    <circle cx="837" cy="-11" r="94" fill="#4cc1a8" opacity="0.076" filter="url(#blur-h)"/>
    <circle cx="837" cy="-11" r="94" fill="none" stroke="#4cc1a8" stroke-width="0.5" opacity="0.137"/>
    <circle cx="434" cy="671" r="41" fill="#3f58c1" opacity="0.036" filter="url(#blur-h)"/>
    <circle cx="434" cy="671" r="41" fill="none" stroke="#3f58c1" stroke-width="0.5" opacity="0.064"/>
    <circle cx="44" cy="461" r="67" fill="#4cc2bd" opacity="0.050" filter="url(#blur-h)"/>
    <circle cx="44" cy="461" r="67" fill="none" stroke="#4cc2bd" stroke-width="0.7" opacity="0.091"/>
    <circle cx="252" cy="314" r="38" fill="#453fc1" opacity="0.040" filter="url(#blur-h)"/>
    <circle cx="252" cy="314" r="38" fill="none" stroke="#453fc1" stroke-width="1.1" opacity="0.071"/>
    <circle cx="86" cy="164" r="92" fill="#47c0a2" opacity="0.041" filter="url(#blur-h)"/>
    <circle cx="86" cy="164" r="92" fill="none" stroke="#47c0a2" stroke-width="0.5" opacity="0.073"/>
    <circle cx="297" cy="788" r="37" fill="#40bd97" opacity="0.068" filter="url(#blur-h)"/>
    <circle cx="297" cy="788" r="37" fill="none" stroke="#40bd97" stroke-width="0.9" opacity="0.123"/>
    <circle cx="202" cy="65" r="36" fill="#3b4cba" opacity="0.045" filter="url(#blur-h)"/>
    <circle cx="202" cy="65" r="36" fill="none" stroke="#3b4cba" stroke-width="0.6" opacity="0.081"/>
    <circle cx="669" cy="459" r="78" fill="#3aaca1" opacity="0.058" filter="url(#blur-h)"/>
    <circle cx="669" cy="459" r="78" fill="none" stroke="#3aaca1" stroke-width="0.7" opacity="0.105"/>
    <circle cx="843" cy="647" r="66" fill="#ce724d" opacity="0.067" filter="url(#blur-h)"/>
    <circle cx="843" cy="647" r="66" fill="none" stroke="#ce724d" stroke-width="0.8" opacity="0.121"/>
    <circle cx="559" cy="28" r="87" fill="#3d6dbe" opacity="0.083" filter="url(#blur-h)"/>
    <circle cx="559" cy="28" r="87" fill="none" stroke="#3d6dbe" stroke-width="0.9" opacity="0.149"/>
    <circle cx="652" cy="299" r="71" fill="#4fc2c2" opacity="0.058" filter="url(#blur-h)"/>
    <circle cx="652" cy="299" r="71" fill="none" stroke="#4fc2c2" stroke-width="0.5" opacity="0.105"/>
    <circle cx="565" cy="71" r="73" fill="#3c6dbb" opacity="0.054" filter="url(#blur-h)"/>
    <circle cx="565" cy="71" r="73" fill="none" stroke="#3c6dbb" stroke-width="0.9" opacity="0.096"/>
  </g>
  <g id="nebula" opacity="0.59">
    <circle cx="205" cy="726" r="108" fill="#50c3bd" opacity="0.075" filter="url(#blur-h)"/>
    <circle cx="369" cy="313" r="162" fill="#413dc0" opacity="0.056" filter="url(#blur-h)"/>
    <circle cx="685" cy="251" r="65" fill="#ce944d" opacity="0.082" filter="url(#blur-h)"/>
    <circle cx="203" cy="397" r="74" fill="#42beb1" opacity="0.085" filter="url(#blur-h)"/>
    <circle cx="112" cy="171" r="205" fill="#d27858" opacity="0.084" filter="url(#blur-h)"/>
    <circle cx="248" cy="635" r="173" fill="#3b41b9" opacity="0.103" filter="url(#blur-h)"/>
  </g>
  <g id="curves" opacity="0.46">
    <path d="M-11.4,89.4 Q429.5,74.0 471.9,343.1 Q514.3,612.2 348.4,650.2 Q182.5,688.1 492.9,695.6 L803.4,703.1" stroke="#cf8f4f" stroke-width="1.7" fill="none" opacity="0.10"/>
    <path d="M2.1,705.1 Q358.0,87.4 467.7,72.2 Q577.4,57.0 696.8,126.2 L816.2,195.4" stroke="#43beb4" stroke-width="2.7" fill="none" opacity="0.17"/>
    <path d="M-24.4,24.2 Q220.3,516.9 263.8,652.8 Q307.2,788.7 187.2,576.2 Q67.2,363.8 131.3,555.4 Q195.5,747.0 385.6,493.9 Q575.7,240.9 697.3,263.5 L819.0,286.1" stroke="#3d49bf" stroke-width="1.1" fill="none" opacity="0.19"/>
    <path d="M-28.9,771.5 Q340.7,236.9 387.1,318.3 Q433.5,399.7 451.8,520.5 Q470.1,641.4 288.0,378.3 Q105.9,115.3 373.2,447.6 Q640.6,780.0 725.6,627.3 L810.6,474.7" stroke="#cc6d46" stroke-width="2.2" fill="none" opacity="0.16"/>
    <path d="M-8.8,671.5 Q305.4,494.5 363.8,559.7 Q422.2,625.0 330.2,516.7 Q238.3,408.3 415.0,324.9 Q591.7,241.5 556.2,510.6 Q520.7,779.7 663.8,397.2 L806.9,14.6" stroke="#cd6a49" stroke-width="2.5" fill="none" opacity="0.05"/>
    <path d="M-35.7,-11.1 Q178.8,583.2 159.0,475.0 Q139.3,366.7 396.7,270.6 Q654.1,174.5 742.9,255.4 L831.6,336.4" stroke="#5062c7" stroke-width="2.5" fill="none" opacity="0.12"/>
    <path d="M-13.3,344.6 Q457.0,617.2 363.7,459.3 Q270.4,301.4 552.7,534.1 L834.9,766.8" stroke="#3d46bf" stroke-width="2.8" fill="none" opacity="0.06"/>
    <path d="M-22.9,141.3 Q560.5,64.5 563.9,207.2 Q567.2,349.9 605.1,269.6 Q642.9,189.3 405.2,164.2 Q167.6,139.1 362.5,93.9 Q557.5,48.7 678.3,329.7 L799.2,610.7" stroke="#3c62bb" stroke-width="1.9" fill="none" opacity="0.14"/>
    <path d="M-40.4,509.8 Q76.0,40.3 258.6,128.9 Q441.3,217.5 442.4,255.6 Q443.5,293.7 636.5,333.3 L829.5,372.9" stroke="#5758c9" stroke-width="1.2" fill="none" opacity="0.07"/>
    <path d="M-7.0,412.3 Q540.6,298.1 363.2,370.0 Q185.9,442.0 327.2,543.4 Q468.5,644.9 502.5,335.1 Q536.6,25.2 675.0,215.5 L813.4,405.8" stroke="#4bc1b7" stroke-width="1.5" fill="none" opacity="0.08"/>
  </g>
  <g id="constellation" opacity="0.37">
    <line x1="625" y1="323" x2="568" y2="398" stroke="#475ac4" stroke-width="0.6" opacity="0.049"/>
    <line x1="667" y1="498" x2="612" y2="372" stroke="#475ac4" stroke-width="0.6" opacity="0.033"/>
    <line x1="302" y1="399" x2="369" y2="521" stroke="#475ac4" stroke-width="0.6" opacity="0.037"/>
    <line x1="612" y1="372" x2="705" y2="378" stroke="#475ac4" stroke-width="0.6" opacity="0.047"/>
    <line x1="612" y1="372" x2="546" y2="369" stroke="#475ac4" stroke-width="0.6" opacity="0.081"/>
    <line x1="616" y1="87" x2="539" y2="84" stroke="#475ac4" stroke-width="0.6" opacity="0.054"/>
    <line x1="616" y1="87" x2="525" y2="177" stroke="#475ac4" stroke-width="0.6" opacity="0.028"/>
    <line x1="33" y1="683" x2="41" y2="739" stroke="#475ac4" stroke-width="0.6" opacity="0.062"/>
    <line x1="180" y1="59" x2="78" y2="97" stroke="#475ac4" stroke-width="0.6" opacity="0.024"/>
    <line x1="355" y1="58" x2="340" y2="157" stroke="#475ac4" stroke-width="0.6" opacity="0.036"/>
    <line x1="39" y1="762" x2="159" y2="744" stroke="#475ac4" stroke-width="0.6" opacity="0.024"/>
    <line x1="159" y1="744" x2="57" y2="666" stroke="#475ac4" stroke-width="0.6" opacity="0.025"/>
    <line x1="681" y1="738" x2="572" y2="764" stroke="#475ac4" stroke-width="0.6" opacity="0.027"/>
    <line x1="568" y1="398" x2="440" y2="451" stroke="#475ac4" stroke-width="0.6" opacity="0.037"/>
    <line x1="460" y1="346" x2="440" y2="451" stroke="#475ac4" stroke-width="0.6" opacity="0.041"/>
    <line x1="546" y1="369" x2="638" y2="302" stroke="#475ac4" stroke-width="0.6" opacity="0.033"/>
    <circle cx="625" cy="323" r="2.6" fill="white" opacity="0.40"/>
    <circle cx="625" cy="323" r="8.6" fill="#ce7b4a" opacity="0.049"/>
    <circle cx="118" cy="409" r="1.6" fill="white" opacity="0.19"/>
    <circle cx="90" cy="430" r="1.3" fill="white" opacity="0.13"/>
    <circle cx="731" cy="673" r="2.5" fill="white" opacity="0.37"/>
    <circle cx="731" cy="673" r="8.5" fill="#d17855" opacity="0.045"/>
    <circle cx="667" cy="498" r="2.8" fill="white" opacity="0.44"/>
    <circle cx="667" cy="498" r="8.8" fill="#cd7a47" opacity="0.053"/>
    <circle cx="181" cy="451" r="1.5" fill="white" opacity="0.17"/>
    <circle cx="341" cy="73" r="3.2" fill="white" opacity="0.52"/>
    <circle cx="341" cy="73" r="9.2" fill="#ce7b4a" opacity="0.062"/>
    <circle cx="178" cy="562" r="1.3" fill="white" opacity="0.14"/>
    <circle cx="49" cy="272" r="2.8" fill="white" opacity="0.44"/>
    <circle cx="49" cy="272" r="8.8" fill="#cc6a45" opacity="0.052"/>
    <circle cx="302" cy="399" r="4.1" fill="white" opacity="0.71"/>
    <circle cx="302" cy="399" r="10.1" fill="#ce7b4a" opacity="0.085"/>
    <circle cx="240" cy="440" r="2.0" fill="white" opacity="0.28"/>
    <circle cx="612" cy="372" r="3.3" fill="white" opacity="0.54"/>
    <circle cx="612" cy="372" r="9.3" fill="#ce754c" opacity="0.065"/>
    <circle cx="616" cy="87" r="1.1" fill="white" opacity="0.10"/>
    <circle cx="539" cy="84" r="3.4" fill="white" opacity="0.55"/>
    <circle cx="539" cy="84" r="9.4" fill="#cb7d40" opacity="0.066"/>
    <circle cx="33" cy="683" r="2.3" fill="white" opacity="0.33"/>
    <circle cx="33" cy="683" r="8.3" fill="#cb6741" opacity="0.040"/>
    <circle cx="369" cy="521" r="2.9" fill="white" opacity="0.47"/>
    <circle cx="369" cy="521" r="8.9" fill="#ce7b4a" opacity="0.056"/>
    <circle cx="445" cy="711" r="3.0" fill="white" opacity="0.49"/>
    <circle cx="445" cy="711" r="9.0" fill="#cc6a42" opacity="0.059"/>
    <circle cx="471" cy="278" r="1.4" fill="white" opacity="0.16"/>
    <circle cx="332" cy="112" r="2.7" fill="white" opacity="0.42"/>
    <circle cx="332" cy="112" r="8.7" fill="#d08552" opacity="0.050"/>
    <circle cx="705" cy="378" r="2.0" fill="white" opacity="0.27"/>
    <circle cx="180" cy="59" r="1.2" fill="white" opacity="0.13"/>
    <circle cx="111" cy="420" r="1.9" fill="white" opacity="0.25"/>
    <circle cx="525" cy="177" r="1.8" fill="white" opacity="0.25"/>
    <circle cx="554" cy="232" r="2.6" fill="white" opacity="0.41"/>
    <circle cx="554" cy="232" r="8.6" fill="#ce894b" opacity="0.049"/>
    <circle cx="355" cy="58" r="1.2" fill="white" opacity="0.13"/>
    <circle cx="39" cy="762" r="1.1" fill="white" opacity="0.11"/>
    <circle cx="87" cy="222" r="2.0" fill="white" opacity="0.27"/>
    <circle cx="293" cy="423" r="2.8" fill="white" opacity="0.45"/>
    <circle cx="293" cy="423" r="8.8" fill="#ce7b4a" opacity="0.054"/>
    <circle cx="159" cy="744" r="3.4" fill="white" opacity="0.54"/>
    <circle cx="159" cy="744" r="9.4" fill="#ce7b4a" opacity="0.065"/>
    <circle cx="681" cy="738" r="2.7" fill="white" opacity="0.41"/>
    <circle cx="681" cy="738" r="8.7" fill="#ce7b4a" opacity="0.050"/>
    <circle cx="674" cy="551" r="2.6" fill="white" opacity="0.40"/>
    <circle cx="674" cy="551" r="8.6" fill="#cd7048" opacity="0.048"/>
    <circle cx="57" cy="666" r="2.5" fill="white" opacity="0.38"/>
    <circle cx="57" cy="666" r="8.5" fill="#ce7b4a" opacity="0.045"/>
    <circle cx="572" cy="764" r="2.4" fill="white" opacity="0.35"/>
    <circle cx="572" cy="764" r="8.4" fill="#cc7445" opacity="0.042"/>
    <circle cx="152" cy="34" r="1.6" fill="white" opacity="0.20"/>
    <circle cx="568" cy="398" r="2.2" fill="white" opacity="0.32"/>
    <circle cx="460" cy="346" r="4.1" fill="white" opacity="0.73"/>
    <circle cx="460" cy="346" r="10.1" fill="#ce834c" opacity="0.087"/>
    <circle cx="55" cy="415" r="1.8" fill="white" opacity="0.23"/>
    <circle cx="732" cy="208" r="2.3" fill="white" opacity="0.34"/>
    <circle cx="732" cy="208" r="8.3" fill="#ce7b4a" opacity="0.041"/>
    <circle cx="629" cy="565" r="2.7" fill="white" opacity="0.42"/>
    <circle cx="629" cy="565" r="8.7" fill="#ce7b4a" opacity="0.050"/>
    <circle cx="546" cy="369" r="4.0" fill="white" opacity="0.70"/>
    <circle cx="546" cy="369" r="10.0" fill="#cb7b40" opacity="0.084"/>
    <circle cx="752" cy="408" r="3.4" fill="white" opacity="0.56"/>
    <circle cx="752" cy="408" r="9.4" fill="#ce7b4a" opacity="0.067"/>
    <circle cx="71" cy="583" r="1.6" fill="white" opacity="0.19"/>
    <circle cx="340" cy="157" r="1.3" fill="white" opacity="0.13"/>
    <circle cx="638" cy="302" r="2.9" fill="white" opacity="0.45"/>
    <circle cx="638" cy="302" r="8.9" fill="#cd7b47" opacity="0.054"/>
    <circle cx="41" cy="739" r="2.7" fill="white" opacity="0.40"/>
    <circle cx="41" cy="739" r="8.7" fill="#ce7b4a" opacity="0.048"/>
    <circle cx="212" cy="90" r="1.7" fill="white" opacity="0.22"/>
    <circle cx="440" cy="451" r="4.1" fill="white" opacity="0.73"/>
    <circle cx="440" cy="451" r="10.1" fill="#c9733a" opacity="0.088"/>
    <circle cx="78" cy="97" r="1.5" fill="white" opacity="0.18"/>
  </g>
  <g id="bokeh-fg" opacity="0.35">
    <circle cx="464" cy="-6" r="82" fill="#d08952" opacity="0.052" filter="url(#blur-h)"/>
    <circle cx="464" cy="-6" r="82" fill="none" stroke="#d08952" stroke-width="0.6" opacity="0.094"/>
    <circle cx="14" cy="536" r="38" fill="#3d3cbe" opacity="0.075" filter="url(#blur-h)"/>
    <circle cx="14" cy="536" r="38" fill="none" stroke="#3d3cbe" stroke-width="0.7" opacity="0.136"/>
    <circle cx="321" cy="448" r="68" fill="#40aebd" opacity="0.075" filter="url(#blur-h)"/>
    <circle cx="321" cy="448" r="68" fill="none" stroke="#40aebd" stroke-width="0.6" opacity="0.135"/>
    <circle cx="568" cy="218" r="92" fill="#42beb1" opacity="0.066" filter="url(#blur-h)"/>
    <circle cx="568" cy="218" r="92" fill="none" stroke="#42beb1" stroke-width="0.4" opacity="0.118"/>
    <circle cx="211" cy="509" r="43" fill="#d2875c" opacity="0.066" filter="url(#blur-h)"/>
    <circle cx="211" cy="509" r="43" fill="none" stroke="#d2875c" stroke-width="0.8" opacity="0.119"/>
    <circle cx="460" cy="299" r="69" fill="#5984c9" opacity="0.054" filter="url(#blur-h)"/>
    <circle cx="460" cy="299" r="69" fill="none" stroke="#5984c9" stroke-width="0.6" opacity="0.097"/>
    <circle cx="448" cy="745" r="61" fill="#48c0b6" opacity="0.047" filter="url(#blur-h)"/>
    <circle cx="448" cy="745" r="61" fill="none" stroke="#48c0b6" stroke-width="0.5" opacity="0.085"/>
    <circle cx="646" cy="619" r="48" fill="#cb8f40" opacity="0.110" filter="url(#blur-h)"/>
    <circle cx="646" cy="619" r="48" fill="none" stroke="#cb8f40" stroke-width="0.7" opacity="0.198"/>
    <circle cx="301" cy="514" r="72" fill="#ce634d" opacity="0.036" filter="url(#blur-h)"/>
    <circle cx="301" cy="514" r="72" fill="none" stroke="#ce634d" stroke-width="0.8" opacity="0.065"/>
    <circle cx="-30" cy="-28" r="60" fill="#cc6642" opacity="0.048" filter="url(#blur-h)"/>
    <circle cx="-30" cy="-28" r="60" fill="none" stroke="#cc6642" stroke-width="1.0" opacity="0.086"/>
    <circle cx="26" cy="645" r="25" fill="#3ca5b2" opacity="0.055" filter="url(#blur-h)"/>
    <circle cx="26" cy="645" r="25" fill="none" stroke="#3ca5b2" stroke-width="0.5" opacity="0.098"/>
  </g>
  <g id="volumetric" opacity="0.62">
    <ellipse cx="446" cy="375" rx="160" ry="105" fill="#cc5d43" opacity="0.026" transform="rotate(-26 446 375)" filter="url(#blur-h)"/>
    <ellipse cx="426" cy="516" rx="200" ry="127" fill="#d3935d" opacity="0.046" transform="rotate(1 426 516)" filter="url(#blur-h)"/>
    <ellipse cx="451" cy="371" rx="173" ry="104" fill="#d18558" opacity="0.017" transform="rotate(25 451 371)" filter="url(#blur-h)"/>
    <ellipse cx="371" cy="493" rx="201" ry="126" fill="#cd6146" opacity="0.042" transform="rotate(6 371 493)" filter="url(#blur-h)"/>
  </g>
  <g id="stars">
    <circle cx="701" cy="2" r="0.4" fill="white" opacity="0.16"/>
    <circle cx="414" cy="603" r="2.5" fill="white" opacity="0.32"/>
    <circle cx="414" cy="603" r="7.5" fill="white" opacity="0.019"/>
    <circle cx="748" cy="57" r="1.0" fill="white" opacity="0.27"/>
    <circle cx="587" cy="19" r="1.3" fill="white" opacity="0.28"/>
    <circle cx="675" cy="604" r="2.2" fill="white" opacity="0.33"/>
    <circle cx="675" cy="604" r="7.2" fill="white" opacity="0.020"/>
    <circle cx="750" cy="706" r="2.1" fill="white" opacity="0.08"/>
    <circle cx="750" cy="706" r="7.1" fill="white" opacity="0.005"/>
    <circle cx="749" cy="556" r="2.2" fill="white" opacity="0.26"/>
    <circle cx="749" cy="556" r="7.2" fill="white" opacity="0.016"/>
    <circle cx="221" cy="36" r="1.5" fill="white" opacity="0.33"/>
    <circle cx="316" cy="481" r="3.0" fill="white" opacity="0.33"/>
    <circle cx="316" cy="481" r="8.0" fill="white" opacity="0.020"/>
    <circle cx="269" cy="302" r="3.0" fill="white" opacity="0.36"/>
    <circle cx="269" cy="302" r="8.0" fill="white" opacity="0.021"/>
    <circle cx="536" cy="499" r="2.4" fill="white" opacity="0.23"/>
    <circle cx="536" cy="499" r="7.4" fill="white" opacity="0.014"/>
    <circle cx="123" cy="333" r="2.1" fill="white" opacity="0.14"/>
    <circle cx="123" cy="333" r="7.1" fill="white" opacity="0.009"/>
    <circle cx="789" cy="306" r="0.5" fill="white" opacity="0.34"/>
    <circle cx="437" cy="68" r="1.3" fill="white" opacity="0.06"/>
    <circle cx="767" cy="91" r="0.9" fill="white" opacity="0.13"/>
    <circle cx="541" cy="95" r="1.5" fill="white" opacity="0.39"/>
    <circle cx="656" cy="101" r="1.9" fill="white" opacity="0.14"/>
    <circle cx="672" cy="16" r="0.9" fill="white" opacity="0.35"/>
    <circle cx="390" cy="448" r="2.3" fill="white" opacity="0.60"/>
    <circle cx="390" cy="448" r="7.3" fill="white" opacity="0.036"/>
    <circle cx="21" cy="2" r="1.9" fill="white" opacity="0.31"/>
    <circle cx="147" cy="373" r="2.2" fill="white" opacity="0.46"/>
    <circle cx="147" cy="373" r="7.2" fill="white" opacity="0.028"/>
    <circle cx="167" cy="672" r="1.3" fill="white" opacity="0.12"/>
    <circle cx="555" cy="74" r="1.9" fill="white" opacity="0.08"/>
    <circle cx="143" cy="561" r="2.5" fill="white" opacity="0.37"/>
    <circle cx="143" cy="561" r="7.5" fill="white" opacity="0.022"/>
    <circle cx="352" cy="777" r="1.7" fill="white" opacity="0.12"/>
    <circle cx="589" cy="307" r="1.5" fill="white" opacity="0.39"/>
    <circle cx="272" cy="244" r="0.9" fill="white" opacity="0.30"/>
    <circle cx="26" cy="-2" r="1.0" fill="white" opacity="0.27"/>
    <circle cx="380" cy="796" r="1.0" fill="white" opacity="0.38"/>
    <circle cx="155" cy="678" r="0.8" fill="white" opacity="0.21"/>
    <circle cx="755" cy="507" r="0.7" fill="white" opacity="0.37"/>
    <circle cx="150" cy="162" r="1.3" fill="white" opacity="0.26"/>
    <circle cx="134" cy="328" r="2.7" fill="white" opacity="0.23"/>
    <circle cx="134" cy="328" r="7.7" fill="white" opacity="0.014"/>
    <circle cx="379" cy="434" r="2.9" fill="white" opacity="0.33"/>
    <circle cx="379" cy="434" r="7.9" fill="white" opacity="0.020"/>
    <circle cx="529" cy="327" r="0.4" fill="white" opacity="0.30"/>
    <circle cx="761" cy="620" r="1.5" fill="white" opacity="0.23"/>
    <circle cx="560" cy="290" r="0.6" fill="white" opacity="0.31"/>
    <circle cx="344" cy="557" r="1.7" fill="white" opacity="0.21"/>
    <circle cx="686" cy="551" r="0.8" fill="white" opacity="0.15"/>
    <circle cx="380" cy="784" r="0.6" fill="white" opacity="0.13"/>
    <circle cx="502" cy="584" r="3.0" fill="white" opacity="0.26"/>
    <circle cx="502" cy="584" r="8.0" fill="white" opacity="0.016"/>
    <circle cx="341" cy="44" r="0.7" fill="white" opacity="0.06"/>
    <circle cx="450" cy="672" r="1.8" fill="white" opacity="0.12"/>
    <circle cx="601" cy="4" r="1.0" fill="white" opacity="0.35"/>
    <circle cx="799" cy="210" r="0.3" fill="white" opacity="0.35"/>
    <circle cx="197" cy="60" r="1.9" fill="white" opacity="0.22"/>
    <circle cx="774" cy="179" r="1.2" fill="white" opacity="0.23"/>
  </g>
  <g id="grain" opacity="0.28">
    <circle cx="783" cy="432" r="0.46" fill="white" opacity="0.09"/>
    <circle cx="493" cy="764" r="0.26" fill="white" opacity="0.04"/>
    <circle cx="184" cy="172" r="0.60" fill="white" opacity="0.06"/>
    <circle cx="442" cy="115" r="0.24" fill="white" opacity="0.06"/>
    <circle cx="398" cy="670" r="0.41" fill="white" opacity="0.06"/>
    <circle cx="559" cy="320" r="0.66" fill="white" opacity="0.07"/>
    <circle cx="771" cy="375" r="0.75" fill="white" opacity="0.03"/>
    <circle cx="336" cy="463" r="0.19" fill="white" opacity="0.02"/>
    <circle cx="407" cy="660" r="0.47" fill="white" opacity="0.03"/>
    <circle cx="639" cy="559" r="0.18" fill="white" opacity="0.09"/>
    <circle cx="496" cy="31" r="0.48" fill="white" opacity="0.03"/>
    <circle cx="577" cy="295" r="0.17" fill="white" opacity="0.09"/>
    <circle cx="600" cy="557" r="0.47" fill="white" opacity="0.03"/>
    <circle cx="778" cy="635" r="0.58" fill="white" opacity="0.05"/>
    <circle cx="258" cy="527" r="0.19" fill="white" opacity="0.04"/>
    <circle cx="738" cy="636" r="0.60" fill="white" opacity="0.06"/>
    <circle cx="722" cy="374" r="0.23" fill="white" opacity="0.06"/>
    <circle cx="685" cy="377" r="0.74" fill="white" opacity="0.08"/>
    <circle cx="517" cy="767" r="0.63" fill="white" opacity="0.02"/>
    <circle cx="36" cy="728" r="0.69" fill="white" opacity="0.03"/>
    <circle cx="478" cy="115" r="0.70" fill="white" opacity="0.02"/>
    <circle cx="664" cy="571" r="0.22" fill="white" opacity="0.06"/>
    <circle cx="360" cy="526" r="0.56" fill="white" opacity="0.09"/>
    <circle cx="5" cy="72" r="0.42" fill="white" opacity="0.04"/>
    <circle cx="59" cy="231" r="0.33" fill="white" opacity="0.05"/>
    <circle cx="62" cy="780" r="0.60" fill="white" opacity="0.05"/>
    <circle cx="630" cy="108" r="0.23" fill="white" opacity="0.04"/>
    <circle cx="60" cy="617" r="0.28" fill="white" opacity="0.04"/>
    <circle cx="645" cy="776" r="0.24" fill="white" opacity="0.03"/>
    <circle cx="178" cy="205" r="0.75" fill="white" opacity="0.04"/>
    <circle cx="433" cy="267" r="0.48" fill="white" opacity="0.07"/>
    <circle cx="777" cy="3" r="0.38" fill="white" opacity="0.08"/>
    <circle cx="262" cy="19" r="0.66" fill="white" opacity="0.05"/>
    <circle cx="674" cy="30" r="0.25" fill="white" opacity="0.04"/>
    <circle cx="791" cy="158" r="0.46" fill="white" opacity="0.04"/>
    <circle cx="297" cy="152" r="0.60" fill="white" opacity="0.07"/>
    <circle cx="68" cy="641" r="0.68" fill="white" opacity="0.06"/>
    <circle cx="298" cy="365" r="0.40" fill="white" opacity="0.08"/>
    <circle cx="747" cy="366" r="0.25" fill="white" opacity="0.03"/>
    <circle cx="13" cy="119" r="0.53" fill="white" opacity="0.05"/>
    <circle cx="633" cy="112" r="0.54" fill="white" opacity="0.04"/>
    <circle cx="301" cy="392" r="0.22" fill="white" opacity="0.08"/>
    <circle cx="163" cy="420" r="0.26" fill="white" opacity="0.04"/>
    <circle cx="9" cy="437" r="0.62" fill="white" opacity="0.03"/>
    <circle cx="637" cy="12" r="0.22" fill="white" opacity="0.05"/>
    <circle cx="258" cy="434" r="0.64" fill="white" opacity="0.05"/>
    <circle cx="608" cy="156" r="0.21" fill="white" opacity="0.09"/>
    <circle cx="70" cy="251" r="0.22" fill="white" opacity="0.03"/>
    <circle cx="715" cy="653" r="0.17" fill="white" opacity="0.08"/>
    <circle cx="393" cy="214" r="0.66" fill="white" opacity="0.02"/>
    <circle cx="412" cy="387" r="0.67" fill="white" opacity="0.07"/>
    <circle cx="325" cy="336" r="0.21" fill="white" opacity="0.07"/>
    <circle cx="523" cy="696" r="0.61" fill="white" opacity="0.08"/>
    <circle cx="427" cy="480" r="0.67" fill="white" opacity="0.07"/>
    <circle cx="129" cy="796" r="0.20" fill="white" opacity="0.07"/>
    <circle cx="109" cy="168" r="0.39" fill="white" opacity="0.08"/>
    <circle cx="714" cy="673" r="0.46" fill="white" opacity="0.04"/>
    <circle cx="182" cy="521" r="0.45" fill="white" opacity="0.07"/>
    <circle cx="637" cy="564" r="0.65" fill="white" opacity="0.06"/>
    <circle cx="295" cy="303" r="0.32" fill="white" opacity="0.04"/>
    <circle cx="475" cy="283" r="0.48" fill="white" opacity="0.06"/>
    <circle cx="270" cy="339" r="0.65" fill="white" opacity="0.04"/>
    <circle cx="140" cy="103" r="0.45" fill="white" opacity="0.08"/>
    <circle cx="226" cy="607" r="0.35" fill="white" opacity="0.04"/>
    <circle cx="758" cy="689" r="0.61" fill="white" opacity="0.02"/>
    <circle cx="425" cy="182" r="0.73" fill="white" opacity="0.04"/>
    <circle cx="593" cy="254" r="0.19" fill="white" opacity="0.08"/>
    <circle cx="142" cy="291" r="0.32" fill="white" opacity="0.04"/>
    <circle cx="373" cy="117" r="0.64" fill="white" opacity="0.06"/>
    <circle cx="593" cy="794" r="0.28" fill="white" opacity="0.07"/>
  </g>
  <g id="focal">
    <circle cx="428" cy="436" r="168" fill="#ce7b4a" opacity="0.060" filter="url(#blur-h)"/>
    <circle cx="428" cy="436" r="84" fill="#ce7b4a" opacity="0.090" filter="url(#s-glow)"/>
    <line x1="428" y1="436" x2="502" y2="444" stroke="white" stroke-width="1.0" opacity="0.13"/>
    <line x1="428" y1="436" x2="474" y2="484" stroke="white" stroke-width="1.0" opacity="0.13"/>
    <line x1="428" y1="436" x2="408" y2="581" stroke="white" stroke-width="1.0" opacity="0.13"/>
    <line x1="428" y1="436" x2="377" y2="478" stroke="white" stroke-width="1.0" opacity="0.13"/>
    <line x1="428" y1="436" x2="350" y2="418" stroke="white" stroke-width="1.0" opacity="0.13"/>
    <line x1="428" y1="436" x2="329" y2="336" stroke="white" stroke-width="1.0" opacity="0.13"/>
    <line x1="428" y1="436" x2="449" y2="288" stroke="white" stroke-width="1.0" opacity="0.13"/>
    <line x1="428" y1="436" x2="501" y2="367" stroke="white" stroke-width="1.0" opacity="0.13"/>
    <circle cx="428" cy="436" r="18" fill="white" opacity="0.18"><animate attributeName="r" values="18;21;18" dur="4.5s" repeatCount="indefinite"/></circle>
    <circle cx="428" cy="436" r="6.8" fill="white" opacity="0.65"/>
  </g>
  <rect width="800" height="800" fill="url(#vig)"/>
</svg>